<svg xmlns="http://www.w3.org/2000/svg" xmlns:xlink="http://www.w3.org/1999/xlink" viewBox="0 0 587.41 587.13"><defs><style>.cls-1{fill:none;}.cls-2{clip-path:url(#clip-path);}.cls-3{fill:#a1d683;}.cls-4{fill:#96daea;}.cls-5{fill:#83bc39;opacity:0.7;isolation:isolate;}.cls-6{fill:#2ed9c3;}</style><clipPath id="clip-path" transform="translate(0.38 0.85)"><circle class="cls-1" cx="293.15" cy="293.15" r="293.15"/></clipPath></defs><g id="Capa_2" data-name="Capa 2"><g id="Capa_2-2" data-name="Capa 2"><g class="cls-2"><path class="cls-3" d="M231.6,421.2a182.61,182.61,0,0,1,28.35,55,168.51,168.51,0,0,1,44.1-41.55A163.16,163.16,0,0,0,231.6,421.2Z" transform="translate(0.38 0.85)"/><path class="cls-3" d="M118.25,523.6a177.24,177.24,0,0,1-32.9-23.9H85.1s57.1,60,131.3,76.2a335.44,335.44,0,0,1,12-40.45C177,555.75,118.25,523.6,118.25,523.6Z" transform="translate(0.38 0.85)"/><path class="cls-3" d="M470.72,468.85c-7.5,55.5-65.8,90.95-65.8,90.95a160.06,160.06,0,0,1-36.5,16.65v.25s80.5-18.75,132.05-76.2A343.63,343.63,0,0,1,470.72,468.85Z" transform="translate(0.38 0.85)"/><path class="cls-3" d="M373.72,410.35a179.86,179.86,0,0,1,62.6,3.4,169.33,169.33,0,0,1-14.4-59.5A163.44,163.44,0,0,0,373.72,410.35Z" transform="translate(0.38 0.85)"/><path class="cls-3" d="M575.72,214.05c.4,1.45.55,2.25.55,2.25a355.26,355.26,0,0,1-41.7,10c44.5,34.2,46,102.6,46,102.6a176,176,0,0,1-4.1,39.7h0S600.72,288.52,575.72,214.05Z" transform="translate(0.38 0.85)"/><path class="cls-3" d="M435.72,281.45a179.28,179.28,0,0,1,34.3-52.7,167.63,167.63,0,0,1-59.3-17.15A163.12,163.12,0,0,0,435.72,281.45Z" transform="translate(0.38 0.85)"/><path class="cls-3" d="M211.9,175.25a184,184,0,0,1-62-2.8,169.17,169.17,0,0,1,14.4,59A162.83,162.83,0,0,0,211.9,175.25Z" transform="translate(0.38 0.85)"/><path class="cls-3" d="M85.72,85.75a353.88,353.88,0,0,1,28.1,29.6c8.4-54.6,65.6-89.35,65.6-89.35a175.29,175.29,0,0,1,30-14.25c-21.15,6.25-85,28.35-128,78.2C84.05,87.25,85.72,85.75,85.72,85.75Z" transform="translate(0.38 0.85)"/><path class="cls-3" d="M117.8,356.15a168.93,168.93,0,0,1,57.9,17.3,162.58,162.58,0,0,0-24.6-69.35A183.52,183.52,0,0,1,117.8,356.15Z" transform="translate(0.38 0.85)"/><path class="cls-3" d="M5.72,257.7A175.9,175.9,0,0,1,10,217.05h0s-23.4,77.9,0,151.5A343.3,343.3,0,0,1,50,359C7.1,324.15,5.72,257.7,5.72,257.7Z" transform="translate(0.38 0.85)"/><path class="cls-3" d="M354.4,163.65a181.79,181.79,0,0,1-28.68-55.95,167.8,167.8,0,0,1-44.4,42.7A163.4,163.4,0,0,0,354.4,163.65Z" transform="translate(0.38 0.85)"/><path class="cls-3" d="M356.05,49.6c51.8-21.2,111.6,11.55,111.6,11.55a176.41,176.41,0,0,1,27.4,19c-15.5-15-67.1-60-132.45-72.2,3.5.85,5.45,1.45,5.45,1.45A349.52,349.52,0,0,1,356.05,49.6Z" transform="translate(0.38 0.85)"/><path class="cls-4" d="M115.72,471.1c-54.5-8.45-89.2-65.55-89.2-65.55a172.94,172.94,0,0,1-16.6-37.2h0S28.27,447.7,85.37,499.7A349,349,0,0,1,115.72,471.1Z" transform="translate(0.38 0.85)"/><path class="cls-5" d="M228.45,535.7A236.76,236.76,0,0,1,260,476.3a182.61,182.61,0,0,0-28.35-55,166.81,166.81,0,0,0-58.8,14,234.72,234.72,0,0,0-57.1,35.8,349.27,349.27,0,0,0-30,28.6,177.24,177.24,0,0,0,32.9,23.9S177,555.75,228.45,535.7Z" transform="translate(0.38 0.85)"/><path class="cls-5" d="M115.72,471.1a234.87,234.87,0,0,1,57.2-35.9,184.12,184.12,0,0,0,2.9-61.75,168.93,168.93,0,0,0-57.9-17.3,237.11,237.11,0,0,0-67.85,2.6,343.3,343.3,0,0,0-40,9.6,172.94,172.94,0,0,0,16.6,37.2S61.1,462.7,115.72,471.1Z" transform="translate(0.38 0.85)"/><path class="cls-4" d="M256.85,580a163.65,163.65,0,0,1-40.45-3.8h0s80.8,22.8,152.25,0a341.23,341.23,0,0,1-10-41.6C324.25,578.45,256.85,580,256.85,580Z" transform="translate(0.38 0.85)"/><path class="cls-5" d="M256.85,580s67.4-1.5,101.85-45a236.53,236.53,0,0,1-2.35-66.25,181.15,181.15,0,0,0-52.3-33.85A168.51,168.51,0,0,0,260,476.4a236.76,236.76,0,0,0-31.5,59.4,335.44,335.44,0,0,0-12,40.45A163.66,163.66,0,0,0,256.85,580Z" transform="translate(0.38 0.85)"/><path class="cls-5" d="M470.72,468.85a235.55,235.55,0,0,1-34.55-55,179.86,179.86,0,0,0-62.6-3.4,168.28,168.28,0,0,0-17.35,58.25A236.53,236.53,0,0,0,358.57,535a341.23,341.23,0,0,0,10,41.6,160.06,160.06,0,0,0,36.5-16.65S463.35,524.35,470.72,468.85Z" transform="translate(0.38 0.85)"/><path class="cls-4" d="M523.8,468a172.42,172.42,0,0,1-23.15,32.52h0s59.6-56.25,75.9-132A339.28,339.28,0,0,1,535.15,356C556.65,408,523.8,468,523.8,468Z" transform="translate(0.38 0.85)"/><path class="cls-5" d="M535.2,356.05a236.4,236.4,0,0,1-57-30h-.3a178.92,178.92,0,0,0-56,28.35,169.33,169.33,0,0,0,14.4,59.5,235.55,235.55,0,0,0,34.55,55,343.7,343.7,0,0,0,30,31.65A172.28,172.28,0,0,0,524,468.05S556.65,408,535.2,356.05Z" transform="translate(0.38 0.85)"/><path class="cls-5" d="M534.65,226.2a238,238,0,0,1-65,2.55,179.32,179.32,0,0,0-33.93,52.7,168.07,168.07,0,0,0,42.65,44.6,236.4,236.4,0,0,0,57,30,338.62,338.62,0,0,0,41.35,12.47,176,176,0,0,0,4.1-39.7S579.15,260.4,534.65,226.2Z" transform="translate(0.38 0.85)"/><path class="cls-4" d="M499.85,85A353.12,353.12,0,0,1,469.1,114c55.6,7.45,91,65.8,91,65.8a175.11,175.11,0,0,1,15.65,34.25c-3.65-13.65-25.25-87-80.75-133.9C498.15,83.15,499.85,85,499.85,85Z" transform="translate(0.38 0.85)"/><path class="cls-5" d="M469.1,114a239.08,239.08,0,0,1-55,35,182.35,182.35,0,0,0-3.25,62.7,167.65,167.65,0,0,0,59,17.15,238,238,0,0,0,65-2.55,355.26,355.26,0,0,0,41.7-10,7.34,7.34,0,0,0-.55-2.25,175.11,175.11,0,0,0-15.65-34.25S524.72,121.45,469.1,114Z" transform="translate(0.38 0.85)"/><path class="cls-5" d="M356.05,49.6a237.56,237.56,0,0,1-30.33,58.1,181.88,181.88,0,0,0,28.7,56,169,169,0,0,0,59.65-15,239.08,239.08,0,0,0,55-35,353.12,353.12,0,0,0,30.75-29s-1.7-1.8-5-5a176.41,176.41,0,0,0-27.4-19S407.85,28.4,356.05,49.6Z" transform="translate(0.38 0.85)"/><path class="cls-4" d="M61.35,118.6A174.67,174.67,0,0,1,81.35,90c-13.7,14.15-57.6,63.6-71.55,126.9a339.37,339.37,0,0,1,39.25,11.67C29.3,177.1,61.35,118.6,61.35,118.6Z" transform="translate(0.38 0.85)"/><path class="cls-5" d="M49.15,228.52a236.74,236.74,0,0,1,60,31.6,185.62,185.62,0,0,0,55-28.65,169.17,169.17,0,0,0-14.4-59,238.54,238.54,0,0,0-36.25-57.1,353.4,353.4,0,0,0-27.8-29.6s-1.55,1.5-4.15,4.2a174.67,174.67,0,0,0-20,28.65S29.3,177.1,49.15,228.52Z" transform="translate(0.38 0.85)"/><path class="cls-5" d="M50,358.75a237.49,237.49,0,0,1,67.85-2.6,183.41,183.41,0,0,0,33.3-52,167.29,167.29,0,0,0-41.75-44,236.74,236.74,0,0,0-60-31.6A339.28,339.28,0,0,0,10.1,216.9a175.46,175.46,0,0,0-4.4,40.85S7.1,324.15,50,358.75Z" transform="translate(0.38 0.85)"/><path class="cls-4" d="M226.15,50.15c34.4-43.7,102-45,102-45a170.65,170.65,0,0,1,34.5,3c-19.55-5-89-19.35-153.15,3.8,4.5-1.3,7-1.9,7-1.9A338.64,338.64,0,0,1,226.15,50.15Z" transform="translate(0.38 0.85)"/><path class="cls-5" d="M113.72,115.35A238.58,238.58,0,0,1,150,172.7a184,184,0,0,0,61.95,2.8A168.83,168.83,0,0,0,229,116.9a237.62,237.62,0,0,0-2.8-66.5,337.47,337.47,0,0,0-9.65-40.3s-2.55.6-7,1.9a175.29,175.29,0,0,0-30,14.25S122.1,60.75,113.72,115.35Z" transform="translate(0.38 0.85)"/><path class="cls-5" d="M226.15,50.15a237.62,237.62,0,0,1,2.8,66.5,181.75,181.75,0,0,0,52.35,33.7,167.68,167.68,0,0,0,44.42-42.65,237.65,237.65,0,0,0,30.35-58,350.33,350.33,0,0,0,12-40s-2-.6-5.45-1.45a170.65,170.65,0,0,0-34.5-3S260.72,6.45,226.15,50.15Z" transform="translate(0.38 0.85)"/><path class="cls-6" d="M580.72,328.8s-1.55-68.4-46.05-102.6a355.26,355.26,0,0,0,41.7-10,7.34,7.34,0,0,0-.55-2.25,175.11,175.11,0,0,0-15.65-34.25s-35.45-58.35-91-65.8a353.12,353.12,0,0,0,30.75-29.05s-1.7-1.8-5-5a176.41,176.41,0,0,0-27.4-19s-60-32.75-111.6-11.55a350.33,350.33,0,0,0,12-40s-2-.6-5.45-1.45a170.65,170.65,0,0,0-34.5-3s-67.55,1.5-102,45a337.47,337.47,0,0,0-9.65-40.3s-2.55.6-7.05,1.9a175.29,175.29,0,0,0-30,14.25s-57.2,35-65.6,89.35a352.11,352.11,0,0,0-28-29.3s-1.55,1.5-4.15,4.2a174.67,174.67,0,0,0-20,28.65s-32,58.5-12.2,110A339.28,339.28,0,0,0,10.12,217a175.69,175.69,0,0,0-4.4,40.75S7.22,324.35,50.07,359a343.3,343.3,0,0,0-40,9.6,172.94,172.94,0,0,0,16.6,37.2s34.45,56.95,89.05,65.35a349.27,349.27,0,0,0-30,28.6,177.24,177.24,0,0,0,32.9,23.9s58.75,32.15,110,12.1a337,337,0,0,0-12,40.45,163.65,163.65,0,0,0,40.45,3.8s67.4-1.5,101.85-45a341.23,341.23,0,0,0,10,41.6,160.06,160.06,0,0,0,36.5-16.65s58.3-35.45,65.8-91a343.7,343.7,0,0,0,30,31.65,172.28,172.28,0,0,0,23.15-32.5s32.85-60,11.4-112a339.28,339.28,0,0,0,41.4,12.45A175.22,175.22,0,0,0,580.72,328.8Zm-102.8-2.9a178.92,178.92,0,0,0-56,28.35,169.33,169.33,0,0,0,14.4,59.5,179.86,179.86,0,0,0-62.6-3.4,168.28,168.28,0,0,0-17.35,58.25,181.15,181.15,0,0,0-52.3-33.85A168.51,168.51,0,0,0,260,476.3a182.61,182.61,0,0,0-28.35-55,166.81,166.81,0,0,0-58.8,14,184.3,184.3,0,0,0,2.9-61.78,168.93,168.93,0,0,0-57.9-17.3,183.52,183.52,0,0,0,33.3-52.05,167.29,167.29,0,0,0-41.75-44,185.62,185.62,0,0,0,55-28.65,169.17,169.17,0,0,0-14.4-59,184,184,0,0,0,61.95,2.8A168.83,168.83,0,0,0,229,116.72a181.75,181.75,0,0,0,52.35,33.7,167.87,167.87,0,0,0,44.4-42.72,181.88,181.88,0,0,0,28.7,56,169,169,0,0,0,59.65-15,182.35,182.35,0,0,0-3.25,62.7,167.65,167.65,0,0,0,59,17.15,179,179,0,0,0-34.1,52.9,168.07,168.07,0,0,0,42.65,44.6Z" transform="translate(0.38 0.85)"/><path class="cls-1" d="M354.4,163.65a163.36,163.36,0,0,1-73.1-13.3,162.34,162.34,0,0,1-69.4,25,162.93,162.93,0,0,1-47.55,56.17,163.52,163.52,0,0,1-13.25,72.65,162.59,162.59,0,0,1,24.62,69.28,163.27,163.27,0,0,1,55.9,47.75,163.19,163.19,0,0,1,72.45,13.55,163.9,163.9,0,0,1,69.65-24.4,163.44,163.44,0,0,1,48.2-56.1,163,163,0,0,1,13.8-72.8,163.12,163.12,0,0,1-24.75-70A163.17,163.17,0,0,1,354.4,163.65Z" transform="translate(0.38 0.85)"/><path class="cls-4" d="M175.72,373.45a184.12,184.12,0,0,1-2.9,61.75,166.81,166.81,0,0,1,58.8-14A163.27,163.27,0,0,0,175.72,373.45Z" transform="translate(0.38 0.85)"/><path class="cls-4" d="M356.35,468.6a168.31,168.31,0,0,1,17.37-58.25,163.9,163.9,0,0,0-69.65,24.4A181.06,181.06,0,0,1,356.35,468.6Z" transform="translate(0.38 0.85)"/><path class="cls-4" d="M421.9,354.25a178.92,178.92,0,0,1,56-28.35h.3a168.07,168.07,0,0,1-42.65-44.6A163,163,0,0,0,421.9,354.25Z" transform="translate(0.38 0.85)"/><path class="cls-4" d="M410.72,211.6A182.35,182.35,0,0,1,414,148.9a169,169,0,0,1-59.65,15A163.22,163.22,0,0,0,410.72,211.6Z" transform="translate(0.38 0.85)"/><path class="cls-4" d="M164.35,231.45a185.62,185.62,0,0,1-55,28.65,167.29,167.29,0,0,1,41.75,44A163.52,163.52,0,0,0,164.35,231.45Z" transform="translate(0.38 0.85)"/><path class="cls-4" d="M229,116.65a168.83,168.83,0,0,1-17,58.6,162.34,162.34,0,0,0,69.4-25A181.92,181.92,0,0,1,229,116.65Z" transform="translate(0.38 0.85)"/></g></g></g></svg>