<svg id="Capa_1" data-name="Capa 1" xmlns="http://www.w3.org/2000/svg" xmlns:xlink="http://www.w3.org/1999/xlink" viewBox="0 0 1109.23 848.55"><defs><style>.cls-1{fill:none;}.cls-2{clip-path:url(#clip-path);}.cls-3{fill:#a1d683;}.cls-4{fill:#96daea;}.cls-5{fill:#83bc39;opacity:0.7;isolation:isolate;}.cls-6{fill:#2ed9c3;}.cls-7{fill:#636569;}</style><clipPath id="clip-path" transform="translate(-53.9 -373.63)"><circle class="cls-1" cx="608.43" cy="667.63" r="293.15"/></clipPath></defs><g class="cls-2"><path class="cls-3" d="M546.88,795.68a182.61,182.61,0,0,1,28.35,55,168.51,168.51,0,0,1,44.1-41.55A163.16,163.16,0,0,0,546.88,795.68Z" transform="translate(-53.9 -373.63)"/><path class="cls-3" d="M433.53,898.08a177.24,177.24,0,0,1-32.9-23.9h-.25s57.1,60,131.3,76.2a335.44,335.44,0,0,1,12.05-40.45C492.28,930.23,433.53,898.08,433.53,898.08Z" transform="translate(-53.9 -373.63)"/><path class="cls-3" d="M786,843.33c-7.5,55.5-65.8,90.95-65.8,90.95a160.06,160.06,0,0,1-36.5,16.65v.25s80.5-18.75,132.05-76.2A343.63,343.63,0,0,1,786,843.33Z" transform="translate(-53.9 -373.63)"/><path class="cls-3" d="M689,784.83a179.84,179.84,0,0,1,62.6,3.4,169.33,169.33,0,0,1-14.4-59.5A163.44,163.44,0,0,0,689,784.83Z" transform="translate(-53.9 -373.63)"/><path class="cls-3" d="M891,588.53c.4,1.45.55,2.25.55,2.25a355.26,355.26,0,0,1-41.7,10c44.5,34.2,46,102.6,46,102.6a176,176,0,0,1-4.1,39.7h0S916,663,891,588.53Z" transform="translate(-53.9 -373.63)"/><path class="cls-3" d="M751,655.93a179.28,179.28,0,0,1,34.3-52.7A167.63,167.63,0,0,1,726,586.08,163.12,163.12,0,0,0,751,655.93Z" transform="translate(-53.9 -373.63)"/><path class="cls-3" d="M527.18,549.73a184,184,0,0,1-61.95-2.8,169.17,169.17,0,0,1,14.4,59A162.93,162.93,0,0,0,527.18,549.73Z" transform="translate(-53.9 -373.63)"/><path class="cls-3" d="M401,460.23a353.88,353.88,0,0,1,28.1,29.6c8.4-54.6,65.6-89.35,65.6-89.35a175.29,175.29,0,0,1,30-14.25c-21.15,6.25-85,28.35-128,78.2C399.33,461.73,401,460.23,401,460.23Z" transform="translate(-53.9 -373.63)"/><path class="cls-3" d="M433.08,730.63a168.93,168.93,0,0,1,57.9,17.3,162.58,162.58,0,0,0-24.6-69.35A183.52,183.52,0,0,1,433.08,730.63Z" transform="translate(-53.9 -373.63)"/><path class="cls-3" d="M321,632.18a175.9,175.9,0,0,1,4.3-40.65h0s-23.4,77.9,0,151.5a343.3,343.3,0,0,1,40-9.6C322.38,698.63,321,632.18,321,632.18Z" transform="translate(-53.9 -373.63)"/><path class="cls-3" d="M669.68,538.13A181.73,181.73,0,0,1,641,482.18a167.8,167.8,0,0,1-44.4,42.7A163.35,163.35,0,0,0,669.68,538.13Z" transform="translate(-53.9 -373.63)"/><path class="cls-3" d="M671.33,424.08c51.8-21.2,111.6,11.55,111.6,11.55a176.41,176.41,0,0,1,27.4,19c-15.5-15-67.1-60-132.45-72.2,3.5.85,5.45,1.45,5.45,1.45A349.52,349.52,0,0,1,671.33,424.08Z" transform="translate(-53.9 -373.63)"/><path class="cls-4" d="M431,845.58c-54.5-8.45-89.2-65.55-89.2-65.55a172.94,172.94,0,0,1-16.6-37.2h0s18.35,79.35,75.45,131.35A350.46,350.46,0,0,1,431,845.58Z" transform="translate(-53.9 -373.63)"/><path class="cls-5" d="M543.73,910.18a236.76,236.76,0,0,1,31.5-59.4,182.61,182.61,0,0,0-28.35-55,166.81,166.81,0,0,0-58.8,14,234.91,234.91,0,0,0-57.1,35.8,350.74,350.74,0,0,0-30,28.6,177.24,177.24,0,0,0,32.9,23.9S492.28,930.23,543.73,910.18Z" transform="translate(-53.9 -373.63)"/><path class="cls-5" d="M431,845.58a234.87,234.87,0,0,1,57.2-35.9,184.12,184.12,0,0,0,2.9-61.75,168.93,168.93,0,0,0-57.9-17.3,237.13,237.13,0,0,0-67.85,2.6,343.3,343.3,0,0,0-40,9.6,172.94,172.94,0,0,0,16.6,37.2S376.38,837.18,431,845.58Z" transform="translate(-53.9 -373.63)"/><path class="cls-4" d="M572.13,954.43a163.65,163.65,0,0,1-40.45-3.8h0s80.8,22.8,152.25,0a341.23,341.23,0,0,1-10-41.6C639.53,952.93,572.13,954.43,572.13,954.43Z" transform="translate(-53.9 -373.63)"/><path class="cls-5" d="M572.13,954.43s67.4-1.5,101.85-45a236.53,236.53,0,0,1-2.35-66.25,181.15,181.15,0,0,0-52.3-33.85,168.51,168.51,0,0,0-44.1,41.55,236.76,236.76,0,0,0-31.5,59.4,335.44,335.44,0,0,0-12.05,40.45A163.66,163.66,0,0,0,572.13,954.43Z" transform="translate(-53.9 -373.63)"/><path class="cls-5" d="M786,843.33a235.23,235.23,0,0,1-34.55-55,179.84,179.84,0,0,0-62.6-3.4,168.28,168.28,0,0,0-17.35,58.25,236.53,236.53,0,0,0,2.35,66.25,341.23,341.23,0,0,0,10,41.6,160.06,160.06,0,0,0,36.5-16.65S778.63,898.83,786,843.33Z" transform="translate(-53.9 -373.63)"/><path class="cls-4" d="M839.08,842.48A172.28,172.28,0,0,1,815.93,875h0s59.6-56.25,75.9-132.05a339.28,339.28,0,0,1-41.4-12.45C871.93,782.43,839.08,842.48,839.08,842.48Z" transform="translate(-53.9 -373.63)"/><path class="cls-5" d="M850.48,730.53a236.4,236.4,0,0,1-57-30h-.3a178.92,178.92,0,0,0-56,28.35,169.33,169.33,0,0,0,14.4,59.5,235.23,235.23,0,0,0,34.55,55,343.7,343.7,0,0,0,30,31.65,172.28,172.28,0,0,0,23.15-32.5S871.93,782.43,850.48,730.53Z" transform="translate(-53.9 -373.63)"/><path class="cls-5" d="M849.93,600.68a238,238,0,0,1-65,2.55A179.39,179.39,0,0,0,751,655.93a168.07,168.07,0,0,0,42.65,44.6,236.4,236.4,0,0,0,57,30A339.28,339.28,0,0,0,892,743a176,176,0,0,0,4.1-39.7S894.43,634.88,849.93,600.68Z" transform="translate(-53.9 -373.63)"/><path class="cls-4" d="M815.13,459.43a353.12,353.12,0,0,1-30.75,29.05c55.6,7.45,91,65.8,91,65.8a175.11,175.11,0,0,1,15.65,34.25c-3.65-13.65-25.25-87-80.75-133.9C813.43,457.63,815.13,459.43,815.13,459.43Z" transform="translate(-53.9 -373.63)"/><path class="cls-5" d="M784.38,488.48a239.08,239.08,0,0,1-55,35,182.36,182.36,0,0,0-3.25,62.7,167.7,167.7,0,0,0,59,17.15,238,238,0,0,0,65-2.55,355.26,355.26,0,0,0,41.7-10,7.13,7.13,0,0,0-.55-2.25,175.11,175.11,0,0,0-15.65-34.25S840,495.93,784.38,488.48Z" transform="translate(-53.9 -373.63)"/><path class="cls-5" d="M671.33,424.08A237.63,237.63,0,0,1,641,482.18a181.88,181.88,0,0,0,28.7,56,169,169,0,0,0,59.65-15,239.08,239.08,0,0,0,55-35,353.12,353.12,0,0,0,30.75-29.05s-1.7-1.8-5-5a176.41,176.41,0,0,0-27.4-19S723.13,402.88,671.33,424.08Z" transform="translate(-53.9 -373.63)"/><path class="cls-4" d="M376.63,493.08a174.67,174.67,0,0,1,20-28.65c-13.7,14.15-57.6,63.6-71.55,126.9A339.28,339.28,0,0,1,364.33,603C344.58,551.58,376.63,493.08,376.63,493.08Z" transform="translate(-53.9 -373.63)"/><path class="cls-5" d="M364.43,603a236.74,236.74,0,0,1,60,31.6,185.62,185.62,0,0,0,55-28.65,169.17,169.17,0,0,0-14.4-59,238.54,238.54,0,0,0-36.25-57.1,353.4,353.4,0,0,0-27.8-29.6s-1.55,1.5-4.15,4.2a174.67,174.67,0,0,0-20,28.65S344.58,551.58,364.43,603Z" transform="translate(-53.9 -373.63)"/><path class="cls-5" d="M365.23,733.23a237.49,237.49,0,0,1,67.85-2.6,183.52,183.52,0,0,0,33.3-52,167.29,167.29,0,0,0-41.75-44,236.74,236.74,0,0,0-60-31.6,339.28,339.28,0,0,0-39.25-11.65,175.46,175.46,0,0,0-4.4,40.85S322.38,698.63,365.23,733.23Z" transform="translate(-53.9 -373.63)"/><path class="cls-4" d="M541.43,424.63c34.4-43.7,102-45,102-45a170.65,170.65,0,0,1,34.5,3c-19.55-5-89-19.35-153.15,3.8,4.5-1.3,7-1.9,7-1.9A338.64,338.64,0,0,1,541.43,424.63Z" transform="translate(-53.9 -373.63)"/><path class="cls-5" d="M429,489.83a238.58,238.58,0,0,1,36.25,57.35,184,184,0,0,0,61.95,2.8,168.83,168.83,0,0,0,17.05-58.6,237.62,237.62,0,0,0-2.8-66.5,337.47,337.47,0,0,0-9.65-40.3s-2.55.6-7,1.9a175.29,175.29,0,0,0-30,14.25S437.38,435.23,429,489.83Z" transform="translate(-53.9 -373.63)"/><path class="cls-5" d="M541.43,424.63a237.62,237.62,0,0,1,2.8,66.5,181.75,181.75,0,0,0,52.35,33.7A167.76,167.76,0,0,0,641,482.18a237.65,237.65,0,0,0,30.35-58.05,350.33,350.33,0,0,0,12-40s-2-.6-5.45-1.45a170.65,170.65,0,0,0-34.5-3S576,380.93,541.43,424.63Z" transform="translate(-53.9 -373.63)"/><path class="cls-6" d="M896,703.28s-1.55-68.4-46.05-102.6a355.26,355.26,0,0,0,41.7-10,7.13,7.13,0,0,0-.55-2.25,175.11,175.11,0,0,0-15.65-34.25s-35.45-58.35-91-65.8a353.12,353.12,0,0,0,30.75-29.05s-1.7-1.8-5-5a176.41,176.41,0,0,0-27.4-19s-60-32.75-111.6-11.55a350.33,350.33,0,0,0,12-40s-2-.6-5.45-1.45a170.65,170.65,0,0,0-34.5-3s-67.55,1.5-101.95,45a337.47,337.47,0,0,0-9.65-40.3s-2.55.6-7.05,1.9a175.29,175.29,0,0,0-30,14.25s-57.2,35-65.6,89.35A353.15,353.15,0,0,0,401,460.23s-1.55,1.5-4.15,4.2a174.67,174.67,0,0,0-20,28.65s-32.05,58.5-12.2,110a339.28,339.28,0,0,0-39.25-11.65,175.64,175.64,0,0,0-4.4,40.75s1.5,66.65,44.35,101.25a343.3,343.3,0,0,0-40,9.6,172.94,172.94,0,0,0,16.6,37.2s34.45,56.95,89.05,65.35a350.74,350.74,0,0,0-30,28.6,177.24,177.24,0,0,0,32.9,23.9s58.75,32.15,110,12.1a335.44,335.44,0,0,0-12,40.45,163.65,163.65,0,0,0,40.45,3.8s67.4-1.5,101.85-45a341.23,341.23,0,0,0,10,41.6,160.06,160.06,0,0,0,36.5-16.65s58.3-35.45,65.8-91a343.7,343.7,0,0,0,30,31.65,172.28,172.28,0,0,0,23.15-32.5s32.85-60,11.4-112a339.28,339.28,0,0,0,41.4,12.45A175.56,175.56,0,0,0,896,703.28Zm-102.8-2.9a178.92,178.92,0,0,0-56,28.35,169.33,169.33,0,0,0,14.4,59.5,179.84,179.84,0,0,0-62.6-3.4,168.28,168.28,0,0,0-17.35,58.25,181.15,181.15,0,0,0-52.3-33.85,168.51,168.51,0,0,0-44.1,41.55,182.61,182.61,0,0,0-28.35-55,166.81,166.81,0,0,0-58.8,14A184.12,184.12,0,0,0,491,748a168.93,168.93,0,0,0-57.9-17.3,183.52,183.52,0,0,0,33.3-52.05,167.29,167.29,0,0,0-41.75-44,185.62,185.62,0,0,0,55-28.65,169.17,169.17,0,0,0-14.4-59,184,184,0,0,0,61.95,2.8,168.83,168.83,0,0,0,17.05-58.6,181.75,181.75,0,0,0,52.35,33.7A167.83,167.83,0,0,0,641,482.18a181.88,181.88,0,0,0,28.7,56,169,169,0,0,0,59.65-15,182.35,182.35,0,0,0-3.25,62.7,167.7,167.7,0,0,0,59,17.15A179.1,179.1,0,0,0,751,655.93a168.07,168.07,0,0,0,42.65,44.6Z" transform="translate(-53.9 -373.63)"/><path class="cls-1" d="M669.68,538.13a163.36,163.36,0,0,1-73.1-13.3,162.34,162.34,0,0,1-69.4,25A162.93,162.93,0,0,1,479.63,606a163.52,163.52,0,0,1-13.25,72.65A162.57,162.57,0,0,1,491,747.93a163.27,163.27,0,0,1,55.9,47.75,163.19,163.19,0,0,1,72.45,13.55A163.9,163.9,0,0,1,689,784.83a163.44,163.44,0,0,1,48.2-56.1,163,163,0,0,1,13.8-72.8,163.12,163.12,0,0,1-24.75-70A163.19,163.19,0,0,1,669.68,538.13Z" transform="translate(-53.9 -373.63)"/><path class="cls-4" d="M491,747.93a184.12,184.12,0,0,1-2.9,61.75,166.81,166.81,0,0,1,58.8-14A163.27,163.27,0,0,0,491,747.93Z" transform="translate(-53.9 -373.63)"/><path class="cls-4" d="M671.63,843.08A168.28,168.28,0,0,1,689,784.83a163.9,163.9,0,0,0-69.65,24.4A181.15,181.15,0,0,1,671.63,843.08Z" transform="translate(-53.9 -373.63)"/><path class="cls-4" d="M737.18,728.73a178.92,178.92,0,0,1,56-28.35h.3a168.07,168.07,0,0,1-42.65-44.6A163,163,0,0,0,737.18,728.73Z" transform="translate(-53.9 -373.63)"/><path class="cls-4" d="M726,586.08a182.35,182.35,0,0,1,3.25-62.7,169,169,0,0,1-59.65,15A163.22,163.22,0,0,0,726,586.08Z" transform="translate(-53.9 -373.63)"/><path class="cls-4" d="M479.63,605.93a185.62,185.62,0,0,1-55,28.65,167.29,167.29,0,0,1,41.75,44A163.52,163.52,0,0,0,479.63,605.93Z" transform="translate(-53.9 -373.63)"/><path class="cls-4" d="M544.23,491.13a168.83,168.83,0,0,1-17.05,58.6,162.34,162.34,0,0,0,69.4-25A181.92,181.92,0,0,1,544.23,491.13Z" transform="translate(-53.9 -373.63)"/></g><path class="cls-7" d="M71,1221.08a15,15,0,0,1-6,1.05A10.45,10.45,0,0,1,54,1212.34a10.16,10.16,0,0,1,0-1.56A11.15,11.15,0,0,1,64.45,1199q.61,0,1.23,0a12,12,0,0,1,5.35,1l-.75,2.4a10,10,0,0,0-4.5-1,8.35,8.35,0,0,0-8.79,7.89,8.83,8.83,0,0,0,0,1.36,8.1,8.1,0,0,0,7.13,9,9,9,0,0,0,1.47,0,11.92,11.92,0,0,0,4.75-1Z" transform="translate(-53.9 -373.63)"/><path class="cls-7" d="M83.23,1222.18a10.3,10.3,0,0,1-10.06-10.54c0-.29,0-.57.06-.86A10.65,10.65,0,0,1,82.67,1199l1-.06a10,10,0,0,1,10.09,9.91,8.71,8.71,0,0,1-.09,1.44,10.55,10.55,0,0,1-9.17,11.77,9.23,9.23,0,0,1-1.18.08Zm0-2.4c4.6,0,7.2-4.2,7.2-9.3s-2.35-9.15-7.2-9.15-7.2,4.5-7.2,9.35,2.6,9.1,7.15,9.1Z" transform="translate(-53.9 -373.63)"/><path class="cls-7" d="M98.08,1221.78v-22.45h3.2l7.15,11.35a63,63,0,0,1,4,7.3h0c-.25-3-.35-5.75-.35-9.2v-9.45h2.75v22.45H112l-7.1-11.4a59.88,59.88,0,0,1-4.2-7.5h0v18.85Z" transform="translate(-53.9 -373.63)"/><path class="cls-7" d="M120.23,1218.28a10,10,0,0,0,5,1.4c3,0,4.7-1.5,4.7-3.8s-1.2-3.3-4.2-4.45-6-3.2-6-6.35a6.44,6.44,0,0,1,6.74-6.14,4.38,4.38,0,0,1,.51,0,10.08,10.08,0,0,1,5,1.1l-.8,2.4a8.13,8.13,0,0,0-4.25-1.1c-3,0-4.2,1.85-4.2,3.4s1.35,3.1,4.45,4.3,5.7,3.3,5.7,6.6-2.45,6.5-7.75,6.5a11.48,11.48,0,0,1-5.7-1.45Z" transform="translate(-53.9 -373.63)"/><path class="cls-7" d="M140.53,1199.33v13.35c0,5,2.25,7.1,5.25,7.1s5.45-2.2,5.45-7.1v-13.35h3v13.15c0,6.9-3.65,9.7-8.5,9.7s-8.05-2.6-8.05-9.6v-13.25Z" transform="translate(-53.9 -373.63)"/><path class="cls-7" d="M159.78,1199.33h2.95v20h9.6v2.4H159.78Z" transform="translate(-53.9 -373.63)"/><path class="cls-7" d="M177.48,1201.78h-6.85v-2.45h16.65v2.45h-6.85v20h-3Z" transform="translate(-53.9 -373.63)"/><path class="cls-7" d="M198.28,1222.18a10.24,10.24,0,0,1-10.06-10.43,7.77,7.77,0,0,1,.06-1,10.65,10.65,0,0,1,9.44-11.74l1-.06a10,10,0,0,1,10.09,9.91,8.71,8.71,0,0,1-.09,1.44,10.55,10.55,0,0,1-9.17,11.77A10.16,10.16,0,0,1,198.28,1222.18Zm0-2.4c4.6,0,7.2-4.2,7.2-9.3s-2.35-9.15-7.15-9.15-7.25,4.5-7.25,9.35,2.6,9.1,7.15,9.1Z" transform="translate(-53.9 -373.63)"/><path class="cls-7" d="M213.08,1199.68a29.53,29.53,0,0,1,5.55-.5,9.43,9.43,0,0,1,6.55,1.85,5.55,5.55,0,0,1,1.75,4.25,5.9,5.9,0,0,1-4.25,5.7h0a5.7,5.7,0,0,1,3.3,4.55,45.17,45.17,0,0,0,1.7,6.15h-3a29.19,29.19,0,0,1-1.45-5.35c-.65-3.1-1.9-4.25-4.55-4.35H216v9.7h-2.9Zm2.9,10h3c3.1,0,5-1.7,5-4.3s-2.1-4.15-5-4.15a14.32,14.32,0,0,0-2.85.25Z" transform="translate(-53.9 -373.63)"/><path class="cls-7" d="M243.23,1211.28h-8.7v8.1h9.7v2.4H231.58v-22.45h12.15v2.45h-9.2v7.1h8.7Z" transform="translate(-53.9 -373.63)"/><path class="cls-7" d="M248.23,1218.28a10.23,10.23,0,0,0,5,1.4c3,0,4.7-1.5,4.7-3.8s-1.2-3.3-4.25-4.45-6-3.2-6-6.35a6.5,6.5,0,0,1,6.84-6.14l.46,0a10.08,10.08,0,0,1,5,1.1l-.8,2.4a8,8,0,0,0-4.2-1.1c-3.1,0-4.25,1.85-4.25,3.4s1.35,3.1,4.45,4.3,5.75,3.1,5.75,6.6-2.5,6.45-7.8,6.45a11.56,11.56,0,0,1-5.75-1.45Z" transform="translate(-53.9 -373.63)"/><path class="cls-7" d="M284.93,1211.28h-8.7v8.1h10v2.4h-13v-22.45h12.2v2.45h-9.25v7.1h8.7Z" transform="translate(-53.9 -373.63)"/><path class="cls-7" d="M290.33,1221.78v-22.45h3.2l7.15,11.35a56.16,56.16,0,0,1,4,7.3h0c-.25-3-.3-5.75-.3-9.2v-9.45h2.7v22.45h-2.9l-7.15-11.4a66.78,66.78,0,0,1-4.15-7.5h0v18.85Z" transform="translate(-53.9 -373.63)"/><path class="cls-7" d="M329.33,1222.18a10.3,10.3,0,0,1-10.06-10.54c0-.29,0-.57.06-.86a10.7,10.7,0,0,1,9.54-11.75c.3,0,.61,0,.91,0a10,10,0,0,1,10.09,9.91,8.71,8.71,0,0,1-.09,1.44,10.55,10.55,0,0,1-9.17,11.77A10.86,10.86,0,0,1,329.33,1222.18Zm0-2.4c4.6,0,7.2-4.2,7.2-9.3s-2.35-9.15-7.15-9.15-7.25,4.5-7.25,9.35,2.6,9.1,7.15,9.1Z" transform="translate(-53.9 -373.63)"/><path class="cls-7" d="M344.13,1199.63a31.25,31.25,0,0,1,5.55-.45A9.29,9.29,0,0,1,356,1201a5.93,5.93,0,0,1,2,4.65,6.5,6.5,0,0,1-1.75,5,9.34,9.34,0,0,1-6.9,2.5,11.05,11.05,0,0,1-2.3,0v9h-2.9Zm2.9,10.75a8.07,8.07,0,0,0,2.4.25c3.5,0,5.6-1.7,5.6-4.75s-2.1-4.4-5.3-4.4a15.22,15.22,0,0,0-2.7,0Z" transform="translate(-53.9 -373.63)"/><path class="cls-7" d="M366.73,1201.78h-6.85v-2.45h16.65v2.45h-6.85v20h-2.95Z" transform="translate(-53.9 -373.63)"/><path class="cls-7" d="M382.53,1199.33v22.45h-2.95v-22.45Z" transform="translate(-53.9 -373.63)"/><path class="cls-7" d="M407.13,1212.18c0-3.1-.35-7-.35-9.7h0c-.8,2.6-1.7,5.45-2.8,8.55l-4,10.9h-2.2l-3.65-10.7c-1.05-3.2-1.95-6.1-2.55-8.75h0a89.19,89.19,0,0,1-.4,10l-.6,9.6h-2.8l1.6-22.45h3.7l3.8,10.85c.95,2.8,1.7,5.3,2.3,7.6h0a76.62,76.62,0,0,1,2.4-7.6l4-10.85h3.7l1.4,22.45h-2.85Z" transform="translate(-53.9 -373.63)"/><path class="cls-7" d="M418.53,1199.33v22.45h-2.95v-22.45Z" transform="translate(-53.9 -373.63)"/><path class="cls-7" d="M422.63,1220.08l12.5-18.2h-11.4v-2.45h15v1.75l-12.4,18.2h12.55v2.4h-16.4Z" transform="translate(-53.9 -373.63)"/><path class="cls-7" d="M446.83,1214.73l-2.3,7h-3l7.6-22.45h3.5l7.7,22.45h-3.1l-2.4-7Zm7.4-2.25L452,1206c-.45-1.45-.8-2.8-1.15-4.1h0c-.3,1.3-.65,2.7-1.1,4.1l-2.2,6.5Z" transform="translate(-53.9 -373.63)"/><path class="cls-7" d="M479.38,1221.08a14.69,14.69,0,0,1-5.9,1.05,10.5,10.5,0,0,1-11.12-9.84,10.85,10.85,0,0,1,0-1.51A11.2,11.2,0,0,1,473,1199a11.61,11.61,0,0,1,1.18,0,12.43,12.43,0,0,1,5.35,1l-.75,2.4a10,10,0,0,0-4.5-1,8.35,8.35,0,0,0-8.79,7.89,8.83,8.83,0,0,0,0,1.36,8.1,8.1,0,0,0,7.13,9,9,9,0,0,0,1.47,0,11.92,11.92,0,0,0,4.75-1Z" transform="translate(-53.9 -373.63)"/><path class="cls-7" d="M486.58,1199.33v22.45h-2.95v-22.45Z" transform="translate(-53.9 -373.63)"/><path class="cls-7" d="M501,1222.18a10.3,10.3,0,0,1-10.06-10.54c0-.29,0-.57.06-.86a10.65,10.65,0,0,1,9.44-11.74l1-.06a10,10,0,0,1,10.09,9.91,8.71,8.71,0,0,1-.09,1.44,10.55,10.55,0,0,1-9.17,11.77A10.16,10.16,0,0,1,501,1222.18Zm0-2.4c4.6,0,7.2-4.2,7.2-9.3s-2.35-9.15-7.2-9.15-7.2,4.5-7.2,9.35,2.6,9.1,7.15,9.1Zm5-25.65-4.3,3.9h-2.35l3.1-3.9Z" transform="translate(-53.9 -373.63)"/><path class="cls-7" d="M516,1221.78v-22.45h3.2l6.8,11.35a63,63,0,0,1,4,7.3h0c-.25-3-.35-5.75-.35-9.2v-9.45h2.75v22.45h-3l-7.1-11.4a59.88,59.88,0,0,1-4.2-7.5h0v18.85Z" transform="translate(-53.9 -373.63)"/><path class="cls-7" d="M557.63,1211.28h-8.7v8.1h9.75v2.4H546v-22.45h12.2v2.45h-9.25v7.1h8.7Z" transform="translate(-53.9 -373.63)"/><path class="cls-7" d="M582,1212.18c0-3.1-.4-7-.4-9.7h0c-.8,2.6-1.7,5.45-2.85,8.55l-4,10.9h-2.2l-3.65-10.7c-1.1-3.2-1.95-6.1-2.6-8.75h0c0,2.8-.25,6.55-.45,10l-.6,9.6h-2.75l1.55-22.45h3.7l3.85,10.85c1,2.8,1.65,5.3,2.25,7.6h0a76.62,76.62,0,0,1,2.4-7.6l4-10.85H584l1.4,22.45h-2.9Z" transform="translate(-53.9 -373.63)"/><path class="cls-7" d="M590.43,1199.63a32.22,32.22,0,0,1,5.55-.45,9.34,9.34,0,0,1,6.35,1.85,6.09,6.09,0,0,1,2,4.65,6.35,6.35,0,0,1-1.8,5,9.19,9.19,0,0,1-6.85,2.5,11.54,11.54,0,0,1-2.35,0v9h-2.9Zm2.9,10.75a8.41,8.41,0,0,0,2.4.25c3.5,0,5.65-1.7,5.65-4.75s-2.1-4.4-5.3-4.4a15.79,15.79,0,0,0-2.75,0Z" transform="translate(-53.9 -373.63)"/><path class="cls-7" d="M608.78,1199.68a29.53,29.53,0,0,1,5.55-.5,9.43,9.43,0,0,1,6.55,1.85,5.55,5.55,0,0,1,1.75,4.25,5.91,5.91,0,0,1-4.2,5.7h0a5.81,5.81,0,0,1,3.3,4.55,33.57,33.57,0,0,0,1.7,6.15h-3a24.88,24.88,0,0,1-1.5-5.35c-.65-3.1-1.9-4.25-4.5-4.35h-2.75v9.7h-2.9Zm2.9,10h3c3.1,0,5-1.7,5-4.3s-2.1-4.15-5-4.15a14.32,14.32,0,0,0-2.85.25Z" transform="translate(-53.9 -373.63)"/><path class="cls-7" d="M638.93,1211.28h-8.7v8.1h9.7v2.4H627.28v-22.45h12.15v2.45h-9.2v7.1h8.7Z" transform="translate(-53.9 -373.63)"/><path class="cls-7" d="M643.93,1218.28a10.23,10.23,0,0,0,5,1.4c3,0,4.7-1.5,4.7-3.8s-1.2-3.3-4.25-4.45-6-3.2-6-6.35a6.5,6.5,0,0,1,6.84-6.14l.46,0a10.56,10.56,0,0,1,5,1.1l-.8,2.4a8.13,8.13,0,0,0-4.25-1.1c-3,0-4.25,1.85-4.25,3.4s1.4,3.1,4.5,4.3,5.7,3.3,5.7,6.6-2.55,6.45-7.85,6.45a11.67,11.67,0,0,1-5.75-1.45Z" transform="translate(-53.9 -373.63)"/><path class="cls-7" d="M665,1214.73l-2.3,7h-3l7.6-22.45h3.5l7.7,22.45h-3.1l-2.4-7Zm7.4-2.25-2.25-6.5c-.45-1.45-.8-2.8-1.15-4.1h0c-.3,1.3-.65,2.7-1.1,4.1l-2.2,6.5Z" transform="translate(-53.9 -373.63)"/><path class="cls-7" d="M682.38,1199.68a29.53,29.53,0,0,1,5.55-.5,9.43,9.43,0,0,1,6.55,1.85,5.55,5.55,0,0,1,1.75,4.25A5.9,5.9,0,0,1,692,1211h0a5.74,5.74,0,0,1,3.35,4.55,33.57,33.57,0,0,0,1.7,6.15h-3a24.88,24.88,0,0,1-1.5-5.35c-.65-3.1-1.9-4.25-4.55-4.35h-2.7v9.7h-2.9Zm2.9,10h3c3.1,0,5-1.7,5-4.3s-2.1-4.15-5-4.15a14.32,14.32,0,0,0-2.85.25Z" transform="translate(-53.9 -373.63)"/><path class="cls-7" d="M703.83,1199.33v22.45H701v-22.45Z" transform="translate(-53.9 -373.63)"/><path class="cls-7" d="M713.13,1214.73l-2.35,7h-3l7.65-22.45h3.5l7.65,22.45h-3.1l-2.4-7Zm7.35-2.25-2.25-6.5c-.45-1.45-.8-2.8-1.1-4.1h0c-.3,1.3-.7,2.7-1.1,4.1l-2.2,6.5Z" transform="translate(-53.9 -373.63)"/><path class="cls-7" d="M730.43,1199.33h3v20H743v2.4H730.43Z" transform="translate(-53.9 -373.63)"/><path class="cls-7" d="M758,1221.78v-9.6l-7-12.85h3.35l3.15,6.2c.85,1.7,1.55,3,2.25,4.65h0c.6-1.5,1.4-3,2.25-4.65l3.25-6.2h3.25l-7.5,12.85v9.55Z" transform="translate(-53.9 -373.63)"/><path class="cls-7" d="M779.28,1199.68a29.53,29.53,0,0,1,5.55-.5,9.43,9.43,0,0,1,6.55,1.85,5.55,5.55,0,0,1,1.75,4.25,5.91,5.91,0,0,1-4.2,5.7h0a5.81,5.81,0,0,1,3.3,4.55,33.57,33.57,0,0,0,1.7,6.15H791a24.88,24.88,0,0,1-1.5-5.35c-.65-3.1-1.9-4.25-4.5-4.35h-2.75v9.7h-2.9Zm2.9,10h3c3.1,0,5-1.7,5-4.3s-2.1-4.15-5-4.15a14.32,14.32,0,0,0-2.85.25Z" transform="translate(-53.9 -373.63)"/><path class="cls-7" d="M809.43,1211.28H801v8.1h9.7v2.4H798v-22.45h12.15v2.45H801v7.1h8.7Z" transform="translate(-53.9 -373.63)"/><path class="cls-7" d="M814.43,1218.28a10.23,10.23,0,0,0,5,1.4c3,0,4.7-1.5,4.7-3.8s-1.2-3.3-4.25-4.45-6-3.2-6-6.35a6.5,6.5,0,0,1,6.84-6.14l.46,0a10.08,10.08,0,0,1,5,1.1l-.8,2.4a8,8,0,0,0-4.2-1.1c-3.1,0-4.25,1.85-4.25,3.4s1.35,3.1,4.45,4.3,5.7,3.3,5.7,6.6-2.5,6.45-7.8,6.45a11.56,11.56,0,0,1-5.75-1.45Z" transform="translate(-53.9 -373.63)"/><path class="cls-7" d="M831.88,1199.63a31.25,31.25,0,0,1,5.55-.45,9.29,9.29,0,0,1,6.3,1.85,5.93,5.93,0,0,1,2,4.65,6.5,6.5,0,0,1-1.75,5,9.36,9.36,0,0,1-6.9,2.5,11.05,11.05,0,0,1-2.3,0v9h-2.9Zm2.9,10.75a8.07,8.07,0,0,0,2.4.25c3.5,0,5.6-1.7,5.6-4.75s-2.1-4.4-5.3-4.4a15.22,15.22,0,0,0-2.7,0Z" transform="translate(-53.9 -373.63)"/><path class="cls-7" d="M859,1222.18a10.24,10.24,0,0,1-10.06-10.43,7.77,7.77,0,0,1,.06-1,10.65,10.65,0,0,1,9.44-11.74l1-.06a10,10,0,0,1,10.09,9.91,8.71,8.71,0,0,1-.09,1.44,10.55,10.55,0,0,1-9.17,11.77A10.16,10.16,0,0,1,859,1222.18Zm0-2.4c4.6,0,7.2-4.2,7.2-9.3s-2.35-9.15-7.15-9.15-7.25,4.5-7.25,9.35,2.6,9.1,7.15,9.1Z" transform="translate(-53.9 -373.63)"/><path class="cls-7" d="M873.78,1221.78v-22.45H877l7.15,11.35a56.16,56.16,0,0,1,4,7.3h0c0-3-.3-5.75-.3-9.2v-9.45h2.7v22.45h-2.9l-7.15-11.4a66.78,66.78,0,0,1-4.15-7.5h0v18.85Z" transform="translate(-53.9 -373.63)"/><path class="cls-7" d="M896,1218.28a10.23,10.23,0,0,0,5,1.4c2.95,0,4.7-1.5,4.7-3.8s-1.2-3.3-4.25-4.45-5.95-3.2-5.95-6.35a6.5,6.5,0,0,1,6.84-6.14l.46,0a10.08,10.08,0,0,1,5,1.1l-.8,2.4a8,8,0,0,0-4.2-1.1c-3.1,0-4.25,1.85-4.25,3.4s1.35,3.1,4.45,4.3,5.7,3.3,5.7,6.6-2.45,6.5-7.7,6.5a11.56,11.56,0,0,1-5.75-1.45Z" transform="translate(-53.9 -373.63)"/><path class="cls-7" d="M917,1214.73l-2.35,7h-3l7.65-22.45h3.5l7.7,22.45h-3.1l-2.4-7Zm7.4-2.25-2.25-6.5c-.5-1.45-.8-2.8-1.15-4.1h0c-.3,1.3-.65,2.7-1.1,4.1l-2.2,6.5Z" transform="translate(-53.9 -373.63)"/><path class="cls-7" d="M934.38,1199.68a25.46,25.46,0,0,1,5.3-.5,9.18,9.18,0,0,1,6.1,1.6,4.71,4.71,0,0,1,1.9,4,5,5,0,0,1-3.8,5h0a5.75,5.75,0,0,1,4.65,5.6,5.85,5.85,0,0,1-1.95,4.5,10.89,10.89,0,0,1-7.7,2.1,32.25,32.25,0,0,1-4.5-.25Zm2.9,9.2h2.6c3,0,5-1.65,5-3.8s-2-3.7-5-3.7a12.08,12.08,0,0,0-2.55,0Zm0,10.7a16,16,0,0,0,2.4,0c3,0,5.8-1.1,5.8-4.35s-2.65-4.35-5.8-4.35h-2.4Z" transform="translate(-53.9 -373.63)"/><path class="cls-7" d="M956,1199.33v22.45h-3v-22.45Z" transform="translate(-53.9 -373.63)"/><path class="cls-7" d="M961.58,1199.33h2.9v20h9.65v2.4H961.58Z" transform="translate(-53.9 -373.63)"/><path class="cls-7" d="M981,1199.33v22.45h-2.9v-22.45Z" transform="translate(-53.9 -373.63)"/><path class="cls-7" d="M986.48,1199.63a45.94,45.94,0,0,1,6.2-.45,12.8,12.8,0,0,1,9.1,2.8,10,10,0,0,1,3.2,8,12,12,0,0,1-3.25,8.75,13.93,13.93,0,0,1-10,3.2,40.81,40.81,0,0,1-5.3-.25Zm2.95,20a15.61,15.61,0,0,0,2.9,0,8.71,8.71,0,0,0,9.6-7.7,9.53,9.53,0,0,0,0-1.85,8,8,0,0,0-7.35-8.69,7.88,7.88,0,0,0-1.75,0,13.89,13.89,0,0,0-3.4.3Z" transform="translate(-53.9 -373.63)"/><path class="cls-7" d="M1012.48,1214.73l-2.35,7h-3l7.65-22.45h3.5l7.7,22.45h-3.1l-2.4-7Zm7.4-2.25-2.25-6.5c-.45-1.45-.8-2.8-1.15-4.1h0c-.3,1.3-.65,2.7-1.1,4.1l-2.2,6.5Z" transform="translate(-53.9 -373.63)"/><path class="cls-7" d="M1029.83,1199.63a45.94,45.94,0,0,1,6.2-.45,12.8,12.8,0,0,1,9.1,2.8,10,10,0,0,1,3.2,8,12,12,0,0,1-3.25,8.75,13.93,13.93,0,0,1-10,3.2,40.81,40.81,0,0,1-5.3-.25Zm3,20a15.61,15.61,0,0,0,2.9,0,8.71,8.71,0,0,0,9.6-7.7,9.53,9.53,0,0,0,0-1.85,8,8,0,0,0-7.35-8.69,7.88,7.88,0,0,0-1.75,0,13.89,13.89,0,0,0-3.4.3Z" transform="translate(-53.9 -373.63)"/><path class="cls-7" d="M1060,1218.28a10,10,0,0,0,5,1.4c3,0,4.7-1.5,4.7-3.8s-1.2-3.3-4.2-4.45-6-3.2-6-6.35a6.44,6.44,0,0,1,6.74-6.14,4.38,4.38,0,0,1,.51,0,10.08,10.08,0,0,1,5,1.1l-.8,2.4a8.13,8.13,0,0,0-4.25-1.1c-3,0-4.2,1.85-4.2,3.4s1.35,3.1,4.45,4.3,5.7,3.3,5.7,6.6-2.55,6.45-7.85,6.45a11.67,11.67,0,0,1-5.75-1.45Z" transform="translate(-53.9 -373.63)"/><path class="cls-7" d="M1086,1222.18a10.3,10.3,0,0,1-10.06-10.54c0-.29,0-.57.06-.86a10.65,10.65,0,0,1,9.44-11.74l1-.06a10,10,0,0,1,10.09,9.91,8.71,8.71,0,0,1-.09,1.44,10.55,10.55,0,0,1-9.17,11.77A10.16,10.16,0,0,1,1086,1222.18Zm0-2.4c4.6,0,7.2-4.2,7.2-9.3s-2.35-9.15-7.2-9.15-7.2,4.5-7.2,9.35,2.6,9.1,7.15,9.1Z" transform="translate(-53.9 -373.63)"/><path class="cls-7" d="M1116.63,1221.08a15,15,0,0,1-6,1.05,10.45,10.45,0,0,1-11.07-9.79,10.16,10.16,0,0,1,0-1.56,11.15,11.15,0,0,1,10.46-11.8q.65,0,1.29,0a12.07,12.07,0,0,1,5.3,1l-.7,2.2a10,10,0,0,0-4.5-1,8.38,8.38,0,0,0-8.8,9.25,8.1,8.1,0,0,0,7.13,9,9,9,0,0,0,1.47,0,12.23,12.23,0,0,0,5-1Z" transform="translate(-53.9 -373.63)"/><path class="cls-7" d="M1123.78,1199.33v22.45H1121v-22.45Z" transform="translate(-53.9 -373.63)"/><path class="cls-7" d="M1133.08,1214.73l-2.3,7h-3l7.6-22.45h3.5l7.7,22.45h-3.1l-2.4-7Zm7.4-2.25-2.25-6.5c-.45-1.45-.8-2.8-1.15-4.1h0c-.3,1.3-.65,2.7-1.1,4.1l-2.2,6.5Z" transform="translate(-53.9 -373.63)"/><path class="cls-7" d="M1150.43,1199.33h3v20h9.6v2.4h-12.55Z" transform="translate(-53.9 -373.63)"/><path class="cls-7" d="M147.23,1150.08c-2,.8-3.75,1.4-5,1.9l-4.1,1.35q-1.95.6-5.7,1.5a113.72,113.72,0,0,1-26.05,3.05,66,66,0,0,1-26.1-5,43.35,43.35,0,0,1-19.15-16,47.22,47.22,0,0,1-7.2-26.65,55.41,55.41,0,0,1,3.75-20,35,35,0,0,1,11.3-15.7,52.69,52.69,0,0,1,12.55-7.35,56.69,56.69,0,0,1,12.6-3.45,95.16,95.16,0,0,1,13.6-.85,93.88,93.88,0,0,1,20,1.8c5.3,1.25,11.15,2.85,17.45,5v22a74.92,74.92,0,0,0-13.3-6.15,53.24,53.24,0,0,0-17.5-2.45,36,36,0,0,0-19.4,4.55,25.33,25.33,0,0,0-10,11,30.06,30.06,0,0,0-2.85,12.3,26.19,26.19,0,0,0,3.3,13,24.22,24.22,0,0,0,10,9.5,33.16,33.16,0,0,0,16,3.6,52.3,52.3,0,0,0,11.35-1.4v-10.9H110.23v-18.7h37Z" transform="translate(-53.9 -373.63)"/><path class="cls-7" d="M254.18,1156.63h-30l-7.3-16.45a70.08,70.08,0,0,0-7.25-13,15.51,15.51,0,0,0-6.25-5.35,21.78,21.78,0,0,0-7.85-1.15h-3.15v36.15H164.43v-92.9H212a34.15,34.15,0,0,1,18.85,4.7A28.05,28.05,0,0,1,241.48,1080a29.26,29.26,0,0,1,3.2,12.7,24.24,24.24,0,0,1-2.7,11.9,22,22,0,0,1-5.7,7.05,53.94,53.94,0,0,1-6.75,4.2,27.48,27.48,0,0,1,7.4,6.35,80.81,80.81,0,0,1,7.9,14.5Zm-38.2-63.4a9.55,9.55,0,0,0-4.2-9,27.63,27.63,0,0,0-13.7-2.55h-5.7v22.35h6.05a30,30,0,0,0,14-2.25A9.2,9.2,0,0,0,216,1093.23Z" transform="translate(-53.9 -373.63)"/><path class="cls-7" d="M356.78,1115.13a43.11,43.11,0,0,1-4.45,20.3,35.61,35.61,0,0,1-11.75,13.25,51.5,51.5,0,0,1-15.8,7,70.27,70.27,0,0,1-16.9,2.15,66.29,66.29,0,0,1-22.9-4.05,40.29,40.29,0,0,1-18.65-13.65,39.53,39.53,0,0,1-7.5-25v-51.25h27.9v44a37.9,37.9,0,0,0,2.65,15,18.13,18.13,0,0,0,7.35,8.75,21.66,21.66,0,0,0,11.15,2.8,21.2,21.2,0,0,0,10.9-2.75,18.12,18.12,0,0,0,7.2-8.55,37.55,37.55,0,0,0,2.65-15V1064h27.95Z" transform="translate(-53.9 -373.63)"/><path class="cls-7" d="M454.23,1093.08a29.17,29.17,0,0,1-1.8,10,27.22,27.22,0,0,1-5.7,9.15,28.43,28.43,0,0,1-10.7,6.9,43.17,43.17,0,0,1-15.8,2.65H401.88v34.75H373.93v-92.6h46.3a43.17,43.17,0,0,1,15.8,2.65,29,29,0,0,1,10.7,7,26.74,26.74,0,0,1,5.7,9.3A29.82,29.82,0,0,1,454.23,1093.08Zm-28.5,0a9.7,9.7,0,0,0-4-9,28.09,28.09,0,0,0-14-2.45h-5.9v22.35h6.05a48.61,48.61,0,0,0,10.7-.9,8.59,8.59,0,0,0,5.4-3.2,11.17,11.17,0,0,0,2-6.6Z" transform="translate(-53.9 -373.63)"/><path class="cls-7" d="M564.13,1110.23a48.9,48.9,0,0,1-6,23.9,43.49,43.49,0,0,1-17.85,17.3,59.53,59.53,0,0,1-28.85,6.45,58.79,58.79,0,0,1-29.1-6.7,43.66,43.66,0,0,1-17.65-17.6,50,50,0,0,1,0-46.75,42.94,42.94,0,0,1,17.7-17.5,58.88,58.88,0,0,1,29.1-6.65,64.32,64.32,0,0,1,23,3.8A46.2,46.2,0,0,1,551,1076.83a43.77,43.77,0,0,1,10,15A50.86,50.86,0,0,1,564.13,1110.23Zm-28.5,0a29,29,0,0,0-1.5-9.55,21.63,21.63,0,0,0-4.65-7.5,22.34,22.34,0,0,0-7.6-5,28.79,28.79,0,0,0-10.4-1.75,22.3,22.3,0,0,0-24,20.42,21.78,21.78,0,0,0,0,3.33,22.46,22.46,0,0,0,21,23.82,23.89,23.89,0,0,0,3.05,0,26.39,26.39,0,0,0,13.15-3,20,20,0,0,0,8.2-8.4,26,26,0,0,0,2.8-12.3Z" transform="translate(-53.9 -373.63)"/><path class="cls-7" d="M695.68,1149.68a68.39,68.39,0,0,1-11.8,5,72.89,72.89,0,0,1-12.15,2.55,104.92,104.92,0,0,1-12.65.8,66.62,66.62,0,0,1-21.75-3.35,47.23,47.23,0,0,1-16.65-10,41.72,41.72,0,0,1-10.55-15.25,50.79,50.79,0,0,1-3.5-19.15,49.24,49.24,0,0,1,4.15-21,40.4,40.4,0,0,1,11.6-15,50,50,0,0,1,17-8.8,69.77,69.77,0,0,1,20-2.8,109.34,109.34,0,0,1,35.8,7v24.6a98.71,98.71,0,0,0-13.65-7.1,39.91,39.91,0,0,0-15.8-2.85,35.92,35.92,0,0,0-15,3.2,28.06,28.06,0,0,0-11.3,9.2,24.4,24.4,0,0,0-.5,26.75,25.72,25.72,0,0,0,10.4,9.3,32,32,0,0,0,15,3.45,50.68,50.68,0,0,0,12.8-1.6,62.3,62.3,0,0,0,10-3.65c2.75-1.35,5.6-3,8.5-4.75Z" transform="translate(-53.9 -373.63)"/><path class="cls-7" d="M909.33,1156.63h-30l-7.3-16.45a70.1,70.1,0,0,0-7.2-13.2,15.86,15.86,0,0,0-6.25-5.35,22.08,22.08,0,0,0-7.9-1.15h-3.15v36.15H819.58v-92.7h47.55a34.42,34.42,0,0,1,18.9,4.7,28,28,0,0,1,10.6,11.35,29.28,29.28,0,0,1,3.25,12.7,24.24,24.24,0,0,1-2.7,11.9,22.54,22.54,0,0,1-5.75,7.05,53.94,53.94,0,0,1-6.75,4.2,26.74,26.74,0,0,1,7.4,6.2,74.9,74.9,0,0,1,7.9,14.5Zm-38-63.4a9.52,9.52,0,0,0-4.25-9,27.52,27.52,0,0,0-13.7-2.55h-5.9v22.35h6a30,30,0,0,0,14-2.25,9.1,9.1,0,0,0,3.8-8.6Z" transform="translate(-53.9 -373.63)"/><path class="cls-7" d="M982.08,1129.68a25.6,25.6,0,0,1-4.45,15,28.11,28.11,0,0,1-12.45,10,46.37,46.37,0,0,1-18.25,3.4,47.32,47.32,0,0,1-7-.4,74.53,74.53,0,0,1-11.1-2,83.48,83.48,0,0,1-14.4-5v-22.75a97,97,0,0,0,13.8,7.25,37.08,37.08,0,0,0,14.55,2.85,12.68,12.68,0,0,0,9.25-2.35,6.93,6.93,0,0,0,2.1-4.45,7.51,7.51,0,0,0-3.6-6.3,49.94,49.94,0,0,0-10.5-5.35,81.68,81.68,0,0,1-13.4-7,31.84,31.84,0,0,1-9.4-9.45,24.63,24.63,0,0,1-3.65-13.45,25.66,25.66,0,0,1,3.7-13.55,25.31,25.31,0,0,1,11.25-9.65,42.88,42.88,0,0,1,18.45-3.6,64.12,64.12,0,0,1,14.35,1.5,61.86,61.86,0,0,1,10.9,3.35,42.72,42.72,0,0,1,5.85,3v21.55a77.22,77.22,0,0,0-12.65-7.3,35,35,0,0,0-15-3.2,11.39,11.39,0,0,0-7.55,2,6.23,6.23,0,0,0-2.35,5,6,6,0,0,0,2.35,4.75,41.8,41.8,0,0,0,8.35,5,166.75,166.75,0,0,1,17.1,9,34.39,34.39,0,0,1,10,9.3A22.52,22.52,0,0,1,982.08,1129.68Z" transform="translate(-53.9 -373.63)"/><path class="cls-7" d="M1066,1156.63H996v-92.7h68.75v18.6h-40.8v17h39v18.65h-39v20H1066Z" transform="translate(-53.9 -373.63)"/><path class="cls-7" d="M1163.13,1149.68a67.57,67.57,0,0,1-11.75,5,75.19,75.19,0,0,1-12.15,2.55,105.62,105.62,0,0,1-12.7.8,66.63,66.63,0,0,1-21.7-3.35,47.23,47.23,0,0,1-16.65-10,41.12,41.12,0,0,1-10.55-15.25,50.6,50.6,0,0,1-3.55-19.15,50,50,0,0,1,4.15-21,41.26,41.26,0,0,1,11.6-15,50.38,50.38,0,0,1,17-8.8,69.77,69.77,0,0,1,20-2.8,109.08,109.08,0,0,1,35.8,7v24.6a98.14,98.14,0,0,0-13.6-7.1,40.54,40.54,0,0,0-15.85-2.85,35.77,35.77,0,0,0-15,3.2,27.69,27.69,0,0,0-11.3,9.2,24.25,24.25,0,0,0-.55,26.75,26.07,26.07,0,0,0,10.4,9.3,32.29,32.29,0,0,0,15,3.45,49.84,49.84,0,0,0,12.75-1.6,62.3,62.3,0,0,0,10-3.65c2.75-1.35,5.55-3,8.45-4.75Z" transform="translate(-53.9 -373.63)"/><path class="cls-3" d="M803.58,1092.18a43,43,0,0,0-10-15,46,46,0,0,0-16.6-10.35,64.05,64.05,0,0,0-22.9-3.8,59.07,59.07,0,0,0-29.15,6.65,42.59,42.59,0,0,0-17.65,17.5,50,50,0,0,0,0,46.75,43.48,43.48,0,0,0,17.7,17.6,53.76,53.76,0,0,0,17.65,5.85v-36a29,29,0,0,1,21.75-28.7s5.6,27.15-18.15,36.55v28.6a77,77,0,0,0,7.85.4,59.53,59.53,0,0,0,28.85-6.45,43.12,43.12,0,0,0,17.8-17.3,48.89,48.89,0,0,0,6-23.9A50,50,0,0,0,803.58,1092.18Z" transform="translate(-53.9 -373.63)"/></svg>