<svg xmlns="http://www.w3.org/2000/svg" viewBox="0 0 1109.23 159.54"><defs><style>.cls-1{fill:#636569;}.cls-2{fill:#a1d683;}</style></defs><g id="Capa_2" data-name="Capa 2"><g id="Capa_1-2" data-name="Capa 1"><path class="cls-1" d="M17.1,158.43a15,15,0,0,1-6,1,10.45,10.45,0,0,1-11-9.79,10.15,10.15,0,0,1,0-1.56,11.14,11.14,0,0,1,10.45-11.78h1.23a12,12,0,0,1,5.35,1l-.75,2.4a10.06,10.06,0,0,0-4.5-1,8.35,8.35,0,0,0-8.79,7.89h0a7.72,7.72,0,0,0,0,1.36,8.09,8.09,0,0,0,7.09,9h0a9,9,0,0,0,1.47,0,11.8,11.8,0,0,0,4.75-1Z"/><path class="cls-1" d="M29.33,159.53A10.29,10.29,0,0,1,19.27,149h0a4.15,4.15,0,0,1,.06-.86,10.65,10.65,0,0,1,9.39-11.78h.05l1-.06a10,10,0,0,1,10.09,9.91h0a8.71,8.71,0,0,1-.09,1.44,10.56,10.56,0,0,1-9.17,11.77h0a9.48,9.48,0,0,1-1.18.08Zm0-2.4c4.6,0,7.2-4.2,7.2-9.3s-2.35-9.15-7.2-9.15-7.2,4.5-7.2,9.35,2.6,9.1,7.15,9.1Z"/><path class="cls-1" d="M44.18,159.13V136.68h3.2L54.53,148a64.52,64.52,0,0,1,4,7.3h0c-.25-3-.35-5.75-.35-9.2v-9.45h2.75v22.45H58.1L51,147.73a58.65,58.65,0,0,1-4.2-7.5h0v18.85Z"/><path class="cls-1" d="M66.33,155.63a10,10,0,0,0,5,1.4c3,0,4.7-1.5,4.7-3.8s-1.2-3.3-4.2-4.45-6-3.2-6-6.35a6.44,6.44,0,0,1,6.72-6.14h.53a10.11,10.11,0,0,1,5,1.1l-.8,2.4a8.13,8.13,0,0,0-4.25-1.1c-3,0-4.2,1.85-4.2,3.4s1.35,3.1,4.45,4.3,5.7,3.3,5.7,6.6-2.45,6.5-7.75,6.5a11.46,11.46,0,0,1-5.7-1.45Z"/><path class="cls-1" d="M86.63,136.68V150c0,5,2.25,7.1,5.25,7.1s5.45-2.2,5.45-7.1V136.68h3v13.15c0,6.9-3.65,9.7-8.5,9.7s-8-2.6-8-9.6V136.68Z"/><path class="cls-1" d="M105.88,136.68h3v20h9.6v2.4H105.88Z"/><path class="cls-1" d="M123.58,139.13h-6.85v-2.45h16.65v2.45h-6.85v20h-3Z"/><path class="cls-1" d="M144.38,159.53a10.24,10.24,0,0,1-10.06-10.42h0a5.6,5.6,0,0,1,.06-1,10.64,10.64,0,0,1,9.43-11.74h0l1-.06a10,10,0,0,1,10.09,9.91h0a8.71,8.71,0,0,1-.09,1.44,10.56,10.56,0,0,1-9.17,11.77h0A11.07,11.07,0,0,1,144.38,159.53Zm0-2.4c4.6,0,7.2-4.2,7.2-9.3s-2.35-9.15-7.15-9.15-7.25,4.5-7.25,9.35,2.6,9.1,7.15,9.1Z"/><path class="cls-1" d="M159.18,137a29.46,29.46,0,0,1,5.55-.5,9.45,9.45,0,0,1,6.55,1.85,5.59,5.59,0,0,1,1.75,4.25,5.91,5.91,0,0,1-4.25,5.7h0a5.72,5.72,0,0,1,3.3,4.55,43.77,43.77,0,0,0,1.7,6.15h-3a28.41,28.41,0,0,1-1.45-5.35c-.65-3.1-1.9-4.25-4.55-4.35H162.1V159h-2.9Zm2.9,10h3c3.1,0,5-1.7,5-4.3s-2.1-4.15-5-4.15a14.25,14.25,0,0,0-2.85.25Z"/><path class="cls-1" d="M189.33,148.63h-8.7v8.1h9.7v2.4H177.68V136.68h12.15v2.45h-9.2v7.1h8.7Z"/><path class="cls-1" d="M194.33,155.63a10.2,10.2,0,0,0,5,1.4c3,0,4.7-1.5,4.7-3.8s-1.2-3.3-4.25-4.45-6-3.2-6-6.35a6.5,6.5,0,0,1,6.84-6.14h.46a10.11,10.11,0,0,1,5,1.1l-.8,2.4a8,8,0,0,0-4.2-1.1c-3.1,0-4.25,1.85-4.25,3.4s1.35,3.1,4.45,4.3,5.75,3.1,5.75,6.6-2.5,6.45-7.8,6.45a11.64,11.64,0,0,1-5.75-1.45Z"/><path class="cls-1" d="M231,148.63h-8.7v8.1h10v2.4h-13V136.68h12.2v2.45h-9.25v7.1H231Z"/><path class="cls-1" d="M236.43,159.13V136.68h3.2L246.78,148a57.38,57.38,0,0,1,4,7.3h0c-.25-3-.3-5.75-.3-9.2v-9.45h2.7v22.45h-2.9l-7.15-11.4a65.22,65.22,0,0,1-4.15-7.5h0v18.85Z"/><path class="cls-1" d="M275.43,159.53A10.29,10.29,0,0,1,265.37,149h0a4.15,4.15,0,0,1,.06-.86A10.69,10.69,0,0,1,275,136.38h.92A10,10,0,0,1,286,146.29h0a8.71,8.71,0,0,1-.09,1.44,10.56,10.56,0,0,1-9.17,11.77h0C276.28,159.53,275.85,159.54,275.43,159.53Zm0-2.4c4.6,0,7.2-4.2,7.2-9.3s-2.35-9.15-7.15-9.15-7.25,4.5-7.25,9.35,2.6,9.1,7.15,9.1Z"/><path class="cls-1" d="M290.23,137a30.34,30.34,0,0,1,5.55-.45,9.32,9.32,0,0,1,6.32,1.82,6,6,0,0,1,2,4.65,6.53,6.53,0,0,1-1.75,5,9.37,9.37,0,0,1-6.9,2.5,11.05,11.05,0,0,1-2.3,0v9h-2.9Zm2.9,10.75a8.07,8.07,0,0,0,2.4.25c3.5,0,5.6-1.7,5.6-4.75s-2.1-4.4-5.3-4.4a15.22,15.22,0,0,0-2.7,0Z"/><path class="cls-1" d="M312.83,139.13H306v-2.45h16.65v2.45h-6.85v20h-2.95Z"/><path class="cls-1" d="M328.63,136.68v22.45h-2.95V136.68Z"/><path class="cls-1" d="M353.23,149.53c0-3.1-.35-7-.35-9.7h0c-.8,2.6-1.7,5.45-2.8,8.55l-4,10.9h-2.2l-3.65-10.7c-1.05-3.2-2-6.1-2.55-8.75h0a90.18,90.18,0,0,1-.4,10l-.6,9.6h-2.8l1.6-22.45h3.7l3.8,10.85c.95,2.8,1.7,5.3,2.3,7.6h0a72.79,72.79,0,0,1,2.4-7.6l4-10.85h3.7l1.4,22.45h-2.85Z"/><path class="cls-1" d="M364.63,136.68v22.45h-2.95V136.68Z"/><path class="cls-1" d="M368.73,157.43l12.5-18.2h-11.4v-2.45h15v1.75l-12.4,18.2H385v2.4h-16.4Z"/><path class="cls-1" d="M392.93,152.08l-2.3,7h-3l7.6-22.45h3.5l7.7,22.45h-3.1l-2.4-7Zm7.4-2.25-2.23-6.48c-.45-1.45-.8-2.8-1.15-4.1h0c-.3,1.3-.65,2.7-1.1,4.1l-2.2,6.5Z"/><path class="cls-1" d="M425.48,158.43a14.75,14.75,0,0,1-5.9,1,10.5,10.5,0,0,1-11.12-9.84,9.52,9.52,0,0,1,0-1.51,11.2,11.2,0,0,1,10.59-11.78h.05a11.61,11.61,0,0,1,1.18,0,12.31,12.31,0,0,1,5.35,1l-.75,2.4a10.06,10.06,0,0,0-4.5-1,8.35,8.35,0,0,0-8.79,7.89h0a7.72,7.72,0,0,0,0,1.36,8.09,8.09,0,0,0,7.09,9h0a9,9,0,0,0,1.47,0,11.8,11.8,0,0,0,4.75-1Z"/><path class="cls-1" d="M432.68,136.68v22.45h-2.95V136.68Z"/><path class="cls-1" d="M447.1,159.53A10.29,10.29,0,0,1,437,149h0a4.15,4.15,0,0,1,.06-.86,10.64,10.64,0,0,1,9.43-11.74h0l1-.06a10,10,0,0,1,10.09,9.91h0a8.71,8.71,0,0,1-.09,1.44,10.56,10.56,0,0,1-9.17,11.77h0A11,11,0,0,1,447.1,159.53Zm0-2.4c4.6,0,7.2-4.2,7.2-9.3s-2.35-9.15-7.2-9.15-7.2,4.5-7.2,9.35,2.6,9.1,7.15,9.1Zm5-25.65-4.3,3.9h-2.35l3.1-3.9Z"/><path class="cls-1" d="M462.1,159.13V136.68h3.2L472.1,148a64.52,64.52,0,0,1,4,7.3h0c-.25-3-.35-5.75-.35-9.2v-9.45h2.75v22.45h-3l-7.1-11.4a58.65,58.65,0,0,1-4.2-7.5h0v18.85Z"/><path class="cls-1" d="M503.73,148.63H495v8.1h9.75v2.4H492.1V136.68h12.2v2.45h-9.25v7.1h8.7Z"/><path class="cls-1" d="M528.1,149.53c0-3.1-.4-7-.4-9.7h0c-.8,2.6-1.7,5.45-2.85,8.55l-4,10.9h-2.2L515,148.58c-1.1-3.2-2-6.1-2.6-8.75h0c0,2.8-.25,6.55-.45,10l-.6,9.6H508.6L510.15,137h3.7l3.85,10.85c1,2.8,1.65,5.3,2.25,7.6h0a72.79,72.79,0,0,1,2.4-7.6l4-10.85h3.75l1.4,22.45h-2.9Z"/><path class="cls-1" d="M536.53,137a32.22,32.22,0,0,1,5.55-.45,9.34,9.34,0,0,1,6.35,1.85,6.12,6.12,0,0,1,2,4.65,6.35,6.35,0,0,1-1.8,5,9.2,9.2,0,0,1-6.85,2.5,11.54,11.54,0,0,1-2.35,0v9h-2.9Zm2.9,10.75a8.41,8.41,0,0,0,2.4.25c3.5,0,5.65-1.7,5.65-4.75s-2.1-4.4-5.3-4.4a15.79,15.79,0,0,0-2.75,0Z"/><path class="cls-1" d="M554.88,137a29.46,29.46,0,0,1,5.55-.5,9.45,9.45,0,0,1,6.55,1.85,5.59,5.59,0,0,1,1.75,4.25,5.93,5.93,0,0,1-4.2,5.7h0a5.85,5.85,0,0,1,3.3,4.55,32.79,32.79,0,0,0,1.7,6.15h-3a24.32,24.32,0,0,1-1.5-5.35c-.65-3.1-1.9-4.25-4.5-4.35h-2.75V159h-2.9Zm2.9,10h3c3.1,0,5-1.7,5-4.3s-2.1-4.15-5-4.15a14.25,14.25,0,0,0-2.85.25Z"/><path class="cls-1" d="M585,148.63h-8.7v8.1H586v2.4H573.38V136.68h12.15v2.45h-9.2v7.1H585Z"/><path class="cls-1" d="M590,155.63a10.2,10.2,0,0,0,5,1.4c3,0,4.7-1.5,4.7-3.8s-1.2-3.3-4.25-4.45-6-3.2-6-6.35a6.5,6.5,0,0,1,6.84-6.14h.46a10.59,10.59,0,0,1,5,1.1l-.8,2.4a8.13,8.13,0,0,0-4.25-1.1c-3,0-4.25,1.85-4.25,3.4s1.4,3.1,4.5,4.3,5.7,3.3,5.7,6.6-2.55,6.45-7.85,6.45a11.67,11.67,0,0,1-5.75-1.45Z"/><path class="cls-1" d="M611.1,152.08l-2.3,7h-3l7.6-22.45h3.5l7.7,22.45h-3.1l-2.4-7Zm7.4-2.25-2.25-6.5c-.45-1.45-.8-2.8-1.15-4.1h0c-.3,1.3-.65,2.7-1.1,4.1l-2.2,6.5Z"/><path class="cls-1" d="M628.48,137a29.46,29.46,0,0,1,5.55-.5,9.45,9.45,0,0,1,6.55,1.85,5.59,5.59,0,0,1,1.75,4.25,5.91,5.91,0,0,1-4.23,5.72h0a5.77,5.77,0,0,1,3.35,4.55,32.79,32.79,0,0,0,1.7,6.15h-3a24.32,24.32,0,0,1-1.5-5.35c-.65-3.1-1.9-4.25-4.55-4.35h-2.7v9.7h-2.9Zm2.9,10h3c3.1,0,5-1.7,5-4.3s-2.1-4.15-5-4.15a14.25,14.25,0,0,0-2.85.25Z"/><path class="cls-1" d="M649.93,136.68v22.45H647.1V136.68Z"/><path class="cls-1" d="M659.23,152.08l-2.35,7h-3l7.65-22.45H665l7.65,22.45h-3.1l-2.4-7Zm7.35-2.25-2.25-6.5c-.45-1.45-.8-2.8-1.1-4.1h0c-.3,1.3-.7,2.7-1.1,4.1l-2.2,6.5Z"/><path class="cls-1" d="M676.53,136.68h3v20h9.57v2.4H676.53Z"/><path class="cls-1" d="M704.1,159.13v-9.6l-7-12.85h3.35l3.15,6.2c.85,1.7,1.55,3,2.25,4.65h0c.6-1.5,1.4-3,2.25-4.65l3.25-6.2h3.25l-7.5,12.85v9.55Z"/><path class="cls-1" d="M725.38,137a29.46,29.46,0,0,1,5.55-.5,9.45,9.45,0,0,1,6.55,1.85,5.59,5.59,0,0,1,1.75,4.25,5.93,5.93,0,0,1-4.2,5.7h0a5.85,5.85,0,0,1,3.3,4.55A32.79,32.79,0,0,0,740,159H737.1a24.32,24.32,0,0,1-1.5-5.35c-.65-3.1-1.9-4.25-4.5-4.35h-2.75V159h-2.9Zm2.9,10h3c3.1,0,5-1.7,5-4.3s-2.1-4.15-5-4.15a14.25,14.25,0,0,0-2.85.25Z"/><path class="cls-1" d="M755.53,148.63H747.1v8.1h9.7v2.4H744.1V136.68h12.15v2.45H747.1v7.1h8.7Z"/><path class="cls-1" d="M760.53,155.63a10.2,10.2,0,0,0,5,1.4c3,0,4.7-1.5,4.7-3.8s-1.2-3.3-4.25-4.45-6-3.2-6-6.35a6.5,6.5,0,0,1,6.84-6.14h.46a10.11,10.11,0,0,1,5,1.1l-.8,2.4a8,8,0,0,0-4.2-1.1c-3.1,0-4.25,1.85-4.25,3.4s1.35,3.1,4.45,4.3,5.7,3.3,5.7,6.6-2.5,6.45-7.8,6.45a11.64,11.64,0,0,1-5.75-1.45Z"/><path class="cls-1" d="M778,137a30.34,30.34,0,0,1,5.55-.45,9.33,9.33,0,0,1,6.3,1.85,6,6,0,0,1,2,4.65,6.53,6.53,0,0,1-1.75,5,9.37,9.37,0,0,1-6.9,2.5,11.05,11.05,0,0,1-2.3,0v9H778Zm2.9,10.75a8.07,8.07,0,0,0,2.4.25c3.5,0,5.6-1.7,5.6-4.75s-2.1-4.4-5.3-4.4a15.22,15.22,0,0,0-2.7,0Z"/><path class="cls-1" d="M805.1,159.53A10.24,10.24,0,0,1,795,149.11h0a5.6,5.6,0,0,1,.06-1,10.64,10.64,0,0,1,9.43-11.74h0l1-.06a10,10,0,0,1,10.09,9.91h0a8.71,8.71,0,0,1-.09,1.44,10.56,10.56,0,0,1-9.17,11.77h0A11.07,11.07,0,0,1,805.1,159.53Zm0-2.4c4.6,0,7.2-4.2,7.2-9.3s-2.35-9.15-7.15-9.15-7.25,4.5-7.25,9.35,2.6,9.1,7.15,9.1Z"/><path class="cls-1" d="M819.88,159.13V136.68h3.22L830.25,148a57.38,57.38,0,0,1,4,7.3h0c0-3-.3-5.75-.3-9.2v-9.45h2.7v22.45h-2.9l-7.15-11.4a65.22,65.22,0,0,1-4.15-7.5h0v18.85Z"/><path class="cls-1" d="M842.1,155.63a10.2,10.2,0,0,0,5,1.4c2.95,0,4.7-1.5,4.7-3.8s-1.2-3.3-4.25-4.45-5.95-3.2-5.95-6.35a6.5,6.5,0,0,1,6.84-6.14h.46a10.11,10.11,0,0,1,5,1.1l-.8,2.4a8,8,0,0,0-4.2-1.1c-3.1,0-4.25,1.85-4.25,3.4s1.35,3.1,4.45,4.3,5.7,3.3,5.7,6.6-2.45,6.5-7.7,6.5a11.64,11.64,0,0,1-5.75-1.45Z"/><path class="cls-1" d="M863.1,152.08l-2.35,7h-3l7.65-22.45h3.5l7.7,22.45h-3.1l-2.4-7Zm7.4-2.25-2.25-6.5c-.5-1.45-.8-2.8-1.15-4.1h0c-.3,1.3-.65,2.7-1.1,4.1l-2.2,6.5Z"/><path class="cls-1" d="M880.48,137a25.46,25.46,0,0,1,5.3-.5,9.21,9.21,0,0,1,6.1,1.6,4.71,4.71,0,0,1,1.9,4,5,5,0,0,1-3.8,5h0a5.76,5.76,0,0,1,4.65,5.6,5.88,5.88,0,0,1-2,4.5,10.89,10.89,0,0,1-7.7,2.1,32.16,32.16,0,0,1-4.5-.25Zm2.9,9.2H886c3,0,5-1.65,5-3.8s-2-3.7-5-3.7a12.08,12.08,0,0,0-2.55,0Zm0,10.7a16,16,0,0,0,2.4,0c3,0,5.8-1.1,5.8-4.35s-2.65-4.35-5.8-4.35h-2.4Z"/><path class="cls-1" d="M902.1,136.68v22.45h-3V136.68Z"/><path class="cls-1" d="M907.68,136.68h2.9v20h9.65v2.4H907.68Z"/><path class="cls-1" d="M927.1,136.68v22.45h-2.9V136.68Z"/><path class="cls-1" d="M932.58,137a45.82,45.82,0,0,1,6.2-.45,12.82,12.82,0,0,1,9.1,2.8,10,10,0,0,1,3.2,8,12,12,0,0,1-3.25,8.75,13.93,13.93,0,0,1-10,3.2,40.72,40.72,0,0,1-5.3-.25Zm2.95,20a15.61,15.61,0,0,0,2.9,0,8.72,8.72,0,0,0,9.6-7.7,9.53,9.53,0,0,0,0-1.85,8,8,0,0,0-7.26-8.68h-.09a7.32,7.32,0,0,0-1.75,0,13.8,13.8,0,0,0-3.4.3Z"/><path class="cls-1" d="M958.58,152.08l-2.35,7h-3l7.65-22.45h3.5l7.7,22.45H969l-2.4-7Zm7.4-2.25-2.25-6.5c-.45-1.45-.8-2.8-1.15-4.1h0c-.3,1.3-.65,2.7-1.1,4.1l-2.2,6.5Z"/><path class="cls-1" d="M975.93,137a45.82,45.82,0,0,1,6.2-.45,12.82,12.82,0,0,1,9.1,2.8,10.06,10.06,0,0,1,3.2,8,12,12,0,0,1-3.25,8.75,13.93,13.93,0,0,1-10,3.2,40.64,40.64,0,0,1-5.3-.25Zm3,20a15.61,15.61,0,0,0,2.9,0,8.72,8.72,0,0,0,9.6-7.7,9.53,9.53,0,0,0,0-1.85,8,8,0,0,0-7.26-8.68h-.09a7.32,7.32,0,0,0-1.75,0,13.8,13.8,0,0,0-3.4.3Z"/><path class="cls-1" d="M1006.1,155.63a10,10,0,0,0,5,1.4c3,0,4.7-1.5,4.7-3.8s-1.2-3.3-4.2-4.45-6-3.2-6-6.35a6.44,6.44,0,0,1,6.72-6.14h.53a10.11,10.11,0,0,1,5,1.1l-.8,2.4a8.13,8.13,0,0,0-4.25-1.1c-3,0-4.2,1.85-4.2,3.4s1.35,3.1,4.45,4.3,5.7,3.3,5.7,6.6-2.55,6.45-7.85,6.45a11.67,11.67,0,0,1-5.75-1.45Z"/><path class="cls-1" d="M1032.1,159.53A10.29,10.29,0,0,1,1022,149h0a4.15,4.15,0,0,1,.06-.86,10.64,10.64,0,0,1,9.43-11.74h0l1-.06a10,10,0,0,1,10.09,9.91h0a8.71,8.71,0,0,1-.09,1.44,10.56,10.56,0,0,1-9.17,11.77h0A11,11,0,0,1,1032.1,159.53Zm0-2.4c4.6,0,7.2-4.2,7.2-9.3s-2.35-9.15-7.2-9.15-7.2,4.5-7.2,9.35,2.6,9.1,7.15,9.1Z"/><path class="cls-1" d="M1062.73,158.43a15,15,0,0,1-6,1,10.45,10.45,0,0,1-11.07-9.79,10.15,10.15,0,0,1,0-1.56,11.15,11.15,0,0,1,10.46-11.8h1.29a12.09,12.09,0,0,1,5.3,1l-.7,2.2a10.06,10.06,0,0,0-4.5-1,8.38,8.38,0,0,0-8.84,7.9,8.7,8.7,0,0,0,0,1.35,8.09,8.09,0,0,0,7.09,9h0a9,9,0,0,0,1.47,0,12.31,12.31,0,0,0,5-1Z"/><path class="cls-1" d="M1069.88,136.68v22.45h-2.78V136.68Z"/><path class="cls-1" d="M1079.18,152.08l-2.3,7h-3l7.6-22.45h3.5l7.7,22.45h-3.1l-2.4-7Zm7.4-2.25-2.25-6.5c-.45-1.45-.8-2.8-1.15-4.1h0c-.3,1.3-.65,2.7-1.1,4.1l-2.2,6.5Z"/><path class="cls-1" d="M1096.53,136.68h3v20h9.6v2.4h-12.55Z"/><path class="cls-1" d="M93.33,87.43c-2,.8-3.75,1.4-5,1.9l-4.1,1.35q-2,.6-5.7,1.5a113.72,113.72,0,0,1-26.05,3,66,66,0,0,1-26.1-5,43.3,43.3,0,0,1-19.15-16A47.14,47.14,0,0,1,0,47.58a55.19,55.19,0,0,1,3.75-20,34.94,34.94,0,0,1,11.3-15.7A52.49,52.49,0,0,1,27.63,4.53a56.69,56.69,0,0,1,12.6-3.45A95.07,95.07,0,0,1,53.83.23a93.94,93.94,0,0,1,20,1.8C79.13,3.28,85,4.88,91.28,7V29A75.25,75.25,0,0,0,78,22.88a53.28,53.28,0,0,0-17.5-2.45A36,36,0,0,0,41.08,25a25.27,25.27,0,0,0-10,11,29.9,29.9,0,0,0-2.85,12.3,26.14,26.14,0,0,0,3.3,13,24.16,24.16,0,0,0,10,9.5,33.11,33.11,0,0,0,16,3.6A52.38,52.38,0,0,0,68.88,73V62.08H56.33V43.38h37Z"/><path class="cls-1" d="M200.28,94h-30L163,77.53a70.08,70.08,0,0,0-7.25-13,15.64,15.64,0,0,0-6.25-5.35A21.84,21.84,0,0,0,141.63,58h-3.15V94.18H110.53V1.28H158.1A34.17,34.17,0,0,1,177,6a28.06,28.06,0,0,1,10.63,11.37,29.4,29.4,0,0,1,3.2,12.7,24.35,24.35,0,0,1-2.7,11.9,22.14,22.14,0,0,1-5.7,7,54.67,54.67,0,0,1-6.75,4.2,27.63,27.63,0,0,1,7.4,6.35,81.44,81.44,0,0,1,7.9,14.5Zm-38.2-63.4a9.56,9.56,0,0,0-4.2-9A27.56,27.56,0,0,0,144.18,19h-5.7V41.38h6.05a30,30,0,0,0,14-2.25,9.23,9.23,0,0,0,3.57-8.55Z"/><path class="cls-1" d="M302.88,52.48a43.23,43.23,0,0,1-4.45,20.3A35.61,35.61,0,0,1,286.68,86a51.59,51.59,0,0,1-15.8,7A70.34,70.34,0,0,1,254,95.18a66.21,66.21,0,0,1-22.9-4.05,40.29,40.29,0,0,1-18.65-13.65,39.47,39.47,0,0,1-7.5-25V1.23h27.9v44a37.72,37.72,0,0,0,2.65,15A18.13,18.13,0,0,0,242.83,69,21.61,21.61,0,0,0,254,71.78,21.23,21.23,0,0,0,264.88,69a18.12,18.12,0,0,0,7.2-8.55,37.72,37.72,0,0,0,2.65-15V1.35h27.95Z"/><path class="cls-1" d="M400.33,30.43a29.17,29.17,0,0,1-1.8,10,27.38,27.38,0,0,1-5.7,9.15,28.43,28.43,0,0,1-10.7,6.9,43.24,43.24,0,0,1-15.8,2.65H348V93.88H320V1.28h46.3a43.24,43.24,0,0,1,15.8,2.65,29.12,29.12,0,0,1,10.7,7,27,27,0,0,1,5.7,9.3A30.06,30.06,0,0,1,400.33,30.43Zm-28.5,0a9.71,9.71,0,0,0-4-9,28.11,28.11,0,0,0-14-2.45h-5.9V41.33H354a48.71,48.71,0,0,0,10.7-.9,8.65,8.65,0,0,0,5.4-3.2,11.24,11.24,0,0,0,2-6.6Z"/><path class="cls-1" d="M510.23,47.58a49,49,0,0,1-6,23.9,43.55,43.55,0,0,1-17.85,17.3,59.58,59.58,0,0,1-28.85,6.45,58.76,58.76,0,0,1-29.1-6.7,43.6,43.6,0,0,1-17.65-17.6,50,50,0,0,1,0-46.75,42.94,42.94,0,0,1,17.7-17.5A58.85,58.85,0,0,1,457.58,0a64.19,64.19,0,0,1,23,3.8A46.22,46.22,0,0,1,497.1,14.18a43.92,43.92,0,0,1,10,15A51.1,51.1,0,0,1,510.23,47.58Zm-28.5,0a29.22,29.22,0,0,0-1.5-9.55,21.78,21.78,0,0,0-4.65-7.5,22.53,22.53,0,0,0-7.6-5,28.83,28.83,0,0,0-10.4-1.75,22.29,22.29,0,0,0-24,20.42,20.57,20.57,0,0,0,0,3.33,22.46,22.46,0,0,0,21,23.82,25.86,25.86,0,0,0,3.05,0,26.39,26.39,0,0,0,13.15-3A20.06,20.06,0,0,0,479,60a26.11,26.11,0,0,0,2.8-12.3Z"/><path class="cls-1" d="M641.78,87A68.39,68.39,0,0,1,630,92a73.1,73.1,0,0,1-12.15,2.55,105.05,105.05,0,0,1-12.65.8A66.62,66.62,0,0,1,583.43,92a47.06,47.06,0,0,1-16.65-10,41.6,41.6,0,0,1-10.55-15.25,50.59,50.59,0,0,1-3.5-19.15,49.09,49.09,0,0,1,4.15-21,40.3,40.3,0,0,1,11.6-15,49.85,49.85,0,0,1,17-8.8,69.73,69.73,0,0,1,20-2.8,109.34,109.34,0,0,1,35.8,7v24.6a99.28,99.28,0,0,0-13.65-7.1,39.94,39.94,0,0,0-15.8-2.85,35.89,35.89,0,0,0-15,3.2,28,28,0,0,0-11.3,9.2,24.38,24.38,0,0,0-.5,26.75,25.65,25.65,0,0,0,10.4,9.3,32,32,0,0,0,15,3.45,50.79,50.79,0,0,0,12.8-1.6,62.65,62.65,0,0,0,10-3.65c2.75-1.35,5.6-3,8.5-4.75Z"/><path class="cls-1" d="M855.43,94h-30l-7.3-16.45a70.35,70.35,0,0,0-7.2-13.2A15.93,15.93,0,0,0,804.68,59a22.11,22.11,0,0,0-7.9-1.15h-3.15V94h-28V1.28h47.55A34.42,34.42,0,0,1,832.13,6a28.06,28.06,0,0,1,10.6,11.35A29.38,29.38,0,0,1,846,30a24.35,24.35,0,0,1-2.7,11.9,22.67,22.67,0,0,1-5.75,7,54.67,54.67,0,0,1-6.75,4.2,26.74,26.74,0,0,1,7.4,6.2,75.45,75.45,0,0,1,7.9,14.5Zm-38-63.4a9.55,9.55,0,0,0-4.25-9A27.54,27.54,0,0,0,799.48,19h-5.9V41.38h6a30,30,0,0,0,14-2.25,9.12,9.12,0,0,0,3.8-8.6Z"/><path class="cls-1" d="M928.18,67a25.67,25.67,0,0,1-4.45,15,28.16,28.16,0,0,1-12.45,10A53.21,53.21,0,0,1,886,95a74.42,74.42,0,0,1-11.1-2,82.9,82.9,0,0,1-14.4-5V65.28a96.46,96.46,0,0,0,13.8,7.25,37,37,0,0,0,14.55,2.85A12.68,12.68,0,0,0,898.13,73a7,7,0,0,0,2.1-4.45,7.51,7.51,0,0,0-3.6-6.3,50.18,50.18,0,0,0-10.5-5.35,81.28,81.28,0,0,1-13.4-7,31.72,31.72,0,0,1-9.4-9.45A24.55,24.55,0,0,1,859.68,27a25.57,25.57,0,0,1,3.7-13.55,25.26,25.26,0,0,1,11.25-9.65A42.82,42.82,0,0,1,893.08.23a64.18,64.18,0,0,1,14.35,1.5,62.38,62.38,0,0,1,10.9,3.35,43,43,0,0,1,5.85,3V29.63a77.64,77.64,0,0,0-12.65-7.3,35,35,0,0,0-15-3.2,11.38,11.38,0,0,0-7.55,2,6.23,6.23,0,0,0-2.35,5A6,6,0,0,0,889,30.88a41.52,41.52,0,0,0,8.35,5,168.86,168.86,0,0,1,17.1,9,34.39,34.39,0,0,1,10,9.3A22.56,22.56,0,0,1,928.18,67Z"/><path class="cls-1" d="M1012.1,94h-70V1.28h68.75v18.6h-40.8v17h39V55.53h-39v20h42.05Z"/><path class="cls-1" d="M1109.23,87a67.9,67.9,0,0,1-11.75,5,75.41,75.41,0,0,1-12.15,2.55,105.88,105.88,0,0,1-12.7.8,66.59,66.59,0,0,1-21.7-3.35,47.06,47.06,0,0,1-16.65-10,41,41,0,0,1-10.55-15.25,50.41,50.41,0,0,1-3.55-19.15,49.87,49.87,0,0,1,4.15-21,41.26,41.26,0,0,1,11.6-15,50.38,50.38,0,0,1,17-8.8,69.73,69.73,0,0,1,20-2.8,109.08,109.08,0,0,1,35.8,7v24.6a98.71,98.71,0,0,0-13.6-7.1,40.54,40.54,0,0,0-15.85-2.85,35.73,35.73,0,0,0-15,3.2,27.56,27.56,0,0,0-11.3,9.2,24.23,24.23,0,0,0-.55,26.75,26,26,0,0,0,10.4,9.3,32.23,32.23,0,0,0,15,3.45,49.9,49.9,0,0,0,12.75-1.6,62.65,62.65,0,0,0,10-3.65c2.75-1.35,5.55-3,8.45-4.75Z"/><path class="cls-2" d="M749.68,29.53a43.16,43.16,0,0,0-10-15,46,46,0,0,0-16.6-10.35,64.05,64.05,0,0,0-22.9-3.8A59,59,0,0,0,671,7a42.53,42.53,0,0,0-17.65,17.5,50,50,0,0,0,0,46.75,43.42,43.42,0,0,0,17.7,17.6,53.69,53.69,0,0,0,17.65,5.85v-36A29,29,0,0,1,710.48,30s5.6,27.15-18.15,36.55v28.6a76,76,0,0,0,7.85.4A59.58,59.58,0,0,0,729,89.13a43.12,43.12,0,0,0,17.8-17.3,49,49,0,0,0,6-23.9A50.2,50.2,0,0,0,749.68,29.53Z"/></g></g></svg>