<svg xmlns="http://www.w3.org/2000/svg" xmlns:xlink="http://www.w3.org/1999/xlink" viewBox="0 0 271.51 38.1"><defs><style>.cls-1,.cls-3{fill:#fff;}.cls-2{clip-path:url(#clip-path);}.cls-3{opacity:0.7;isolation:isolate;}.cls-4{fill:#34d9c3;}.cls-5{fill:none;stroke:#fff;}.cls-5,.cls-6{stroke-miterlimit:10;}.cls-6{fill:#254596;stroke:#254596;}</style><clipPath id="clip-path" transform="translate(0.05 0.06)"><circle class="cls-1" cx="19" cy="19" r="19"/></clipPath></defs><g id="Capa_2" data-name="Capa 2"><g id="Capa_1-2" data-name="Capa 1"><circle class="cls-1" cx="19.05" cy="19.06" r="19"/><g class="cls-2"><path class="cls-1" d="M15,27.3a11.89,11.89,0,0,1,1.84,3.57,10.86,10.86,0,0,1,2.86-2.69A10.58,10.58,0,0,0,15,27.3Z" transform="translate(0.05 0.06)"/><path class="cls-1" d="M7.66,33.94a11.52,11.52,0,0,1-2.13-1.55l0,0A19,19,0,0,0,14,37.34a22.62,22.62,0,0,1,.79-2.62C11.47,36,7.66,33.94,7.66,33.94Z" transform="translate(0.05 0.06)"/><path class="cls-1" d="M30.52,30.39c-.49,3.6-4.27,5.89-4.27,5.89a10.44,10.44,0,0,1-2.36,1.08v0a18.52,18.52,0,0,0,8.56-4.94A21.19,21.19,0,0,1,30.52,30.39Z" transform="translate(0.05 0.06)"/><path class="cls-1" d="M24.22,26.6a11.65,11.65,0,0,1,4.06.22A10.68,10.68,0,0,1,27.35,23,10.55,10.55,0,0,0,24.22,26.6Z" transform="translate(0.05 0.06)"/><path class="cls-1" d="M37.32,13.87a1,1,0,0,0,0,.15,21.4,21.4,0,0,1-2.71.64c2.89,2.22,3,6.65,3,6.65a11.53,11.53,0,0,1-.27,2.58h0A18.66,18.66,0,0,0,37.32,13.87Z" transform="translate(0.05 0.06)"/><path class="cls-1" d="M28.23,18.24a11.4,11.4,0,0,1,2.22-3.41,11.12,11.12,0,0,1-3.83-1.11A10.54,10.54,0,0,0,28.23,18.24Z" transform="translate(0.05 0.06)"/><path class="cls-1" d="M13.73,11.36a11.91,11.91,0,0,1-4-.18A10.86,10.86,0,0,1,10.65,15,10.44,10.44,0,0,0,13.73,11.36Z" transform="translate(0.05 0.06)"/><path class="cls-1" d="M5.55,5.56A22.78,22.78,0,0,1,7.37,7.48c.54-3.54,4.25-5.8,4.25-5.8a11.63,11.63,0,0,1,2-.92,18.35,18.35,0,0,0-8.3,5.07Z" transform="translate(0.05 0.06)"/><path class="cls-1" d="M7.63,23.08a11,11,0,0,1,3.76,1.13,10.57,10.57,0,0,0-1.6-4.5A11.73,11.73,0,0,1,7.63,23.08Z" transform="translate(0.05 0.06)"/><path class="cls-1" d="M.36,16.69a11.34,11.34,0,0,1,.28-2.63h0a18.84,18.84,0,0,0,0,9.82,23.05,23.05,0,0,1,2.6-.62C.46,21,.36,16.69.36,16.69Z" transform="translate(0.05 0.06)"/><path class="cls-1" d="M23,10.61A11.8,11.8,0,0,1,21.11,7a11,11,0,0,1-2.88,2.77A10.63,10.63,0,0,0,23,10.61Z" transform="translate(0.05 0.06)"/><path class="cls-1" d="M23.08,3.21c3.35-1.37,7.23.75,7.23.75A11.78,11.78,0,0,1,32.09,5.2,18.32,18.32,0,0,0,23.5.51l.35.1A21.77,21.77,0,0,1,23.08,3.21Z" transform="translate(0.05 0.06)"/><path class="cls-1" d="M7.49,30.54C4,30,1.71,26.29,1.71,26.29A11.21,11.21,0,0,1,.63,23.88h0a18.73,18.73,0,0,0,4.91,8.51A22,22,0,0,1,7.49,30.54Z" transform="translate(0.05 0.06)"/><path class="cls-3" d="M14.81,34.72a15.08,15.08,0,0,1,2-3.85A12.16,12.16,0,0,0,15,27.3a11,11,0,0,0-3.81.91,15,15,0,0,0-3.71,2.33,20.73,20.73,0,0,0-2,1.85,11.19,11.19,0,0,0,2.13,1.55S11.47,36,14.81,34.72Z" transform="translate(0.05 0.06)"/><path class="cls-3" d="M7.49,30.54a15,15,0,0,1,3.71-2.33,11.91,11.91,0,0,0,.19-4,10.79,10.79,0,0,0-3.76-1.12,15.16,15.16,0,0,0-4.4.16,23.2,23.2,0,0,0-2.6.63,11.21,11.21,0,0,0,1.08,2.41S4,30,7.49,30.54Z" transform="translate(0.05 0.06)"/><path class="cls-1" d="M16.65,37.59A10.44,10.44,0,0,1,14,37.34v0s5.24,1.48,9.87,0a21.15,21.15,0,0,1-.64-2.69C21,37.49,16.65,37.59,16.65,37.59Z" transform="translate(0.05 0.06)"/><path class="cls-3" d="M16.65,37.59s4.37-.1,6.6-2.92a15.16,15.16,0,0,1-.15-4.3,12.09,12.09,0,0,0-3.39-2.19,10.86,10.86,0,0,0-2.86,2.69,15.08,15.08,0,0,0-2,3.85A22.62,22.62,0,0,0,14,37.34,10.44,10.44,0,0,0,16.65,37.59Z" transform="translate(0.05 0.06)"/><path class="cls-3" d="M30.52,30.39a15.09,15.09,0,0,1-2.24-3.57,11.65,11.65,0,0,0-4.06-.22,10.78,10.78,0,0,0-1.12,3.77,15.15,15.15,0,0,0,.15,4.3,20.75,20.75,0,0,0,.64,2.69,10.24,10.24,0,0,0,2.36-1.08S30,34,30.52,30.39Z" transform="translate(0.05 0.06)"/><path class="cls-1" d="M34,30.33a11.62,11.62,0,0,1-1.5,2.11h0a18.76,18.76,0,0,0,4.92-8.56,22.52,22.52,0,0,1-2.68-.8C36.08,26.44,34,30.33,34,30.33Z" transform="translate(0.05 0.06)"/><path class="cls-3" d="M34.69,23.08A15.24,15.24,0,0,1,31,21.13h0A11.5,11.5,0,0,0,27.35,23a10.68,10.68,0,0,0,.93,3.86,15.43,15.43,0,0,0,2.24,3.57,21.19,21.19,0,0,0,1.93,2A11.62,11.62,0,0,0,34,30.33S36.08,26.44,34.69,23.08Z" transform="translate(0.05 0.06)"/><path class="cls-3" d="M34.65,14.66a15.66,15.66,0,0,1-4.2.17,11.4,11.4,0,0,0-2.22,3.41A10.82,10.82,0,0,0,31,21.13a15.43,15.43,0,0,0,3.7,1.95,22.52,22.52,0,0,0,2.68.8,11.38,11.38,0,0,0,.27-2.57S37.54,16.88,34.65,14.66Z" transform="translate(0.05 0.06)"/><path class="cls-1" d="M32.4,5.51a24.4,24.4,0,0,1-2,1.88c3.61.48,5.91,4.26,5.91,4.26a11.89,11.89,0,0,1,1,2.22A18.42,18.42,0,0,0,32.08,5.2C32.29,5.39,32.4,5.51,32.4,5.51Z" transform="translate(0.05 0.06)"/><path class="cls-3" d="M30.4,7.39a15.51,15.51,0,0,1-3.56,2.26,11.77,11.77,0,0,0-.22,4.07,11.12,11.12,0,0,0,3.83,1.11,15.26,15.26,0,0,0,4.2-.17A21.4,21.4,0,0,0,37.36,14a1,1,0,0,1,0-.15,11.89,11.89,0,0,0-1-2.22S34,7.87,30.4,7.39Z" transform="translate(0.05 0.06)"/><path class="cls-3" d="M23.08,3.21a15.62,15.62,0,0,1-2,3.77A11.8,11.8,0,0,0,23,10.61a11,11,0,0,0,3.87-1A15.31,15.31,0,0,0,30.4,7.39a24.4,24.4,0,0,0,2-1.88l-.31-.31A11.78,11.78,0,0,0,30.31,4S26.43,1.84,23.08,3.21Z" transform="translate(0.05 0.06)"/><path class="cls-1" d="M4,7.69A10.88,10.88,0,0,1,5.28,5.83,18.49,18.49,0,0,0,.64,14.06a21.32,21.32,0,0,1,2.54.75C1.9,11.48,4,7.69,4,7.69Z" transform="translate(0.05 0.06)"/><path class="cls-3" d="M3.18,14.81a15.12,15.12,0,0,1,3.9,2A12,12,0,0,0,10.65,15a10.86,10.86,0,0,0-.93-3.82,15.41,15.41,0,0,0-2.35-3.7A24.52,24.52,0,0,0,5.55,5.56l-.27.27A10.88,10.88,0,0,0,4,7.69S1.9,11.48,3.18,14.81Z" transform="translate(0.05 0.06)"/><path class="cls-3" d="M3.24,23.25a15.09,15.09,0,0,1,4.39-.16,12,12,0,0,0,2.16-3.38,10.73,10.73,0,0,0-2.7-2.85,15.37,15.37,0,0,0-3.91-2,21.32,21.32,0,0,0-2.54-.75,11.34,11.34,0,0,0-.28,2.63S.46,21,3.24,23.25Z" transform="translate(0.05 0.06)"/><path class="cls-1" d="M14.66,3.25C16.89.42,21.26.32,21.26.32a11,11,0,0,1,2.24.2,18.24,18.24,0,0,0-9.93.24L14,.64A23.34,23.34,0,0,1,14.66,3.25Z" transform="translate(0.05 0.06)"/><path class="cls-3" d="M7.37,7.48a15.41,15.41,0,0,1,2.35,3.7,11.91,11.91,0,0,0,4,.18,11,11,0,0,0,1.11-3.8,15.32,15.32,0,0,0-.18-4.31A21.33,21.33,0,0,0,14,.64l-.45.12a11.63,11.63,0,0,0-2,.92S7.91,3.94,7.37,7.48Z" transform="translate(0.05 0.06)"/><path class="cls-3" d="M14.66,3.25a15.32,15.32,0,0,1,.18,4.31,11.81,11.81,0,0,0,3.39,2.19A11,11,0,0,0,21.11,7a15.37,15.37,0,0,0,2-3.76A20.68,20.68,0,0,0,23.85.61L23.5.52a11,11,0,0,0-2.24-.2S16.89.42,14.66,3.25Z" transform="translate(0.05 0.06)"/><path class="cls-4" d="M37.64,21.31s-.1-4.43-3-6.65A21.4,21.4,0,0,0,37.36,14a1,1,0,0,1,0-.15,11.89,11.89,0,0,0-1-2.22S34,7.87,30.4,7.39a24.4,24.4,0,0,0,2-1.88l-.31-.31A11.78,11.78,0,0,0,30.31,4s-3.88-2.12-7.23-.75a21.77,21.77,0,0,0,.77-2.6L23.5.51A11.75,11.75,0,0,0,21.26.32s-4.37.1-6.6,2.93A23.34,23.34,0,0,0,14,.64l-.46.12a11.14,11.14,0,0,0-2,.92S7.91,3.94,7.37,7.48A21.43,21.43,0,0,0,5.55,5.56l-.27.27A10.88,10.88,0,0,0,4,7.69s-2.07,3.79-.79,7.12a21.32,21.32,0,0,0-2.54-.75,11.34,11.34,0,0,0-.28,2.63S.46,21,3.23,23.25a23.2,23.2,0,0,0-2.6.63,11.21,11.21,0,0,0,1.08,2.41S4,30,7.49,30.54a22,22,0,0,0-2,1.85,11.52,11.52,0,0,0,2.13,1.55s3.81,2.08,7.15.78A22.62,22.62,0,0,0,14,37.34a10.44,10.44,0,0,0,2.63.25s4.37-.1,6.6-2.92a21.15,21.15,0,0,0,.64,2.69,10.44,10.44,0,0,0,2.36-1.08S30,34,30.52,30.39a21.19,21.19,0,0,0,1.93,2A11.62,11.62,0,0,0,34,30.33s2.13-3.89.74-7.25a22.52,22.52,0,0,0,2.68.8A11.38,11.38,0,0,0,37.64,21.31ZM31,21.12A11.6,11.6,0,0,0,27.34,23a10.92,10.92,0,0,0,.94,3.86,11.65,11.65,0,0,0-4.06-.22,10.78,10.78,0,0,0-1.13,3.77,12,12,0,0,0-3.38-2.19,10.86,10.86,0,0,0-2.86,2.69A11.89,11.89,0,0,0,15,27.3a10.8,10.8,0,0,0-3.81.91,11.94,11.94,0,0,0,.19-4,10.79,10.79,0,0,0-3.76-1.13,11.73,11.73,0,0,0,2.16-3.37,10.62,10.62,0,0,0-2.71-2.85A12,12,0,0,0,10.65,15a10.86,10.86,0,0,0-.93-3.82,11.91,11.91,0,0,0,4,.18,11,11,0,0,0,1.11-3.8,11.81,11.81,0,0,0,3.39,2.19A11,11,0,0,0,21.11,7,11.8,11.8,0,0,0,23,10.61a11,11,0,0,0,3.87-1,11.77,11.77,0,0,0-.22,4.07,11.12,11.12,0,0,0,3.83,1.11,11.4,11.4,0,0,0-2.22,3.41A10.82,10.82,0,0,0,31,21.13Z" transform="translate(0.05 0.06)"/><path class="cls-5" d="M23,10.61a10.63,10.63,0,0,1-4.74-.86,10.55,10.55,0,0,1-4.5,1.61A10.44,10.44,0,0,1,10.65,15a10.5,10.5,0,0,1-.86,4.71,10.57,10.57,0,0,1,1.6,4.5A10.58,10.58,0,0,1,15,27.3a10.58,10.58,0,0,1,4.7.88,10.56,10.56,0,0,1,4.51-1.58A10.55,10.55,0,0,1,27.35,23a10.51,10.51,0,0,1,.88-4.72,10.58,10.58,0,0,1-1.61-4.52A10.55,10.55,0,0,1,23,10.61Z" transform="translate(0.05 0.06)"/><path class="cls-1" d="M11.39,24.21a11.91,11.91,0,0,1-.19,4A11,11,0,0,1,15,27.3,10.58,10.58,0,0,0,11.39,24.21Z" transform="translate(0.05 0.06)"/><path class="cls-1" d="M23.1,30.37a10.78,10.78,0,0,1,1.12-3.77,10.56,10.56,0,0,0-4.51,1.58A12.09,12.09,0,0,1,23.1,30.37Z" transform="translate(0.05 0.06)"/><path class="cls-1" d="M27.35,23A11.5,11.5,0,0,1,31,21.12h0a10.82,10.82,0,0,1-2.76-2.89A10.51,10.51,0,0,0,27.35,23Z" transform="translate(0.05 0.06)"/><path class="cls-1" d="M26.62,13.72a11.77,11.77,0,0,1,.22-4.07,11,11,0,0,1-3.87,1A10.55,10.55,0,0,0,26.62,13.72Z" transform="translate(0.05 0.06)"/><path class="cls-1" d="M10.65,15a12.13,12.13,0,0,1-3.56,1.86,10.73,10.73,0,0,1,2.7,2.85A10.5,10.5,0,0,0,10.65,15Z" transform="translate(0.05 0.06)"/><path class="cls-1" d="M14.84,7.56a11,11,0,0,1-1.11,3.8,10.55,10.55,0,0,0,4.5-1.61A11.81,11.81,0,0,1,14.84,7.56Z" transform="translate(0.05 0.06)"/><path class="cls-1" d="M15,27.33a11.66,11.66,0,0,1,1.84,3.57,10.91,10.91,0,0,1,2.86-2.7A10.59,10.59,0,0,0,15,27.33Z" transform="translate(0.05 0.06)"/><path class="cls-1" d="M7.66,34a11.59,11.59,0,0,1-2.14-1.55v0A19,19,0,0,0,14,37.37a22.27,22.27,0,0,1,.78-2.63C11.46,36.05,7.66,34,7.66,34Z" transform="translate(0.05 0.06)"/><path class="cls-1" d="M30.51,30.41c-.49,3.6-4.26,5.9-4.26,5.9a10.31,10.31,0,0,1-2.37,1.08v0a18.62,18.62,0,0,0,8.56-4.94A21.24,21.24,0,0,1,30.51,30.41Z" transform="translate(0.05 0.06)"/><path class="cls-1" d="M24.21,26.62a11.62,11.62,0,0,1,4.06.22A10.84,10.84,0,0,1,27.34,23,10.51,10.51,0,0,0,24.21,26.62Z" transform="translate(0.05 0.06)"/><path class="cls-1" d="M37.31,13.9a1.31,1.31,0,0,1,0,.14,23.42,23.42,0,0,1-2.71.65c2.89,2.21,3,6.65,3,6.65a11.5,11.5,0,0,1-.27,2.57h0A18.63,18.63,0,0,0,37.31,13.9Z" transform="translate(0.05 0.06)"/><path class="cls-1" d="M28.22,18.27a11.92,11.92,0,0,1,2.22-3.42,10.79,10.79,0,0,1-3.82-1.11A10.59,10.59,0,0,0,28.22,18.27Z" transform="translate(0.05 0.06)"/><path class="cls-1" d="M13.73,11.38a11.7,11.7,0,0,1-4-.18A11,11,0,0,1,10.64,15,10.7,10.7,0,0,0,13.73,11.38Z" transform="translate(0.05 0.06)"/><path class="cls-1" d="M5.54,5.58A22.78,22.78,0,0,1,7.36,7.5C7.9,4,11.61,1.71,11.61,1.71a11.23,11.23,0,0,1,2-.92,18.27,18.27,0,0,0-8.3,5.06Z" transform="translate(0.05 0.06)"/><path class="cls-1" d="M7.63,23.11a10.88,10.88,0,0,1,3.75,1.12,10.68,10.68,0,0,0-1.59-4.5A12.07,12.07,0,0,1,7.63,23.11Z" transform="translate(0.05 0.06)"/><path class="cls-1" d="M.35,16.71a12,12,0,0,1,.28-2.63h0a18.71,18.71,0,0,0,0,9.82,20.65,20.65,0,0,1,2.6-.62C.45,21,.35,16.71.35,16.71Z" transform="translate(0.05 0.06)"/><path class="cls-1" d="M23,10.63A11.94,11.94,0,0,1,21.1,7a10.81,10.81,0,0,1-2.87,2.77A10.56,10.56,0,0,0,23,10.63Z" transform="translate(0.05 0.06)"/><path class="cls-1" d="M23.07,3.24C26.43,1.87,30.3,4,30.3,4a10.8,10.8,0,0,1,1.78,1.23A18.28,18.28,0,0,0,23.5.54l.35.09A23.93,23.93,0,0,1,23.07,3.24Z" transform="translate(0.05 0.06)"/><path class="cls-1" d="M7.48,30.56C4,30,1.7,26.31,1.7,26.31A11.68,11.68,0,0,1,.63,23.9h0a18.73,18.73,0,0,0,4.91,8.51A25.27,25.27,0,0,1,7.48,30.56Z" transform="translate(0.05 0.06)"/><path class="cls-3" d="M14.8,34.74a15,15,0,0,1,2-3.84A11.78,11.78,0,0,0,15,27.32a11,11,0,0,0-3.81.91,15.33,15.33,0,0,0-3.71,2.33,23.58,23.58,0,0,0-2,1.85A11.59,11.59,0,0,0,7.66,34S11.46,36.05,14.8,34.74Z" transform="translate(0.05 0.06)"/><path class="cls-3" d="M7.48,30.56a15.33,15.33,0,0,1,3.71-2.33,11.91,11.91,0,0,0,.19-4,10.88,10.88,0,0,0-3.75-1.12,15.2,15.2,0,0,0-4.4.17,20.65,20.65,0,0,0-2.6.62A11.68,11.68,0,0,0,1.7,26.31S4,30,7.48,30.56Z" transform="translate(0.05 0.06)"/><path class="cls-1" d="M16.64,37.62A10.79,10.79,0,0,1,14,37.37h0s5.24,1.48,9.87,0a20.88,20.88,0,0,1-.64-2.7C21,37.52,16.64,37.62,16.64,37.62Z" transform="translate(0.05 0.06)"/><path class="cls-3" d="M16.64,37.62s4.37-.1,6.6-2.93a15.09,15.09,0,0,1-.15-4.29,11.63,11.63,0,0,0-3.39-2.2,10.91,10.91,0,0,0-2.86,2.7,15.32,15.32,0,0,0-2,3.84A22.27,22.27,0,0,0,14,37.37,10.79,10.79,0,0,0,16.64,37.62Z" transform="translate(0.05 0.06)"/><path class="cls-3" d="M30.51,30.41a15.22,15.22,0,0,1-2.24-3.57,11.9,11.9,0,0,0-4.06-.22,11.05,11.05,0,0,0-1.12,3.78,15.08,15.08,0,0,0,.15,4.29,20.88,20.88,0,0,0,.64,2.7,10.31,10.31,0,0,0,2.37-1.08S30,34,30.51,30.41Z" transform="translate(0.05 0.06)"/><path class="cls-1" d="M33.94,30.36a11,11,0,0,1-1.5,2.1h0a18.73,18.73,0,0,0,4.92-8.56,20.77,20.77,0,0,1-2.68-.81C36.07,26.47,33.94,30.36,33.94,30.36Z" transform="translate(0.05 0.06)"/><path class="cls-3" d="M34.68,23.1A15.15,15.15,0,0,1,31,21.16h0A11.6,11.6,0,0,0,27.34,23a10.84,10.84,0,0,0,.93,3.85,15.22,15.22,0,0,0,2.24,3.57,20.1,20.1,0,0,0,1.93,2.05,11,11,0,0,0,1.5-2.1S36.07,26.47,34.68,23.1Z" transform="translate(0.05 0.06)"/><path class="cls-3" d="M34.64,14.68a15.25,15.25,0,0,1-4.2.17,11.92,11.92,0,0,0-2.22,3.42A11,11,0,0,0,31,21.16a15.15,15.15,0,0,0,3.69,1.94,20.77,20.77,0,0,0,2.68.81,11.53,11.53,0,0,0,.27-2.58S37.53,16.9,34.64,14.68Z" transform="translate(0.05 0.06)"/><path class="cls-1" d="M32.39,5.53a22.73,22.73,0,0,1-2,1.88c3.6.48,5.9,4.27,5.9,4.27a11,11,0,0,1,1,2.22,18.29,18.29,0,0,0-5.23-8.68C32.28,5.41,32.39,5.53,32.39,5.53Z" transform="translate(0.05 0.06)"/><path class="cls-3" d="M30.4,7.41a15.22,15.22,0,0,1-3.57,2.26,11.68,11.68,0,0,0-.21,4.07,10.85,10.85,0,0,0,3.82,1.11,15.61,15.61,0,0,0,4.2-.16A23.42,23.42,0,0,0,37.35,14a1.31,1.31,0,0,0,0-.14,11,11,0,0,0-1-2.22S34,7.89,30.4,7.41Z" transform="translate(0.05 0.06)"/><path class="cls-3" d="M23.07,3.24A15.35,15.35,0,0,1,21.1,7,11.94,11.94,0,0,0,23,10.63a10.81,10.81,0,0,0,3.87-1A15.22,15.22,0,0,0,30.4,7.41a22.73,22.73,0,0,0,2-1.88s-.11-.12-.31-.31A10.8,10.8,0,0,0,30.3,4S26.43,1.87,23.07,3.24Z" transform="translate(0.05 0.06)"/><path class="cls-1" d="M4,7.71a11.87,11.87,0,0,1,1.3-1.86A18.65,18.65,0,0,0,.63,14.08a23.57,23.57,0,0,1,2.55.75C1.89,11.5,4,7.71,4,7.71Z" transform="translate(0.05 0.06)"/><path class="cls-3" d="M3.18,14.83a15.79,15.79,0,0,1,3.9,2A11.89,11.89,0,0,0,10.64,15a11,11,0,0,0-.93-3.83A15.61,15.61,0,0,0,7.36,7.5,22.78,22.78,0,0,0,5.54,5.58l-.27.27A11.87,11.87,0,0,0,4,7.71S1.89,11.5,3.18,14.83Z" transform="translate(0.05 0.06)"/><path class="cls-3" d="M3.23,23.28a15.2,15.2,0,0,1,4.4-.17,12.24,12.24,0,0,0,2.16-3.38,11.1,11.1,0,0,0-2.71-2.85,15.79,15.79,0,0,0-3.9-2,23.57,23.57,0,0,0-2.55-.75,12,12,0,0,0-.28,2.63S.45,21,3.23,23.28Z" transform="translate(0.05 0.06)"/><path class="cls-1" d="M14.65,3.27C16.88.44,21.26.34,21.26.34a11.71,11.71,0,0,1,2.23.2,18.23,18.23,0,0,0-9.92.25L14,.66A21.33,21.33,0,0,1,14.65,3.27Z" transform="translate(0.05 0.06)"/><path class="cls-3" d="M7.36,7.5a15.61,15.61,0,0,1,2.35,3.7,11.7,11.7,0,0,0,4,.18,10.89,10.89,0,0,0,1.1-3.79,15.4,15.4,0,0,0-.18-4.32A23.2,23.2,0,0,0,14,.66l-.46.13a11.23,11.23,0,0,0-2,.92S7.9,4,7.36,7.5Z" transform="translate(0.05 0.06)"/><path class="cls-3" d="M14.65,3.27a15.4,15.4,0,0,1,.18,4.32,12,12,0,0,0,3.39,2.18A10.84,10.84,0,0,0,21.1,7a15.35,15.35,0,0,0,2-3.76A22,22,0,0,0,23.84.63L23.49.54a11.74,11.74,0,0,0-2.24-.2S16.88.44,14.65,3.27Z" transform="translate(0.05 0.06)"/><path class="cls-1" d="M37.63,21.34s-.1-4.44-3-6.66A21.4,21.4,0,0,0,37.35,14a1.31,1.31,0,0,0,0-.14,11,11,0,0,0-1-2.22S34,7.89,30.4,7.41a22.73,22.73,0,0,0,2-1.88s-.11-.12-.31-.31A10.8,10.8,0,0,0,30.3,4s-3.87-2.12-7.23-.75A23.93,23.93,0,0,0,23.85.63L23.49.54a11,11,0,0,0-2.23-.2s-4.38.1-6.61,2.93A21.33,21.33,0,0,0,14,.66l-.45.13a11.23,11.23,0,0,0-2,.92S7.9,4,7.36,7.5A22.78,22.78,0,0,0,5.54,5.58l-.27.27A11.87,11.87,0,0,0,4,7.71s-2.08,3.79-.79,7.12a24.25,24.25,0,0,0-2.55-.75,12,12,0,0,0-.28,2.64S.45,21,3.23,23.28a20.65,20.65,0,0,0-2.6.62A11.68,11.68,0,0,0,1.7,26.31S4,30,7.48,30.56a25.27,25.27,0,0,0-2,1.85A11.59,11.59,0,0,0,7.66,34s3.8,2.09,7.14.78A20.53,20.53,0,0,0,14,37.37a10.79,10.79,0,0,0,2.62.25s4.37-.1,6.6-2.93a20.88,20.88,0,0,0,.64,2.7,10.31,10.31,0,0,0,2.37-1.08S30,34,30.51,30.41a20.1,20.1,0,0,0,1.93,2.05,11,11,0,0,0,1.5-2.1s2.13-3.9.74-7.26a21.26,21.26,0,0,0,2.68.81A11.5,11.5,0,0,0,37.63,21.34ZM31,21.15A11.49,11.49,0,0,0,27.34,23a10.84,10.84,0,0,0,.93,3.85,11.65,11.65,0,0,0-4.06-.22,11.05,11.05,0,0,0-1.12,3.78,11.63,11.63,0,0,0-3.39-2.2,10.91,10.91,0,0,0-2.86,2.7A11.78,11.78,0,0,0,15,27.32a11,11,0,0,0-3.81.91,11.91,11.91,0,0,0,.19-4,10.88,10.88,0,0,0-3.75-1.12,12.06,12.06,0,0,0,2.15-3.38,10.88,10.88,0,0,0-2.7-2.85A12.15,12.15,0,0,0,10.64,15a11,11,0,0,0-.93-3.83,11.7,11.7,0,0,0,4,.18,10.89,10.89,0,0,0,1.1-3.79,12,12,0,0,0,3.39,2.18A10.84,10.84,0,0,0,21.1,7,11.69,11.69,0,0,0,23,10.63a10.81,10.81,0,0,0,3.87-1,11.62,11.62,0,0,0-.21,4.07,10.79,10.79,0,0,0,3.82,1.11,11.92,11.92,0,0,0-2.22,3.42A11,11,0,0,0,31,21.16Z" transform="translate(0.05 0.06)"/><path class="cls-6" d="M23,10.63a10.56,10.56,0,0,1-4.73-.86,10.6,10.6,0,0,1-4.5,1.61A10.7,10.7,0,0,1,10.64,15a10.6,10.6,0,0,1-.85,4.7,10.68,10.68,0,0,1,1.59,4.5A10.59,10.59,0,0,1,15,27.32a10.73,10.73,0,0,1,4.7.88,10.56,10.56,0,0,1,4.51-1.58A10.64,10.64,0,0,1,27.34,23a10.6,10.6,0,0,1,.88-4.71,10.59,10.59,0,0,1-1.6-4.53A10.59,10.59,0,0,1,23,10.63Z" transform="translate(0.05 0.06)"/><path class="cls-1" d="M11.38,24.23a11.91,11.91,0,0,1-.19,4,10.77,10.77,0,0,1,3.81-.9A10.5,10.5,0,0,0,11.38,24.23Z" transform="translate(0.05 0.06)"/><path class="cls-1" d="M23.09,30.4a11.05,11.05,0,0,1,1.12-3.78A10.6,10.6,0,0,0,19.7,28.2,11.63,11.63,0,0,1,23.09,30.4Z" transform="translate(0.05 0.06)"/><path class="cls-1" d="M27.34,23A11.6,11.6,0,0,1,31,21.15h0a11,11,0,0,1-2.77-2.89A10.65,10.65,0,0,0,27.34,23Z" transform="translate(0.05 0.06)"/><path class="cls-1" d="M26.62,13.74a11.68,11.68,0,0,1,.21-4.07,10.81,10.81,0,0,1-3.87,1A10.59,10.59,0,0,0,26.62,13.74Z" transform="translate(0.05 0.06)"/><path class="cls-1" d="M10.64,15a12.15,12.15,0,0,1-3.56,1.85,11.1,11.1,0,0,1,2.71,2.85A10.6,10.6,0,0,0,10.64,15Z" transform="translate(0.05 0.06)"/><path class="cls-1" d="M14.83,7.59a10.89,10.89,0,0,1-1.1,3.79,10.6,10.6,0,0,0,4.5-1.61A12,12,0,0,1,14.83,7.59Z" transform="translate(0.05 0.06)"/></g><path class="cls-1" d="M62.12,27.59,61.06,28l-.85.27c-.27.08-.66.19-1.18.32a26.43,26.43,0,0,1-2.61.46,21.88,21.88,0,0,1-2.75.16,13.37,13.37,0,0,1-5.37-1.06,8.78,8.78,0,0,1-3.95-3.3,9.67,9.67,0,0,1-1.49-5.48,11.57,11.57,0,0,1,.77-4.12A7.22,7.22,0,0,1,46,12a10.8,10.8,0,0,1,2.62-1.54,11.49,11.49,0,0,1,2.6-.71A20.07,20.07,0,0,1,54,9.57a19.08,19.08,0,0,1,4.16.38c1.1.25,2.3.59,3.6,1v4.52A16.27,16.27,0,0,0,59,14.2a11,11,0,0,0-3.62-.51,7.41,7.41,0,0,0-4,1,5.28,5.28,0,0,0-2.08,2.25,6.23,6.23,0,0,0-.58,2.54,5.46,5.46,0,0,0,.67,2.67,4.93,4.93,0,0,0,2,1.95,6.76,6.76,0,0,0,3.3.74,10,10,0,0,0,2.34-.29V22.26H54.5V18.41h7.62Z" transform="translate(0.05 0.06)"/><path class="cls-1" d="M84.17,28.94H78l-1.5-3.39A14.48,14.48,0,0,0,75,22.83a3.17,3.17,0,0,0-1.29-1.11,4.61,4.61,0,0,0-1.62-.24h-.65v7.46H65.67V9.83h9.8a7.16,7.16,0,0,1,3.89,1,5.71,5.71,0,0,1,2.18,2.34,6,6,0,0,1,.67,2.62,5,5,0,0,1-.56,2.45,4.39,4.39,0,0,1-1.18,1.45,9.72,9.72,0,0,1-1.39.87,5.5,5.5,0,0,1,1.52,1.28,15.76,15.76,0,0,1,1.64,3ZM76.34,15.87A2,2,0,0,0,75.47,14a5.72,5.72,0,0,0-2.83-.52H71.43v4.61h1.24a6.17,6.17,0,0,0,2.89-.47A1.88,1.88,0,0,0,76.34,15.87Z" transform="translate(0.05 0.06)"/><path class="cls-1" d="M105.31,20.38a8.81,8.81,0,0,1-.92,4.18A7.27,7.27,0,0,1,102,27.3a10.55,10.55,0,0,1-3.25,1.45,14.31,14.31,0,0,1-3.48.44,13.84,13.84,0,0,1-4.72-.83,8.4,8.4,0,0,1-3.84-2.81,8.18,8.18,0,0,1-1.55-5.17V9.83h5.75v9.06A7.62,7.62,0,0,0,91.42,22a3.76,3.76,0,0,0,1.51,1.81,4.86,4.86,0,0,0,4.55,0A3.75,3.75,0,0,0,99,22a7.71,7.71,0,0,0,.54-3.11V9.83h5.77V20.38Z" transform="translate(0.05 0.06)"/><path class="cls-1" d="M125.38,15.84a6.19,6.19,0,0,1-.36,2.08,5.79,5.79,0,0,1-1.18,1.89,6,6,0,0,1-2.2,1.42,8.94,8.94,0,0,1-3.26.54H114.6v7.17h-5.76V9.83h9.54a8.93,8.93,0,0,1,3.26.55,5.93,5.93,0,0,1,2.2,1.44A5.77,5.77,0,0,1,125,13.73,6.41,6.41,0,0,1,125.38,15.84Zm-5.87,0A2,2,0,0,0,118.7,14a5.91,5.91,0,0,0-2.88-.5H114.6v4.61h1.24a10.36,10.36,0,0,0,2.21-.18,1.8,1.8,0,0,0,1.12-.67A2.36,2.36,0,0,0,119.51,15.87Z" transform="translate(0.05 0.06)"/><path class="cls-1" d="M148,19.37a10,10,0,0,1-1.24,4.93,9,9,0,0,1-3.67,3.57,12.35,12.35,0,0,1-5.94,1.32,12.1,12.1,0,0,1-6-1.38,9,9,0,0,1-3.64-3.62,10.32,10.32,0,0,1,0-9.64,8.88,8.88,0,0,1,3.65-3.61,12.21,12.21,0,0,1,6-1.37,13.12,13.12,0,0,1,4.72.79,9.35,9.35,0,0,1,3.41,2.13,9,9,0,0,1,2,3.13A10.31,10.31,0,0,1,148,19.37Zm-5.88,0a5.84,5.84,0,0,0-.31-2,4.22,4.22,0,0,0-1-1.55,4.64,4.64,0,0,0-1.57-1,5.8,5.8,0,0,0-2.13-.36,4.62,4.62,0,0,0-5,4.89,4.63,4.63,0,0,0,5,4.91,5.42,5.42,0,0,0,2.7-.63,4.17,4.17,0,0,0,1.7-1.73A5.5,5.5,0,0,0,142.16,19.37Z" transform="translate(0.05 0.06)"/><path class="cls-1" d="M175.14,27.51a14.42,14.42,0,0,1-2.43,1,15.68,15.68,0,0,1-2.5.53,20.26,20.26,0,0,1-2.62.16,13.53,13.53,0,0,1-4.47-.69,9.76,9.76,0,0,1-3.43-2,8.63,8.63,0,0,1-2.18-3.15,10.52,10.52,0,0,1-.72-3.95,10.25,10.25,0,0,1,.85-4.32A8.46,8.46,0,0,1,160,12a10.23,10.23,0,0,1,3.5-1.81,14.5,14.5,0,0,1,4.15-.59A22.38,22.38,0,0,1,175.05,11v5.07a19.79,19.79,0,0,0-2.8-1.46A8.18,8.18,0,0,0,169,14a7.43,7.43,0,0,0-3.12.66,5.78,5.78,0,0,0-2.33,1.89,4.77,4.77,0,0,0-.88,2.87,4.85,4.85,0,0,0,.77,2.65A5.58,5.58,0,0,0,165.58,24a6.64,6.64,0,0,0,3.09.71,10.13,10.13,0,0,0,2.63-.34,12.7,12.7,0,0,0,2.09-.75c.57-.28,1.15-.61,1.75-1v4.84Z" transform="translate(0.05 0.06)"/><path class="cls-1" d="M219.16,28.94H213l-1.5-3.39A13.93,13.93,0,0,0,210,22.83a3.17,3.17,0,0,0-1.29-1.11,4.61,4.61,0,0,0-1.62-.24h-.65v7.46h-5.76V9.83h9.8a7.16,7.16,0,0,1,3.89,1,5.81,5.81,0,0,1,2.19,2.34,6.07,6.07,0,0,1,.66,2.62,5,5,0,0,1-.55,2.45,4.65,4.65,0,0,1-1.18,1.45,10.45,10.45,0,0,1-1.4.87,5.55,5.55,0,0,1,1.53,1.28,15.89,15.89,0,0,1,1.63,3Zm-7.83-13.07a2,2,0,0,0-.87-1.85,5.7,5.7,0,0,0-2.82-.52h-1.22v4.61h1.24a6.17,6.17,0,0,0,2.89-.47A1.88,1.88,0,0,0,211.33,15.87Z" transform="translate(0.05 0.06)"/><path class="cls-1" d="M234.15,23.38a5.24,5.24,0,0,1-.92,3.11,5.77,5.77,0,0,1-2.55,2,9.49,9.49,0,0,1-3.77.7c-.39,0-.88,0-1.45-.08a16.14,16.14,0,0,1-2.29-.42,18.06,18.06,0,0,1-3-1V23a20,20,0,0,0,2.85,1.49,7.51,7.51,0,0,0,3,.59,2.66,2.66,0,0,0,1.91-.48,1.45,1.45,0,0,0,.43-.92,1.54,1.54,0,0,0-.75-1.3,10.12,10.12,0,0,0-2.16-1.1,16.9,16.9,0,0,1-2.76-1.44,6.52,6.52,0,0,1-1.93-1.95A5,5,0,0,1,220,15.1a5.3,5.3,0,0,1,.75-2.79,5.35,5.35,0,0,1,2.32-2,8.88,8.88,0,0,1,3.8-.74,13.06,13.06,0,0,1,3,.31,12.74,12.74,0,0,1,2.24.7,8.84,8.84,0,0,1,1.21.6v4.48a15.62,15.62,0,0,0-2.61-1.5,7.31,7.31,0,0,0-3.08-.66,2.43,2.43,0,0,0-1.56.41,1.31,1.31,0,0,0-.48,1,1.26,1.26,0,0,0,.48,1,8.44,8.44,0,0,0,1.73,1,35.82,35.82,0,0,1,3.53,1.86,6.84,6.84,0,0,1,2.07,1.91A4.61,4.61,0,0,1,234.15,23.38Z" transform="translate(0.05 0.06)"/><path class="cls-1" d="M251.48,28.94h-14.4V9.83h14.17v3.84h-8.41v3.5h8V21h-8v4.08h8.64Z" transform="translate(0.05 0.06)"/><path class="cls-1" d="M271.46,27.51a14,14,0,0,1-2.42,1,15.68,15.68,0,0,1-2.5.53,20.26,20.26,0,0,1-2.62.16,13.53,13.53,0,0,1-4.47-.69,9.76,9.76,0,0,1-3.43-2,8.63,8.63,0,0,1-2.18-3.15,10.52,10.52,0,0,1-.72-3.95,10.25,10.25,0,0,1,.85-4.32A8.46,8.46,0,0,1,256.36,12a10.23,10.23,0,0,1,3.5-1.81A14.45,14.45,0,0,1,264,9.57,22.43,22.43,0,0,1,271.38,11v5.07a19.79,19.79,0,0,0-2.8-1.46,8.18,8.18,0,0,0-3.26-.59,7.43,7.43,0,0,0-3.12.66,5.71,5.71,0,0,0-2.33,1.89,4.77,4.77,0,0,0-.88,2.87,4.85,4.85,0,0,0,.77,2.65A5.62,5.62,0,0,0,261.9,24a6.71,6.71,0,0,0,3.1.71,10.13,10.13,0,0,0,2.63-.34,12.7,12.7,0,0,0,2.09-.75c.57-.28,1.15-.61,1.75-1v4.84Z" transform="translate(0.05 0.06)"/><path class="cls-1" d="M197.38,15.62a9,9,0,0,0-2-3.13,9.35,9.35,0,0,0-3.41-2.13,13.16,13.16,0,0,0-4.72-.79,12.22,12.22,0,0,0-6,1.37,8.91,8.91,0,0,0-3.64,3.61,10.34,10.34,0,0,0,0,9.63,9,9,0,0,0,3.65,3.63,10.78,10.78,0,0,0,3.63,1.2V21.6a6,6,0,0,1,4.49-5.91s1.15,5.59-3.75,7.53v5.89c.52.05,1.06.08,1.62.08a12.25,12.25,0,0,0,5.95-1.33,8.9,8.9,0,0,0,3.67-3.57,10.06,10.06,0,0,0,1.23-4.92A10.1,10.1,0,0,0,197.38,15.62Z" transform="translate(0.05 0.06)"/></g></g></svg>