<?xml version="1.0" encoding="utf-8"?>
<!-- Generator: Adobe Illustrator 24.2.0, SVG Export Plug-In . SVG Version: 6.00 Build 0)  -->
<svg version="1.1" id="Capa_1" xmlns="http://www.w3.org/2000/svg" xmlns:xlink="http://www.w3.org/1999/xlink" x="0px" y="0px"
	 viewBox="0 0 280 120" style="enable-background:new 0 0 280 120;" xml:space="preserve">
<style type="text/css">
	.st0{clip-path:url(#SVGID_2_);}
	.st1{fill:#FFFFFF;}
	.st2{opacity:0.7;fill:#FFFFFF;enable-background:new    ;}
	.st3{fill:#34D9C3;}
	.st4{fill:none;stroke:#FFFFFF;stroke-miterlimit:10;}
	.st5{fill:#254596;stroke:#254596;stroke-miterlimit:10;}
</style>
<g>
	<g>
		<g>
			<g>
				<defs>
					<circle id="SVGID_1_" cx="23.3" cy="60" r="19"/>
				</defs>
				<use xlink:href="#SVGID_1_"  style="overflow:visible;fill:#FFFFFF;"/>
				<clipPath id="SVGID_2_">
					<use xlink:href="#SVGID_1_"  style="overflow:visible;"/>
				</clipPath>
				<g class="st0">
					<path class="st1" d="M19.3,68.3c1.2,1.6,1.7,3.2,1.8,3.6c0.9-1.2,1.9-2.1,2.9-2.7C22.7,68.6,21.1,68.2,19.3,68.3z"/>
					<path class="st1" d="M11.9,74.9c-0.8-0.4-1.5-1-2.1-1.5c0,0,0,0,0,0c0,0,3.7,3.9,8.5,4.9c0.2-1,0.5-1.8,0.8-2.6
						C15.7,77,11.9,74.9,11.9,74.9z"/>
					<path class="st1" d="M34.8,71.4c-0.5,3.6-4.3,5.9-4.3,5.9c-0.7,0.5-1.5,0.8-2.4,1.1c0,0,0,0,0,0c0,0,5.2-1.2,8.6-4.9
						C36,72.7,35.3,72.1,34.8,71.4z"/>
					<path class="st1" d="M28.5,67.6c2.2-0.3,4,0.2,4.1,0.2c-0.6-1.4-0.9-2.7-0.9-3.9C30.5,64.8,29.3,66,28.5,67.6z"/>
					<path class="st1" d="M41.6,54.9c0,0.1,0,0.1,0,0.1c-1,0.3-1.9,0.5-2.7,0.6c2.9,2.2,3,6.7,3,6.7c0,0.9-0.1,1.7-0.3,2.6
						c0,0,0,0,0,0C41.6,64.9,43.2,59.7,41.6,54.9z"/>
					<path class="st1" d="M32.5,59.2c0.9-2.1,2.1-3.3,2.2-3.4c-1.5-0.2-2.8-0.6-3.8-1.1C31.1,56.1,31.5,57.7,32.5,59.2z"/>
					<path class="st1" d="M18,52.4c-2,0.2-3.6-0.1-4-0.2c0.6,1.4,0.9,2.6,0.9,3.8C16,55.2,17.2,54,18,52.4z"/>
					<path class="st1" d="M9.8,46.6c0.7,0.6,1.3,1.3,1.8,1.9c0.5-3.5,4.3-5.8,4.3-5.8c0.6-0.4,1.3-0.7,2-0.9
						c-1.4,0.4-5.5,1.8-8.3,5.1C9.7,46.7,9.8,46.6,9.8,46.6z"/>
					<path class="st1" d="M11.9,64.1c1.5,0.2,2.7,0.6,3.8,1.1c-0.2-1.4-0.6-3-1.6-4.5C13.3,62.5,12.2,63.7,11.9,64.1z"/>
					<path class="st1" d="M4.6,57.7c0-0.9,0.1-1.8,0.3-2.6c0,0,0,0,0,0c0,0-1.5,5.1,0,9.8c0.9-0.3,1.8-0.5,2.6-0.6
						C4.7,62,4.6,57.7,4.6,57.7z"/>
					<path class="st1" d="M27.2,51.6c-1.3-1.7-1.8-3.4-1.9-3.6c-0.9,1.2-1.9,2.1-2.9,2.8C23.8,51.3,25.4,51.7,27.2,51.6z"/>
					<path class="st1" d="M27.3,44.2c3.4-1.4,7.2,0.7,7.2,0.7c0.6,0.4,1.2,0.8,1.8,1.2c-1-1-4.4-3.9-8.6-4.7
						c0.2,0.1,0.4,0.1,0.4,0.1C27.9,42.6,27.6,43.4,27.3,44.2z"/>
					<path class="st1" d="M11.8,71.5C8.2,71,6,67.3,6,67.3c-0.5-0.8-0.8-1.6-1.1-2.4c0,0,0,0,0,0c0,0,1.2,5.1,4.9,8.5
						C10.5,72.7,11.1,72.1,11.8,71.5z"/>
					<path class="st2" d="M19.1,75.7c0.6-1.6,1.3-2.8,2-3.8c-0.1-0.4-0.6-1.9-1.8-3.6c-1.2,0.1-2.5,0.3-3.8,0.9
						c-1.2,0.5-2.4,1.3-3.7,2.3c-0.6,0.5-1.3,1.2-2,1.9c0.6,0.6,1.3,1.1,2.1,1.5C11.9,74.9,15.7,77,19.1,75.7z"/>
					<path class="st2" d="M11.8,71.5c1.3-1.1,2.5-1.8,3.7-2.3c0.1-0.4,0.4-2,0.2-4c-1.1-0.5-2.3-1-3.8-1.1c-1.3-0.2-2.7-0.1-4.4,0.2
						c-0.8,0.1-1.7,0.3-2.6,0.6c0.3,0.8,0.6,1.6,1.1,2.4C6,67.3,8.2,71,11.8,71.5z"/>
					<path class="st1" d="M20.9,78.6c-0.9,0-1.8-0.1-2.6-0.2c0,0,0,0,0,0c0,0,5.2,1.5,9.9,0c-0.3-1-0.5-1.8-0.6-2.7
						C25.3,78.5,20.9,78.6,20.9,78.6z"/>
					<path class="st2" d="M20.9,78.6c0,0,4.4-0.1,6.6-2.9c-0.3-1.6-0.3-3-0.2-4.3c-0.2-0.2-1.5-1.4-3.4-2.2c-1,0.6-2,1.5-2.9,2.7
						c-0.8,1-1.5,2.3-2,3.8c-0.3,0.8-0.6,1.7-0.8,2.6C19.1,78.5,20,78.6,20.9,78.6z"/>
					<path class="st2" d="M34.8,71.4c-1-1.2-1.7-2.4-2.2-3.6c-0.1,0-1.8-0.5-4.1-0.2c-0.5,1.1-1,2.3-1.1,3.8
						c-0.1,1.3-0.1,2.7,0.2,4.3c0.1,0.8,0.4,1.7,0.6,2.7c0.8-0.3,1.6-0.6,2.4-1.1C30.5,77.3,34.3,75,34.8,71.4z"/>
					<path class="st1" d="M38.2,71.3c-0.4,0.8-0.9,1.5-1.5,2.1c0,0,0,0,0,0c0,0,3.9-3.6,4.9-8.6c-1-0.2-1.9-0.5-2.7-0.8
						C40.3,67.4,38.2,71.3,38.2,71.3z"/>
					<path class="st2" d="M39,64.1c-1.5-0.6-2.7-1.2-3.7-1.9c0,0,0,0,0,0c0,0-1.8,0.5-3.6,1.8c0.1,1.2,0.3,2.5,0.9,3.9
						c0.5,1.1,1.2,2.3,2.2,3.6c0.6,0.7,1.2,1.4,1.9,2.1c0.6-0.6,1.1-1.3,1.5-2.1C38.2,71.3,40.3,67.4,39,64.1z"/>
					<path class="st2" d="M38.9,55.7c-1.6,0.3-3,0.3-4.2,0.2c-0.1,0.1-1.3,1.3-2.2,3.4c0.7,1,1.6,2,2.8,2.9c1,0.7,2.2,1.4,3.7,1.9
						c0.8,0.3,1.7,0.6,2.7,0.8c0.2-0.8,0.3-1.7,0.3-2.6C41.9,62.3,41.8,57.9,38.9,55.7z"/>
					<path class="st1" d="M36.7,46.5c-0.7,0.7-1.3,1.3-2,1.9c3.6,0.5,5.9,4.3,5.9,4.3c0.4,0.7,0.8,1.5,1,2.2
						c-0.2-0.9-1.6-5.6-5.2-8.7C36.6,46.4,36.7,46.5,36.7,46.5z"/>
					<path class="st2" d="M34.7,48.4c-1.2,1-2.4,1.8-3.6,2.3c-0.1,0.2-0.5,1.9-0.2,4.1c1.1,0.5,2.3,1,3.8,1.1
						c1.2,0.1,2.6,0.1,4.2-0.2c0.9-0.1,1.8-0.4,2.7-0.6c0,0,0-0.1,0-0.1c-0.3-0.8-0.6-1.5-1-2.2C40.6,52.7,38.3,48.9,34.7,48.4z"/>
					<path class="st2" d="M27.3,44.2c-0.6,1.5-1.2,2.7-2,3.8c0.1,0.3,0.6,1.9,1.9,3.6c1.2-0.1,2.5-0.3,3.9-1
						c1.1-0.5,2.3-1.2,3.6-2.3c0.7-0.5,1.3-1.2,2-1.9c0,0-0.1-0.1-0.3-0.3c-0.5-0.5-1.1-0.9-1.8-1.2C34.6,45,30.7,42.8,27.3,44.2z"
						/>
					<path class="st1" d="M8.2,48.7c0.4-0.7,0.8-1.3,1.3-1.9c-0.9,0.9-3.7,4.1-4.6,8.2c0.9,0.2,1.8,0.5,2.5,0.8
						C6.2,52.5,8.2,48.7,8.2,48.7z"/>
					<path class="st2" d="M7.5,55.8c1.6,0.6,2.9,1.3,3.9,2c0.5-0.1,2-0.7,3.6-1.9c-0.1-1.2-0.3-2.5-0.9-3.8
						c-0.5-1.2-1.3-2.4-2.3-3.7c-0.5-0.6-1.1-1.3-1.8-1.9c0,0-0.1,0.1-0.3,0.3c-0.5,0.6-0.9,1.2-1.3,1.9C8.2,48.7,6.2,52.5,7.5,55.8
						z"/>
					<path class="st2" d="M7.5,64.3c1.6-0.3,3.1-0.3,4.4-0.2c0.3-0.3,1.4-1.5,2.2-3.4c-0.6-1-1.5-2-2.7-2.9c-1-0.8-2.3-1.5-3.9-2
						c-0.8-0.3-1.6-0.5-2.5-0.8c-0.2,0.8-0.3,1.7-0.3,2.6C4.6,57.7,4.7,62,7.5,64.3z"/>
					<path class="st1" d="M18.9,44.2c2.2-2.8,6.6-2.9,6.6-2.9c0.8,0,1.5,0.1,2.2,0.2c-1.3-0.3-5.8-1.3-9.9,0.2
						c0.3-0.1,0.5-0.1,0.5-0.1C18.6,42.6,18.8,43.4,18.9,44.2z"/>
					<path class="st2" d="M11.6,48.5c1.1,1.3,1.8,2.5,2.3,3.7c0.5,0.1,2,0.4,4,0.2c0.5-1.1,0.9-2.3,1.1-3.8c0.1-1.3,0.1-2.7-0.2-4.3
						c-0.1-0.8-0.3-1.7-0.6-2.6c0,0-0.2,0-0.5,0.1c-0.7,0.2-1.3,0.5-2,0.9C15.9,42.7,12.2,44.9,11.6,48.5z"/>
					<path class="st2" d="M18.9,44.2c0.3,1.6,0.3,3,0.2,4.3c0.3,0.3,1.5,1.4,3.4,2.2c1-0.7,2-1.6,2.9-2.8c0.7-1,1.4-2.3,2-3.8
						c0.3-0.8,0.6-1.7,0.8-2.6c0,0-0.1,0-0.4-0.1c-0.7-0.1-1.5-0.2-2.2-0.2C25.5,41.3,21.2,41.4,18.9,44.2z"/>
					<path class="st3" d="M41.9,62.3c0,0-0.1-4.4-3-6.7c0.9-0.1,1.8-0.4,2.7-0.6c0,0,0-0.1,0-0.1c-0.3-0.8-0.6-1.5-1-2.2
						c0,0-2.3-3.8-5.9-4.3c0.7-0.5,1.3-1.2,2-1.9c0,0-0.1-0.1-0.3-0.3c-0.5-0.5-1.1-0.9-1.8-1.2c0,0-3.9-2.1-7.2-0.7
						c0.3-0.8,0.6-1.7,0.8-2.6c0,0-0.1,0-0.4-0.1c-0.7-0.1-1.5-0.2-2.2-0.2c0,0-4.4,0.1-6.6,2.9c-0.1-0.8-0.3-1.7-0.6-2.6
						c0,0-0.2,0-0.5,0.1c-0.7,0.2-1.3,0.5-2,0.9c0,0-3.7,2.3-4.3,5.8c-0.5-0.6-1.1-1.3-1.8-1.9c0,0-0.1,0.1-0.3,0.3
						c-0.5,0.6-0.9,1.2-1.3,1.9c0,0-2.1,3.8-0.8,7.1c-0.8-0.3-1.6-0.5-2.5-0.8c-0.2,0.8-0.3,1.7-0.3,2.6c0,0,0.1,4.3,2.9,6.6
						c-0.8,0.1-1.7,0.3-2.6,0.6c0.3,0.8,0.6,1.6,1.1,2.4c0,0,2.2,3.7,5.8,4.2c-0.6,0.5-1.3,1.2-2,1.9c0.6,0.6,1.3,1.1,2.1,1.5
						c0,0,3.8,2.1,7.1,0.8c-0.3,0.8-0.6,1.7-0.8,2.6c0.8,0.2,1.7,0.3,2.6,0.2c0,0,4.4-0.1,6.6-2.9c0.1,0.8,0.4,1.7,0.6,2.7
						c0.8-0.3,1.6-0.6,2.4-1.1c0,0,3.8-2.3,4.3-5.9c0.6,0.7,1.2,1.4,1.9,2.1c0.6-0.6,1.1-1.3,1.5-2.1c0,0,2.1-3.9,0.7-7.3
						c0.8,0.3,1.7,0.6,2.7,0.8C41.8,64.1,41.9,63.2,41.9,62.3z M35.2,62.1c0,0-1.8,0.5-3.6,1.8c0.1,1.2,0.3,2.5,0.9,3.9
						c-0.1,0-1.8-0.5-4.1-0.2c-0.5,1.1-1,2.3-1.1,3.8c-0.2-0.2-1.5-1.4-3.4-2.2c-1,0.6-2,1.5-2.9,2.7c-0.1-0.4-0.6-1.9-1.8-3.6
						c-1.2,0.1-2.5,0.3-3.8,0.9c0.1-0.4,0.4-2,0.2-4c-1.1-0.5-2.3-1-3.8-1.1c0.3-0.3,1.4-1.5,2.2-3.4c-0.6-1-1.5-2-2.7-2.9
						c0.5-0.1,2-0.7,3.6-1.9c-0.1-1.2-0.3-2.5-0.9-3.8c0.5,0.1,2,0.4,4,0.2c0.5-1.1,0.9-2.3,1.1-3.8c0.3,0.3,1.5,1.4,3.4,2.2
						c1-0.7,2-1.6,2.9-2.8c0.1,0.3,0.6,1.9,1.9,3.6c1.2-0.1,2.5-0.3,3.9-1c-0.1,0.2-0.5,1.9-0.2,4.1c1.1,0.5,2.3,1,3.8,1.1
						c-0.1,0.1-1.3,1.3-2.2,3.4C33.2,60.3,34,61.2,35.2,62.1C35.3,62.1,35.2,62.1,35.2,62.1z"/>
					<path class="st4" d="M27.2,51.6c-1.8,0.1-3.4-0.3-4.7-0.9c-1.5,1-3.1,1.4-4.5,1.6c-0.8,1.6-2,2.8-3.1,3.6
						c0.1,1.8-0.3,3.4-0.9,4.7c1,1.5,1.4,3.1,1.6,4.5c1.6,0.8,2.8,2,3.6,3.1c1.8-0.1,3.4,0.3,4.7,0.9c1.5-1,3.1-1.4,4.5-1.6
						c0.8-1.6,2-2.8,3.1-3.6c-0.1-1.8,0.3-3.4,0.9-4.7c-1-1.5-1.4-3.1-1.6-4.5C29.3,53.9,28.1,52.7,27.2,51.6z"/>
					<path class="st1" d="M15.7,65.2c0.2,2-0.1,3.6-0.2,4c1.3-0.6,2.6-0.8,3.8-0.9C18.4,67.2,17.3,66,15.7,65.2z"/>
					<path class="st1" d="M27.4,71.4c0.2-1.5,0.6-2.7,1.1-3.8c-1.4,0.2-3,0.6-4.5,1.6C25.9,70,27.1,71.1,27.4,71.4z"/>
					<path class="st1" d="M31.6,64c1.9-1.4,3.6-1.8,3.6-1.8c0,0,0,0,0,0c-1.2-0.9-2.1-1.9-2.8-2.9C31.9,60.5,31.5,62.1,31.6,64z"/>
					<path class="st1" d="M30.9,54.7c-0.3-2.2,0.2-3.8,0.2-4.1c-1.4,0.6-2.7,0.9-3.9,1C28.1,52.7,29.3,53.9,30.9,54.7z"/>
					<path class="st1" d="M14.9,56c-1.6,1.2-3.1,1.7-3.6,1.9c1.2,0.9,2.1,1.9,2.7,2.9C14.6,59.4,15,57.8,14.9,56z"/>
					<path class="st1" d="M19.1,48.6c-0.2,1.5-0.6,2.7-1.1,3.8c1.4-0.2,3-0.6,4.5-1.6C20.6,49.9,19.4,48.8,19.1,48.6z"/>
				</g>
				<g class="st0">
					<path class="st1" d="M19.3,68.3c1.2,1.6,1.7,3.2,1.8,3.6c0.9-1.2,1.9-2.1,2.9-2.7C22.7,68.7,21.1,68.2,19.3,68.3z"/>
					<path class="st1" d="M11.9,75c-0.8-0.4-1.5-1-2.1-1.5c0,0,0,0,0,0c0,0,3.7,3.9,8.5,4.9c0.2-1,0.5-1.8,0.8-2.6
						C15.7,77,11.9,75,11.9,75z"/>
					<path class="st1" d="M34.8,71.4c-0.5,3.6-4.3,5.9-4.3,5.9c-0.7,0.5-1.5,0.8-2.4,1.1c0,0,0,0,0,0c0,0,5.2-1.2,8.6-4.9
						C36,72.8,35.3,72.1,34.8,71.4z"/>
					<path class="st1" d="M28.5,67.6c2.2-0.3,4,0.2,4.1,0.2c-0.6-1.4-0.9-2.7-0.9-3.9C30.5,64.8,29.3,66,28.5,67.6z"/>
					<path class="st1" d="M41.6,54.9c0,0.1,0,0.1,0,0.1c-1,0.3-1.9,0.5-2.7,0.6c2.9,2.2,3,6.7,3,6.7c0,0.9-0.1,1.7-0.3,2.6
						c0,0,0,0,0,0C41.6,64.9,43.2,59.7,41.6,54.9z"/>
					<path class="st1" d="M32.5,59.3c0.9-2.1,2.1-3.3,2.2-3.4c-1.5-0.2-2.8-0.6-3.8-1.1C31.1,56.1,31.5,57.7,32.5,59.3z"/>
					<path class="st1" d="M18,52.4c-2,0.2-3.6-0.1-4-0.2c0.6,1.4,0.9,2.6,0.9,3.8C16,55.2,17.2,54,18,52.4z"/>
					<path class="st1" d="M9.8,46.6c0.7,0.6,1.3,1.3,1.8,1.9c0.5-3.5,4.3-5.8,4.3-5.8c0.6-0.4,1.3-0.7,2-0.9
						c-1.4,0.4-5.5,1.8-8.3,5.1C9.7,46.7,9.8,46.6,9.8,46.6z"/>
					<path class="st1" d="M11.9,64.1c1.5,0.2,2.7,0.6,3.8,1.1c-0.2-1.4-0.6-3-1.6-4.5C13.3,62.6,12.2,63.8,11.9,64.1z"/>
					<path class="st1" d="M4.6,57.7c0-0.9,0.1-1.8,0.3-2.6c0,0,0,0,0,0c0,0-1.5,5.1,0,9.8c0.9-0.3,1.8-0.5,2.6-0.6
						C4.7,62,4.6,57.7,4.6,57.7z"/>
					<path class="st1" d="M27.2,51.6c-1.3-1.7-1.8-3.4-1.9-3.6c-0.9,1.2-1.9,2.1-2.9,2.8C23.8,51.3,25.4,51.7,27.2,51.6z"/>
					<path class="st1" d="M27.3,44.2c3.4-1.4,7.2,0.7,7.2,0.7c0.6,0.4,1.2,0.8,1.8,1.2c-1-1-4.4-3.9-8.6-4.7
						c0.2,0.1,0.4,0.1,0.4,0.1C27.9,42.6,27.6,43.4,27.3,44.2z"/>
					<path class="st1" d="M11.8,71.6C8.2,71,6,67.3,6,67.3c-0.5-0.8-0.8-1.6-1.1-2.4c0,0,0,0,0,0c0,0,1.2,5.1,4.9,8.5
						C10.5,72.7,11.1,72.1,11.8,71.6z"/>
					<path class="st2" d="M19.1,75.7c0.6-1.6,1.3-2.8,2-3.8c-0.1-0.4-0.6-1.9-1.8-3.6c-1.2,0.1-2.5,0.3-3.8,0.9
						c-1.2,0.5-2.4,1.3-3.7,2.3c-0.6,0.5-1.3,1.2-2,1.9c0.6,0.6,1.3,1.1,2.1,1.5C11.9,75,15.7,77,19.1,75.7z"/>
					<path class="st2" d="M11.8,71.6c1.3-1.1,2.5-1.8,3.7-2.3c0.1-0.4,0.4-2,0.2-4c-1.1-0.5-2.3-1-3.8-1.1C10.6,64,9.1,64,7.5,64.3
						c-0.8,0.1-1.7,0.3-2.6,0.6c0.3,0.8,0.6,1.6,1.1,2.4C6,67.3,8.2,71,11.8,71.6z"/>
					<path class="st1" d="M20.9,78.6c-0.9,0-1.8-0.1-2.6-0.2c0,0,0,0,0,0c0,0,5.2,1.5,9.9,0c-0.3-1-0.5-1.8-0.6-2.7
						C25.3,78.5,20.9,78.6,20.9,78.6z"/>
					<path class="st2" d="M20.9,78.6c0,0,4.4-0.1,6.6-2.9c-0.3-1.6-0.3-3-0.2-4.3c-0.2-0.2-1.5-1.4-3.4-2.2c-1,0.6-2,1.5-2.9,2.7
						c-0.8,1-1.5,2.3-2,3.8c-0.3,0.8-0.6,1.7-0.8,2.6C19.1,78.6,20,78.6,20.9,78.6z"/>
					<path class="st2" d="M34.8,71.4c-1-1.2-1.7-2.4-2.2-3.6c-0.1,0-1.8-0.5-4.1-0.2c-0.5,1.1-1,2.3-1.1,3.8
						c-0.1,1.3-0.1,2.7,0.2,4.3c0.1,0.8,0.4,1.7,0.6,2.7c0.8-0.3,1.6-0.6,2.4-1.1C30.5,77.3,34.3,75,34.8,71.4z"/>
					<path class="st1" d="M38.2,71.4c-0.4,0.8-0.9,1.5-1.5,2.1c0,0,0,0,0,0c0,0,3.9-3.6,4.9-8.6c-1-0.2-1.9-0.5-2.7-0.8
						C40.3,67.5,38.2,71.4,38.2,71.4z"/>
					<path class="st2" d="M38.9,64.1c-1.5-0.6-2.7-1.2-3.7-1.9c0,0,0,0,0,0c0,0-1.8,0.5-3.6,1.8c0.1,1.2,0.3,2.5,0.9,3.9
						c0.5,1.1,1.2,2.3,2.2,3.6c0.6,0.7,1.2,1.4,1.9,2.1c0.6-0.6,1.1-1.3,1.5-2.1C38.2,71.4,40.3,67.5,38.9,64.1z"/>
					<path class="st2" d="M38.9,55.7c-1.6,0.3-3,0.3-4.2,0.2c-0.1,0.1-1.3,1.3-2.2,3.4c0.7,1,1.6,2,2.8,2.9c1,0.7,2.2,1.4,3.7,1.9
						c0.8,0.3,1.7,0.6,2.7,0.8c0.2-0.8,0.3-1.7,0.3-2.6C41.9,62.3,41.8,57.9,38.9,55.7z"/>
					<path class="st1" d="M36.7,46.5c-0.7,0.7-1.3,1.3-2,1.9c3.6,0.5,5.9,4.3,5.9,4.3c0.4,0.7,0.8,1.5,1,2.2
						c-0.2-0.9-1.6-5.6-5.2-8.7C36.5,46.4,36.7,46.5,36.7,46.5z"/>
					<path class="st2" d="M34.7,48.4c-1.2,1-2.4,1.8-3.6,2.3c-0.1,0.2-0.5,1.9-0.2,4.1c1.1,0.5,2.3,1,3.8,1.1
						c1.2,0.1,2.6,0.1,4.2-0.2c0.9-0.1,1.8-0.4,2.7-0.6c0,0,0-0.1,0-0.1c-0.3-0.8-0.6-1.5-1-2.2C40.6,52.7,38.3,48.9,34.7,48.4z"/>
					<path class="st2" d="M27.3,44.2c-0.6,1.5-1.2,2.7-2,3.8c0.1,0.3,0.6,1.9,1.9,3.6c1.2-0.1,2.5-0.3,3.9-1
						c1.1-0.5,2.3-1.2,3.6-2.3c0.7-0.5,1.3-1.2,2-1.9c0,0-0.1-0.1-0.3-0.3c-0.5-0.5-1.1-0.9-1.8-1.2C34.6,45,30.7,42.9,27.3,44.2z"
						/>
					<path class="st1" d="M8.2,48.7c0.4-0.7,0.8-1.3,1.3-1.9c-0.9,0.9-3.7,4.1-4.6,8.2c0.9,0.2,1.8,0.5,2.5,0.8
						C6.2,52.5,8.2,48.7,8.2,48.7z"/>
					<path class="st2" d="M7.4,55.8c1.6,0.6,2.9,1.3,3.9,2c0.5-0.1,2-0.7,3.6-1.9c-0.1-1.2-0.3-2.5-0.9-3.8
						c-0.5-1.2-1.3-2.4-2.3-3.7c-0.5-0.6-1.1-1.3-1.8-1.9c0,0-0.1,0.1-0.3,0.3c-0.5,0.6-0.9,1.2-1.3,1.9C8.2,48.7,6.2,52.5,7.4,55.8
						z"/>
					<path class="st2" d="M7.5,64.3c1.6-0.3,3.1-0.3,4.4-0.2c0.3-0.3,1.4-1.5,2.2-3.4c-0.6-1-1.5-2-2.7-2.9c-1-0.8-2.3-1.5-3.9-2
						c-0.8-0.3-1.6-0.5-2.5-0.8c-0.2,0.8-0.3,1.7-0.3,2.6C4.6,57.7,4.7,62,7.5,64.3z"/>
					<path class="st1" d="M18.9,44.3c2.2-2.8,6.6-2.9,6.6-2.9c0.8,0,1.5,0.1,2.2,0.2c-1.3-0.3-5.8-1.3-9.9,0.2
						c0.3-0.1,0.5-0.1,0.5-0.1C18.6,42.6,18.8,43.5,18.9,44.3z"/>
					<path class="st2" d="M11.6,48.5c1.1,1.3,1.8,2.5,2.3,3.7c0.5,0.1,2,0.4,4,0.2c0.5-1.1,0.9-2.3,1.1-3.8c0.1-1.3,0.1-2.7-0.2-4.3
						c-0.1-0.8-0.3-1.7-0.6-2.6c0,0-0.2,0-0.5,0.1c-0.7,0.2-1.3,0.5-2,0.9C15.9,42.7,12.2,45,11.6,48.5z"/>
					<path class="st2" d="M18.9,44.3c0.3,1.6,0.3,3,0.2,4.3c0.3,0.3,1.5,1.4,3.4,2.2c1-0.7,2-1.6,2.9-2.8c0.7-1,1.4-2.3,2-3.8
						c0.3-0.8,0.6-1.7,0.8-2.6c0,0-0.1,0-0.4-0.1c-0.7-0.1-1.5-0.2-2.2-0.2C25.5,41.3,21.1,41.4,18.9,44.3z"/>
					<path class="st1" d="M41.9,62.3c0,0-0.1-4.4-3-6.7c0.9-0.1,1.8-0.4,2.7-0.6c0,0,0-0.1,0-0.1c-0.3-0.8-0.6-1.5-1-2.2
						c0,0-2.3-3.8-5.9-4.3c0.7-0.5,1.3-1.2,2-1.9c0,0-0.1-0.1-0.3-0.3c-0.5-0.5-1.1-0.9-1.8-1.2c0,0-3.9-2.1-7.2-0.7
						c0.3-0.8,0.6-1.7,0.8-2.6c0,0-0.1,0-0.4-0.1c-0.7-0.1-1.5-0.2-2.2-0.2c0,0-4.4,0.1-6.6,2.9c-0.1-0.8-0.3-1.7-0.6-2.6
						c0,0-0.2,0-0.5,0.1c-0.7,0.2-1.3,0.5-2,0.9c0,0-3.7,2.3-4.3,5.8c-0.5-0.6-1.1-1.3-1.8-1.9c0,0-0.1,0.1-0.3,0.3
						c-0.5,0.6-0.9,1.2-1.3,1.9c0,0-2.1,3.8-0.8,7.1c-0.8-0.3-1.6-0.5-2.5-0.8c-0.2,0.8-0.3,1.7-0.3,2.6c0,0,0.1,4.3,2.9,6.6
						c-0.8,0.1-1.7,0.3-2.6,0.6c0.3,0.8,0.6,1.6,1.1,2.4c0,0,2.2,3.7,5.8,4.2c-0.6,0.5-1.3,1.2-2,1.9c0.6,0.6,1.3,1.1,2.1,1.5
						c0,0,3.8,2.1,7.1,0.8c-0.3,0.8-0.6,1.7-0.8,2.6c0.8,0.2,1.7,0.3,2.6,0.2c0,0,4.4-0.1,6.6-2.9c0.1,0.8,0.4,1.7,0.6,2.7
						c0.8-0.3,1.6-0.6,2.4-1.1c0,0,3.8-2.3,4.3-5.9c0.6,0.7,1.2,1.4,1.9,2.1c0.6-0.6,1.1-1.3,1.5-2.1c0,0,2.1-3.9,0.7-7.3
						c0.8,0.3,1.7,0.6,2.7,0.8C41.8,64.1,41.9,63.2,41.9,62.3z M35.2,62.1c0,0-1.8,0.5-3.6,1.8c0.1,1.2,0.3,2.5,0.9,3.9
						c-0.1,0-1.8-0.5-4.1-0.2c-0.5,1.1-1,2.3-1.1,3.8c-0.2-0.2-1.5-1.4-3.4-2.2c-1,0.6-2,1.5-2.9,2.7c-0.1-0.4-0.6-1.9-1.8-3.6
						c-1.2,0.1-2.5,0.3-3.8,0.9c0.1-0.4,0.4-2,0.2-4c-1.1-0.5-2.3-1-3.8-1.1c0.3-0.3,1.4-1.5,2.2-3.4c-0.6-1-1.5-2-2.7-2.9
						c0.5-0.1,2-0.7,3.6-1.9c-0.1-1.2-0.3-2.5-0.9-3.8c0.5,0.1,2,0.4,4,0.2c0.5-1.1,0.9-2.3,1.1-3.8c0.3,0.3,1.5,1.4,3.4,2.2
						c1-0.7,2-1.6,2.9-2.8c0.1,0.3,0.6,1.9,1.9,3.6c1.2-0.1,2.5-0.3,3.9-1c-0.1,0.2-0.5,1.9-0.2,4.1c1.1,0.5,2.3,1,3.8,1.1
						c-0.1,0.1-1.3,1.3-2.2,3.4C33.1,60.3,34,61.3,35.2,62.1C35.2,62.2,35.2,62.2,35.2,62.1z"/>
					<path class="st5" d="M27.2,51.6c-1.8,0.1-3.4-0.3-4.7-0.9c-1.5,1-3.1,1.4-4.5,1.6c-0.8,1.6-2,2.8-3.1,3.6
						c0.1,1.8-0.3,3.4-0.9,4.7c1,1.5,1.4,3.1,1.6,4.5c1.6,0.8,2.8,2,3.6,3.1c1.8-0.1,3.4,0.3,4.7,0.9c1.5-1,3.1-1.4,4.5-1.6
						c0.8-1.6,2-2.8,3.1-3.6c-0.1-1.8,0.3-3.4,0.9-4.7c-1-1.5-1.4-3.1-1.6-4.5C29.3,53.9,28.1,52.8,27.2,51.6z"/>
					<path class="st1" d="M15.6,65.2c0.2,2-0.1,3.6-0.2,4c1.3-0.6,2.6-0.8,3.8-0.9C18.4,67.2,17.3,66.1,15.6,65.2z"/>
					<path class="st1" d="M27.4,71.4c0.2-1.5,0.6-2.7,1.1-3.8c-1.4,0.2-3,0.6-4.5,1.6C25.9,70,27.1,71.2,27.4,71.4z"/>
					<path class="st1" d="M31.6,64c1.9-1.4,3.6-1.8,3.6-1.8c0,0,0,0,0,0c-1.2-0.9-2.1-1.9-2.8-2.9C31.9,60.6,31.5,62.2,31.6,64z"/>
					<path class="st1" d="M30.9,54.7c-0.3-2.2,0.2-3.8,0.2-4.1c-1.4,0.6-2.7,0.9-3.9,1C28.1,52.8,29.3,53.9,30.9,54.7z"/>
					<path class="st1" d="M14.9,56c-1.6,1.2-3.1,1.7-3.6,1.9c1.2,0.9,2.1,1.9,2.7,2.9C14.6,59.4,15,57.8,14.9,56z"/>
					<path class="st1" d="M19.1,48.6c-0.2,1.5-0.6,2.7-1.1,3.8c1.4-0.2,3-0.6,4.5-1.6C20.6,50,19.4,48.9,19.1,48.6z"/>
				</g>
			</g>
		</g>
	</g>
	<g>
		<g>
			<path class="st1" d="M66.4,68.6c-0.4,0.2-0.8,0.3-1.1,0.4c-0.3,0.1-0.6,0.2-0.8,0.3c-0.3,0.1-0.7,0.2-1.2,0.3
				c-0.9,0.2-1.7,0.4-2.6,0.5c-0.9,0.1-1.8,0.2-2.8,0.2c-1.9,0-3.7-0.4-5.4-1.1c-1.6-0.7-3-1.8-3.9-3.3c-1-1.5-1.5-3.3-1.5-5.5
				c0-1.4,0.3-2.8,0.8-4.1c0.5-1.3,1.3-2.4,2.3-3.2c0.9-0.7,1.7-1.2,2.6-1.5c0.9-0.4,1.8-0.6,2.6-0.7c0.8-0.1,1.8-0.2,2.8-0.2
				c1.7,0,3.1,0.1,4.2,0.4c1.1,0.3,2.3,0.6,3.6,1v4.5c-0.9-0.5-1.8-0.9-2.7-1.3s-2.2-0.5-3.6-0.5c-1.7,0-3,0.3-4,0.9
				c-1,0.6-1.7,1.4-2.1,2.3S53,59.6,53,60.4c0,1,0.2,1.9,0.7,2.7s1.1,1.5,2,2s2,0.7,3.3,0.7c0.7,0,1.5-0.1,2.3-0.3v-2.2h-2.6v-3.8
				h7.6V68.6z"/>
			<path class="st1" d="M88.4,69.9h-6.2l-1.5-3.4c-0.6-1.2-1-2.1-1.5-2.7c-0.4-0.6-0.9-0.9-1.3-1.1c-0.4-0.2-1-0.2-1.6-0.2h-0.6v7.5
				h-5.8V50.8h9.8c1.6,0,2.9,0.3,3.9,1c1,0.6,1.7,1.4,2.2,2.3c0.4,0.9,0.7,1.8,0.7,2.6c0,1-0.2,1.8-0.6,2.4
				c-0.4,0.7-0.8,1.2-1.2,1.5c-0.4,0.3-0.9,0.6-1.4,0.9c0.6,0.4,1.1,0.8,1.5,1.3c0.4,0.5,0.9,1.5,1.6,3L88.4,69.9z M80.6,56.9
				c0-0.9-0.3-1.5-0.9-1.8c-0.6-0.3-1.5-0.5-2.8-0.5h-1.2v4.6h1.2c1.4,0,2.4-0.2,2.9-0.5C80.3,58.3,80.6,57.7,80.6,56.9z"/>
			<path class="st1" d="M109.6,61.4c0,1.6-0.3,3-0.9,4.2c-0.6,1.2-1.4,2.1-2.4,2.7s-2.1,1.2-3.3,1.4c-1.2,0.3-2.3,0.4-3.5,0.4
				c-1.6,0-3.2-0.3-4.7-0.8c-1.5-0.6-2.8-1.5-3.8-2.8c-1-1.3-1.5-3-1.5-5.2V50.8h5.7v9.1c0,1.3,0.2,2.3,0.5,3.1s0.9,1.4,1.5,1.8
				c0.6,0.4,1.4,0.6,2.3,0.6c0.8,0,1.6-0.2,2.2-0.6c0.7-0.4,1.2-1,1.5-1.8s0.5-1.9,0.5-3.1v-9.1h5.8L109.6,61.4L109.6,61.4z"/>
			<path class="st1" d="M129.7,56.8c0,0.7-0.1,1.4-0.4,2.1s-0.6,1.3-1.2,1.9c-0.5,0.6-1.3,1.1-2.2,1.4c-0.9,0.4-2,0.5-3.3,0.5h-3.8
				v7.2h-5.8V50.8h9.5c1.3,0,2.3,0.2,3.3,0.6c0.9,0.4,1.7,0.8,2.2,1.4c0.5,0.6,0.9,1.2,1.2,1.9C129.5,55.4,129.7,56.1,129.7,56.8z
				 M123.8,56.9c0-0.9-0.3-1.5-0.8-1.9c-0.5-0.3-1.5-0.5-2.9-0.5h-1.2v4.6h1.2c1,0,1.7-0.1,2.2-0.2c0.5-0.1,0.9-0.3,1.1-0.7
				C123.7,57.9,123.8,57.5,123.8,56.9z"/>
			<path class="st1" d="M152.3,60.4c0,1.8-0.4,3.4-1.2,4.9c-0.8,1.5-2,2.7-3.7,3.6c-1.6,0.9-3.6,1.3-5.9,1.3c-2.4,0-4.4-0.5-6-1.4
				c-1.6-0.9-2.9-2.1-3.6-3.6c-0.8-1.5-1.2-3.1-1.2-4.8c0-1.7,0.4-3.3,1.2-4.8c0.8-1.5,2-2.7,3.6-3.6c1.6-0.9,3.6-1.4,6-1.4
				c1.8,0,3.3,0.3,4.7,0.8c1.4,0.5,2.5,1.2,3.4,2.1c0.9,0.9,1.6,1.9,2,3.1C152.1,57.8,152.3,59.1,152.3,60.4z M146.4,60.4
				c0-0.7-0.1-1.4-0.3-2c-0.2-0.6-0.5-1.1-1-1.5c-0.4-0.4-0.9-0.8-1.6-1c-0.6-0.2-1.3-0.4-2.1-0.4c-1.5,0-2.8,0.5-3.6,1.4
				s-1.3,2.1-1.3,3.5s0.4,2.6,1.3,3.6c0.9,0.9,2.1,1.4,3.6,1.4c1.1,0,2-0.2,2.7-0.6c0.7-0.4,1.3-1,1.7-1.7S146.4,61.3,146.4,60.4z"
				/>
			<path class="st1" d="M179.4,68.5c-0.8,0.4-1.6,0.7-2.4,1c-0.8,0.2-1.7,0.4-2.5,0.5c-0.8,0.1-1.7,0.2-2.6,0.2
				c-1.7,0-3.2-0.2-4.5-0.7c-1.3-0.5-2.5-1.1-3.4-2c-1-0.9-1.7-1.9-2.2-3.1c-0.5-1.2-0.7-2.5-0.7-3.9c0-1.6,0.3-3.1,0.9-4.3
				c0.6-1.2,1.4-2.3,2.4-3.1c1-0.8,2.2-1.4,3.5-1.8c1.3-0.4,2.7-0.6,4.1-0.6c2.2,0,4.6,0.5,7.4,1.4v5.1c-0.9-0.6-1.9-1.1-2.8-1.5
				s-2-0.6-3.3-0.6c-1.1,0-2.2,0.2-3.1,0.7c-1,0.4-1.7,1.1-2.3,1.9c-0.6,0.8-0.9,1.8-0.9,2.9c0,1,0.3,1.8,0.8,2.7
				c0.5,0.8,1.2,1.4,2.1,1.9c0.9,0.5,1.9,0.7,3.1,0.7c0.9,0,1.8-0.1,2.6-0.3c0.8-0.2,1.5-0.5,2.1-0.8c0.6-0.3,1.1-0.6,1.7-1
				L179.4,68.5L179.4,68.5z"/>
			<path class="st1" d="M223.4,69.9h-6.2l-1.5-3.4c-0.6-1.2-1-2.1-1.5-2.7c-0.4-0.6-0.9-0.9-1.3-1.1c-0.4-0.2-1-0.2-1.6-0.2h-0.6
				v7.5h-5.8V50.8h9.8c1.6,0,2.9,0.3,3.9,1c1,0.6,1.7,1.4,2.2,2.3c0.4,0.9,0.7,1.8,0.7,2.6c0,1-0.2,1.8-0.6,2.4
				c-0.4,0.7-0.8,1.2-1.2,1.5c-0.4,0.3-0.9,0.6-1.4,0.9c0.6,0.4,1.1,0.8,1.5,1.3c0.4,0.5,0.9,1.5,1.6,3L223.4,69.9z M215.6,56.9
				c0-0.9-0.3-1.5-0.9-1.8c-0.6-0.3-1.5-0.5-2.8-0.5h-1.2v4.6h1.2c1.4,0,2.4-0.2,2.9-0.5C215.3,58.3,215.6,57.7,215.6,56.9z"/>
			<path class="st1" d="M238.4,64.4c0,1.2-0.3,2.2-0.9,3.1c-0.6,0.9-1.5,1.5-2.6,2c-1.1,0.5-2.3,0.7-3.8,0.7c-0.4,0-0.9,0-1.5-0.1
				c-0.6-0.1-1.3-0.2-2.3-0.4s-1.9-0.6-3-1V64c1,0.6,1.9,1.1,2.8,1.5c0.9,0.4,1.9,0.6,3,0.6c1,0,1.6-0.2,1.9-0.5
				c0.3-0.3,0.4-0.6,0.4-0.9c0-0.5-0.2-0.9-0.7-1.3c-0.5-0.4-1.2-0.7-2.2-1.1c-1-0.4-2-0.9-2.8-1.4c-0.8-0.5-1.4-1.2-1.9-2
				c-0.5-0.8-0.8-1.7-0.8-2.8c0-1,0.3-2,0.8-2.8s1.3-1.5,2.3-2c1-0.5,2.3-0.7,3.8-0.7c1.1,0,2.1,0.1,3,0.3c0.9,0.2,1.7,0.4,2.2,0.7
				c0.6,0.3,1,0.5,1.2,0.6v4.5c-0.8-0.6-1.7-1.1-2.6-1.5c-1-0.4-2-0.7-3.1-0.7c-0.7,0-1.2,0.1-1.6,0.4s-0.5,0.6-0.5,1
				c0,0.4,0.2,0.7,0.5,1c0.3,0.3,0.9,0.6,1.7,1c1.5,0.7,2.6,1.3,3.5,1.9c0.9,0.6,1.6,1.2,2.1,1.9C238.2,62.4,238.4,63.3,238.4,64.4z
				"/>
			<path class="st1" d="M255.8,69.9h-14.4V50.8h14.2v3.8h-8.4v3.5h8V62h-8v4.1h8.6V69.9z"/>
			<path class="st1" d="M275.7,68.5c-0.8,0.4-1.6,0.7-2.4,1c-0.8,0.2-1.7,0.4-2.5,0.5c-0.8,0.1-1.7,0.2-2.6,0.2
				c-1.7,0-3.2-0.2-4.5-0.7c-1.3-0.5-2.5-1.1-3.4-2c-1-0.9-1.7-1.9-2.2-3.1c-0.5-1.2-0.7-2.5-0.7-3.9c0-1.6,0.3-3.1,0.9-4.3
				s1.4-2.3,2.4-3.1s2.2-1.4,3.5-1.8c1.3-0.4,2.7-0.6,4.1-0.6c2.2,0,4.6,0.5,7.4,1.4v5.1c-0.9-0.6-1.9-1.1-2.8-1.5
				c-0.9-0.4-2-0.6-3.3-0.6c-1.1,0-2.2,0.2-3.1,0.7c-1,0.4-1.7,1.1-2.3,1.9c-0.6,0.8-0.9,1.8-0.9,2.9c0,1,0.3,1.8,0.8,2.7
				c0.5,0.8,1.2,1.4,2.1,1.9c0.9,0.5,1.9,0.7,3.1,0.7c0.9,0,1.8-0.1,2.6-0.3c0.8-0.2,1.5-0.5,2.1-0.8c0.6-0.3,1.1-0.6,1.7-1
				L275.7,68.5L275.7,68.5z"/>
			<path class="st1" d="M201.6,56.6c-0.5-1.2-1.1-2.2-2-3.1c-0.9-0.9-2-1.6-3.4-2.1s-3-0.8-4.7-0.8c-2.4,0-4.4,0.5-6,1.4
				c-1.6,0.9-2.9,2.1-3.6,3.6c-0.8,1.5-1.2,3.1-1.2,4.8c0,1.7,0.4,3.3,1.2,4.8c0.8,1.5,2,2.7,3.6,3.6c1.1,0.6,2.3,1,3.6,1.2v-7.4
				c0,0-0.3-4.5,4.5-5.9c0,0,1.2,5.6-3.7,7.5v5.9c0.5,0.1,1.1,0.1,1.6,0.1c2.3,0,4.3-0.4,5.9-1.3c1.6-0.9,2.9-2.1,3.7-3.6
				c0.8-1.5,1.2-3.1,1.2-4.9C202.3,59.1,202.1,57.8,201.6,56.6z"/>
		</g>
	</g>
</g>
</svg>
