<svg id="Capa_1" data-name="Capa 1" xmlns="http://www.w3.org/2000/svg" xmlns:xlink="http://www.w3.org/1999/xlink" viewBox="0 0 300 247.62"><defs><style>.cls-1{fill:none;}.cls-2{clip-path:url(#clip-path);}.cls-3{fill:#a1d683;}.cls-4{fill:#96daea;}.cls-5{fill:#83bc39;opacity:0.7;isolation:isolate;}.cls-6{fill:#2ed9c3;}.cls-7{fill:#636569;}</style><clipPath id="clip-path"><circle class="cls-1" cx="150" cy="97.69" r="58.63"/></clipPath></defs><rect class="cls-1" width="300" height="247.62"/><g class="cls-2"><path class="cls-3" d="M137.69,123.3a36.62,36.62,0,0,1,5.67,11,33.54,33.54,0,0,1,8.82-8.31A32.63,32.63,0,0,0,137.69,123.3Z"/><path class="cls-3" d="M115,143.78a35.56,35.56,0,0,1-6.58-4.78h0s11.42,12,26.26,15.24a67.09,67.09,0,0,1,2.41-8.09C126.77,150.21,115,143.78,115,143.78Z"/><path class="cls-3" d="M185.51,132.83C184,143.93,172.35,151,172.35,151a32.1,32.1,0,0,1-7.3,3.33v.05s16.1-3.75,26.41-15.24A69.82,69.82,0,0,1,185.51,132.83Z"/><path class="cls-3" d="M166.11,121.13a35.87,35.87,0,0,1,12.52.68,33.78,33.78,0,0,1-2.88-11.9A32.57,32.57,0,0,0,166.11,121.13Z"/><path class="cls-3" d="M206.51,81.87c.08.29.11.45.11.45a72.27,72.27,0,0,1-8.34,2c8.9,6.84,9.21,20.52,9.21,20.52a35.34,35.34,0,0,1-.82,7.94h0S211.51,96.76,206.51,81.87Z"/><path class="cls-3" d="M178.51,95.35a35.87,35.87,0,0,1,6.86-10.54,33.52,33.52,0,0,1-11.86-3.43A32.56,32.56,0,0,0,178.51,95.35Z"/><path class="cls-3" d="M133.75,74.11a36.6,36.6,0,0,1-12.39-.56,34,34,0,0,1,2.88,11.8A32.54,32.54,0,0,0,133.75,74.11Z"/><path class="cls-3" d="M108.51,56.21a69.84,69.84,0,0,1,5.62,5.92c1.68-10.92,13.12-17.87,13.12-17.87a35.06,35.06,0,0,1,6-2.85c-4.23,1.25-17,5.67-25.6,15.64C108.18,56.51,108.51,56.21,108.51,56.21Z"/><path class="cls-3" d="M114.93,110.29a33.8,33.8,0,0,1,11.58,3.46,32.53,32.53,0,0,0-4.92-13.87A36.89,36.89,0,0,1,114.93,110.29Z"/><path class="cls-3" d="M92.51,90.6a35.32,35.32,0,0,1,.86-8.13h0s-4.68,15.58,0,30.3a69,69,0,0,1,8-1.92C92.79,103.89,92.51,90.6,92.51,90.6Z"/><path class="cls-3" d="M162.25,71.79a36.32,36.32,0,0,1-5.74-11.19,33.56,33.56,0,0,1-8.88,8.54A32.77,32.77,0,0,0,162.25,71.79Z"/><path class="cls-3" d="M162.58,49c10.36-4.24,22.32,2.31,22.32,2.31a35,35,0,0,1,5.48,3.8c-3.1-3-13.42-12-26.49-14.44.7.17,1.09.29,1.09.29A70.07,70.07,0,0,1,162.58,49Z"/><path class="cls-4" d="M114.51,133.28c-10.9-1.69-17.84-13.11-17.84-13.11a34.44,34.44,0,0,1-3.32-7.44h0S97,128.6,108.44,139A69.73,69.73,0,0,1,114.51,133.28Z"/><path class="cls-5" d="M137.06,146.2a47,47,0,0,1,6.3-11.88,36.62,36.62,0,0,0-5.67-11,33.42,33.42,0,0,0-11.76,2.8,47.19,47.19,0,0,0-11.42,7.16,72,72,0,0,0-6,5.72,35.56,35.56,0,0,0,6.58,4.78S126.77,150.21,137.06,146.2Z"/><path class="cls-5" d="M114.51,133.28A47.07,47.07,0,0,1,126,126.1a36.87,36.87,0,0,0,.58-12.35A33.8,33.8,0,0,0,115,110.29a47.51,47.51,0,0,0-13.57.52,69,69,0,0,0-8,1.92,34.44,34.44,0,0,0,3.32,7.44S103.59,131.6,114.51,133.28Z"/><path class="cls-4" d="M142.74,155.05a32.8,32.8,0,0,1-8.09-.76h0s16.16,4.56,30.45,0a68.05,68.05,0,0,1-2-8.32C156.22,154.75,142.74,155.05,142.74,155.05Z"/><path class="cls-5" d="M142.74,155.05s13.48-.3,20.37-9a47.07,47.07,0,0,1-.47-13.25A36.43,36.43,0,0,0,152.18,126a33.54,33.54,0,0,0-8.82,8.31,47,47,0,0,0-6.3,11.88,67.09,67.09,0,0,0-2.41,8.09A32.83,32.83,0,0,0,142.74,155.05Z"/><path class="cls-5" d="M185.51,132.83a46.94,46.94,0,0,1-6.91-11,35.87,35.87,0,0,0-12.52-.68,33.75,33.75,0,0,0-3.47,11.65,47.07,47.07,0,0,0,.47,13.25,68.05,68.05,0,0,0,2,8.32,32.1,32.1,0,0,0,7.3-3.33S184,143.93,185.51,132.83Z"/><path class="cls-4" d="M196.13,132.66a34.57,34.57,0,0,1-4.63,6.5h0s11.92-11.25,15.18-26.41a66.27,66.27,0,0,1-8.28-2.49C202.7,120.65,196.13,132.66,196.13,132.66Z"/><path class="cls-5" d="M198.41,110.27a47.24,47.24,0,0,1-11.4-6H187a35.76,35.76,0,0,0-11.2,5.67,33.78,33.78,0,0,0,2.88,11.9,46.94,46.94,0,0,0,6.91,11,69,69,0,0,0,6,6.33,34.57,34.57,0,0,0,4.63-6.5S202.7,120.65,198.41,110.27Z"/><path class="cls-5" d="M198.3,84.3a47.59,47.59,0,0,1-13,.51,36.12,36.12,0,0,0-6.79,10.54,33.68,33.68,0,0,0,8.53,8.92,47.24,47.24,0,0,0,11.4,6,66.27,66.27,0,0,0,8.28,2.49,35.34,35.34,0,0,0,.82-7.94S207.2,91.14,198.3,84.3Z"/><path class="cls-4" d="M191.34,56.05a70.31,70.31,0,0,1-6.15,5.81C196.31,63.35,203.4,75,203.4,75a34.46,34.46,0,0,1,3.13,6.85c-.73-2.73-5.05-17.41-16.15-26.78C191,55.69,191.34,56.05,191.34,56.05Z"/><path class="cls-5" d="M185.19,61.86a47.62,47.62,0,0,1-11,7,36.46,36.46,0,0,0-.65,12.54,33.68,33.68,0,0,0,11.81,3.43,47.59,47.59,0,0,0,13-.51,72.27,72.27,0,0,0,8.34-2,1.43,1.43,0,0,0-.11-.45A34.46,34.46,0,0,0,203.45,75S196.31,63.35,185.19,61.86Z"/><path class="cls-5" d="M162.58,49a47.48,47.48,0,0,1-6.07,11.62,36.37,36.37,0,0,0,5.74,11.2,33.77,33.77,0,0,0,11.93-3,47.62,47.62,0,0,0,11-7A70.31,70.31,0,0,0,191.33,56s-.34-.36-1-1a35,35,0,0,0-5.48-3.8S172.94,44.74,162.58,49Z"/><path class="cls-4" d="M103.64,62.78a35,35,0,0,1,4-5.73c-2.74,2.83-11.52,12.72-14.31,25.38a69.3,69.3,0,0,1,7.85,2.33C97.23,74.48,103.64,62.78,103.64,62.78Z"/><path class="cls-5" d="M101.2,84.76a47.51,47.51,0,0,1,12,6.32,37.24,37.24,0,0,0,11-5.73,34,34,0,0,0-2.88-11.8,47.52,47.52,0,0,0-7.25-11.42,70.66,70.66,0,0,0-5.56-5.92s-.31.3-.83.84a35,35,0,0,0-4,5.73S97.23,74.48,101.2,84.76Z"/><path class="cls-5" d="M101.36,110.81a47.51,47.51,0,0,1,13.57-.52,36.89,36.89,0,0,0,6.66-10.41,33.3,33.3,0,0,0-8.35-8.8,47.51,47.51,0,0,0-12-6.32,69.3,69.3,0,0,0-7.85-2.33,35.08,35.08,0,0,0-.88,8.17S92.79,103.89,101.36,110.81Z"/><path class="cls-4" d="M136.6,49.09c6.88-8.74,20.39-9,20.39-9a34.72,34.72,0,0,1,6.9.6c-3.91-1-17.8-3.87-30.63.76.9-.26,1.41-.38,1.41-.38A66.86,66.86,0,0,1,136.6,49.09Z"/><path class="cls-5" d="M114.11,62.13a47.82,47.82,0,0,1,7.25,11.47,36.6,36.6,0,0,0,12.39.56,33.88,33.88,0,0,0,3.41-11.72,47.45,47.45,0,0,0-.56-13.3,67.49,67.49,0,0,0-1.93-8.06s-.51.12-1.41.38a35.06,35.06,0,0,0-6,2.85S115.79,51.21,114.11,62.13Z"/><path class="cls-5" d="M136.6,49.09a47.45,47.45,0,0,1,.56,13.3,36.52,36.52,0,0,0,10.47,6.74,33.52,33.52,0,0,0,8.88-8.53A47.6,47.6,0,0,0,162.58,49a70,70,0,0,0,2.4-8s-.39-.12-1.09-.29a34.72,34.72,0,0,0-6.9-.6S143.51,40.35,136.6,49.09Z"/><path class="cls-6" d="M207.51,104.82s-.31-13.68-9.21-20.52a72.27,72.27,0,0,0,8.34-2,1.43,1.43,0,0,0-.11-.45A34.46,34.46,0,0,0,203.4,75s-7.09-11.67-18.21-13.16A70.31,70.31,0,0,0,191.34,56s-.34-.36-1-1a35,35,0,0,0-5.48-3.8s-12-6.55-22.32-2.31a70,70,0,0,0,2.4-8s-.39-.12-1.09-.29A34.72,34.72,0,0,0,157,40s-13.51.3-20.39,9A67.49,67.49,0,0,0,134.63,41s-.51.12-1.41.38a35.06,35.06,0,0,0-6,2.85s-11.44,7-13.12,17.87a70.35,70.35,0,0,0-5.59-5.86s-.31.3-.83.84a35,35,0,0,0-4,5.73s-6.41,11.7-2.44,22a69.3,69.3,0,0,0-7.85-2.33,34.91,34.91,0,0,0-.88,8.15s.3,13.33,8.87,20.25a69,69,0,0,0-8,1.92,34.44,34.44,0,0,0,3.32,7.44s6.89,11.39,17.81,13.07a72,72,0,0,0-6,5.72,35.56,35.56,0,0,0,6.58,4.78s11.75,6.43,22,2.42a67.09,67.09,0,0,0-2.41,8.09,32.8,32.8,0,0,0,8.09.76s13.48-.3,20.37-9a68.05,68.05,0,0,0,2,8.32,32.1,32.1,0,0,0,7.3-3.33S184.1,144,185.6,132.85a69,69,0,0,0,6,6.33,34.57,34.57,0,0,0,4.63-6.5s6.57-12,2.28-22.39a66.27,66.27,0,0,0,8.28,2.49A35.48,35.48,0,0,0,207.51,104.82ZM187,104.24a35.76,35.76,0,0,0-11.2,5.67,33.78,33.78,0,0,0,2.88,11.9,35.87,35.87,0,0,0-12.52-.68,33.75,33.75,0,0,0-3.47,11.65A36.43,36.43,0,0,0,152.18,126a33.54,33.54,0,0,0-8.82,8.31,36.62,36.62,0,0,0-5.67-11,33.42,33.42,0,0,0-11.76,2.8,36.87,36.87,0,0,0,.58-12.35,33.8,33.8,0,0,0-11.58-3.46,36.89,36.89,0,0,0,6.66-10.41,33.3,33.3,0,0,0-8.35-8.8,37.24,37.24,0,0,0,11-5.73,34,34,0,0,0-2.88-11.8,36.6,36.6,0,0,0,12.39.56,33.88,33.88,0,0,0,3.41-11.72,36.52,36.52,0,0,0,10.47,6.74,33.75,33.75,0,0,0,8.88-8.55,36.37,36.37,0,0,0,5.74,11.2,33.77,33.77,0,0,0,11.93-3,36.46,36.46,0,0,0-.65,12.54,33.68,33.68,0,0,0,11.81,3.43,35.9,35.9,0,0,0-6.83,10.58,33.68,33.68,0,0,0,8.53,8.92Z"/><path class="cls-1" d="M162.25,71.79a32.61,32.61,0,0,1-14.62-2.66,32.46,32.46,0,0,1-13.88,5,32.54,32.54,0,0,1-9.51,11.24,32.66,32.66,0,0,1-2.65,14.53,32.44,32.44,0,0,1,4.92,13.85,32.67,32.67,0,0,1,11.18,9.55A32.65,32.65,0,0,1,152.18,126a32.9,32.9,0,0,1,13.93-4.88,32.57,32.57,0,0,1,9.64-11.22,32.55,32.55,0,0,1,2.76-14.56,32.61,32.61,0,0,1-4.95-14A32.72,32.72,0,0,1,162.25,71.79Z"/><path class="cls-4" d="M126.51,113.75a36.87,36.87,0,0,1-.58,12.35,33.42,33.42,0,0,1,11.76-2.8A32.67,32.67,0,0,0,126.51,113.75Z"/><path class="cls-4" d="M162.64,132.78a33.75,33.75,0,0,1,3.47-11.65A32.9,32.9,0,0,0,152.18,126,36.43,36.43,0,0,1,162.64,132.78Z"/><path class="cls-4" d="M175.75,109.91a35.76,35.76,0,0,1,11.2-5.67H187a33.68,33.68,0,0,1-8.53-8.92A32.65,32.65,0,0,0,175.75,109.91Z"/><path class="cls-4" d="M173.51,81.38a36.46,36.46,0,0,1,.65-12.54,33.77,33.77,0,0,1-11.93,3A32.67,32.67,0,0,0,173.51,81.38Z"/><path class="cls-4" d="M124.24,85.35a37.24,37.24,0,0,1-11,5.73,33.3,33.3,0,0,1,8.35,8.8A32.66,32.66,0,0,0,124.24,85.35Z"/><path class="cls-4" d="M137.16,62.39a33.88,33.88,0,0,1-3.41,11.72,32.46,32.46,0,0,0,13.88-5A36.45,36.45,0,0,1,137.16,62.39Z"/></g><path class="cls-7" d="M42.51,208.38a3,3,0,0,1-1.19.21,2.09,2.09,0,0,1-2.21-2,1.61,1.61,0,0,1,0-.31A2.23,2.23,0,0,1,41.2,204h.25a2.32,2.32,0,0,1,1.07.2l-.15.48a2,2,0,0,0-.9-.19A1.68,1.68,0,0,0,39.71,206a2.44,2.44,0,0,0,0,.27,1.62,1.62,0,0,0,1.43,1.79,1.38,1.38,0,0,0,.29,0,2.37,2.37,0,0,0,1-.19Z"/><path class="cls-7" d="M45,208.6a2.06,2.06,0,0,1-2-2.11,1,1,0,0,1,0-.17A2.13,2.13,0,0,1,44.85,204H45a2,2,0,0,1,2,2,2.83,2.83,0,0,1,0,.29,2.11,2.11,0,0,1-1.83,2.35l-.24,0Zm0-.48c.92,0,1.44-.84,1.44-1.86s-.47-1.83-1.44-1.83-1.44.9-1.44,1.87.52,1.82,1.43,1.82Z"/><path class="cls-7" d="M47.93,208.52V204h.64L50,206.3a12.2,12.2,0,0,1,.8,1.46h0c0-.6-.07-1.15-.07-1.84V204h.55v4.49h-.57l-1.42-2.28a11,11,0,0,1-.84-1.5h0v3.77Z"/><path class="cls-7" d="M52.36,207.82a2,2,0,0,0,1,.28c.6,0,.94-.3.94-.76s-.24-.66-.84-.89-1.19-.64-1.19-1.27A1.29,1.29,0,0,1,53.62,204h.1a2,2,0,0,1,1,.22l-.16.48a1.59,1.59,0,0,0-.85-.22c-.61,0-.84.37-.84.68s.27.62.89.86a1.5,1.5,0,0,1,1.14,1.32c0,.66-.49,1.3-1.55,1.3a2.38,2.38,0,0,1-1.14-.29Z"/><path class="cls-7" d="M56.42,204v2.67c0,1,.45,1.42,1,1.42s1.09-.44,1.09-1.42V204h.59v2.63c0,1.38-.73,1.94-1.7,1.94s-1.61-.52-1.61-1.92V204Z"/><path class="cls-7" d="M60.27,204h.59v4h1.92v.48H60.27Z"/><path class="cls-7" d="M63.81,204.52H62.44V204h3.33v.49H64.4v4h-.59Z"/><path class="cls-7" d="M68,208.6a2,2,0,0,1-2-2.09,1.21,1.21,0,0,1,0-.19A2.13,2.13,0,0,1,67.86,204h.19a2,2,0,0,1,2,2,2.83,2.83,0,0,1,0,.29,2.11,2.11,0,0,1-1.83,2.35Zm0-.48c.92,0,1.44-.84,1.44-1.86s-.47-1.83-1.43-1.83-1.45.9-1.45,1.87.52,1.82,1.43,1.82Z"/><path class="cls-7" d="M70.93,204.1A6,6,0,0,1,72,204a1.92,1.92,0,0,1,1.31.37,1.13,1.13,0,0,1,.35.85,1.18,1.18,0,0,1-.85,1.14h0a1.14,1.14,0,0,1,.66.91,8.61,8.61,0,0,0,.34,1.23h-.6a5.64,5.64,0,0,1-.29-1.07c-.13-.62-.38-.85-.91-.87h-.54v1.94h-.58Zm.58,2h.59c.62,0,1-.34,1-.86s-.42-.83-1-.83a2.75,2.75,0,0,0-.57.05Z"/><path class="cls-7" d="M77,206.42H75.22V208h1.94v.48H74.63V204h2.43v.49H75.22v1.42H77Z"/><path class="cls-7" d="M78,207.82a2.06,2.06,0,0,0,1,.28c.59,0,.94-.3.94-.76s-.24-.66-.85-.89-1.19-.64-1.19-1.27A1.3,1.3,0,0,1,79.23,204h.09a2,2,0,0,1,1,.22l-.16.48a1.65,1.65,0,0,0-.84-.22c-.62,0-.85.37-.85.68s.27.62.89.86,1.15.62,1.15,1.32-.5,1.29-1.56,1.29a2.21,2.21,0,0,1-1.15-.29Z"/><path class="cls-7" d="M85.3,206.42H83.56V208h2v.48H83V204h2.44v.49H83.56v1.42H85.3Z"/><path class="cls-7" d="M86.38,208.52V204H87l1.43,2.27a11.48,11.48,0,0,1,.8,1.46h0c0-.6-.06-1.15-.06-1.84V204h.54v4.49h-.58l-1.43-2.28a12.17,12.17,0,0,1-.83-1.5h0v3.77Z"/><path class="cls-7" d="M94.18,208.6a2.06,2.06,0,0,1-2-2.11,1,1,0,0,1,0-.17A2.14,2.14,0,0,1,94.09,204h.18a2,2,0,0,1,2,2,2.83,2.83,0,0,1,0,.29,2.11,2.11,0,0,1-1.83,2.35Zm0-.48c.92,0,1.44-.84,1.44-1.86s-.47-1.83-1.43-1.83-1.45.9-1.45,1.87.52,1.82,1.43,1.82Z"/><path class="cls-7" d="M97.14,204.09a6.92,6.92,0,0,1,1.11-.09,1.89,1.89,0,0,1,1.26.37,1.19,1.19,0,0,1,.4.93,1.31,1.31,0,0,1-.35,1,1.85,1.85,0,0,1-1.38.5,1.77,1.77,0,0,1-.46,0v1.8h-.58Zm.58,2.15a1.57,1.57,0,0,0,.48,0c.7,0,1.12-.34,1.12-.95s-.42-.88-1.06-.88a2.44,2.44,0,0,0-.54,0Z"/><path class="cls-7" d="M101.66,204.52h-1.37V204h3.33v.49h-1.37v4h-.59Z"/><path class="cls-7" d="M104.82,204v4.49h-.59V204Z"/><path class="cls-7" d="M109.74,206.6c0-.62-.07-1.39-.07-1.94h0c-.16.52-.34,1.09-.56,1.71l-.8,2.18h-.44l-.73-2.14c-.21-.64-.39-1.22-.51-1.75h0a17.84,17.84,0,0,1-.08,2l-.12,1.92h-.56l.32-4.49h.74l.76,2.17c.19.56.34,1.06.46,1.52h0a15.32,15.32,0,0,1,.48-1.52l.8-2.17h.74l.28,4.49h-.57Z"/><path class="cls-7" d="M112,204v4.49h-.59V204Z"/><path class="cls-7" d="M112.84,208.18l2.5-3.64h-2.28v-.49h3v.35L113.58,208h2.51v.48h-3.28Z"/><path class="cls-7" d="M117.68,207.11l-.46,1.41h-.6l1.52-4.49h.7l1.54,4.49h-.62l-.48-1.41Zm1.48-.45-.45-1.3c-.09-.29-.16-.56-.23-.82h0c-.06.26-.13.54-.22.82l-.44,1.3Z"/><path class="cls-7" d="M124.19,208.38a3,3,0,0,1-1.18.21,2.09,2.09,0,0,1-2.22-2,1.5,1.5,0,0,1,0-.3A2.24,2.24,0,0,1,122.9,204h.24a2.61,2.61,0,0,1,1.07.2l-.15.48a2,2,0,0,0-.9-.19A1.68,1.68,0,0,0,121.4,206a2.44,2.44,0,0,0,0,.27,1.62,1.62,0,0,0,1.43,1.79,1.38,1.38,0,0,0,.29,0,2.37,2.37,0,0,0,1-.19Z"/><path class="cls-7" d="M125.63,204v4.49H125V204Z"/><path class="cls-7" d="M128.51,208.6a2.06,2.06,0,0,1-2-2.11,1,1,0,0,1,0-.17A2.13,2.13,0,0,1,128.4,204h.19a2,2,0,0,1,2,2,2.83,2.83,0,0,1,0,.29,2.11,2.11,0,0,1-1.83,2.35Zm0-.48c.92,0,1.44-.84,1.44-1.86s-.47-1.83-1.44-1.83-1.44.9-1.44,1.87.52,1.82,1.43,1.82Zm1-5.13-.86.78h-.47l.62-.78Z"/><path class="cls-7" d="M131.51,208.52V204h.64l1.36,2.27a12.2,12.2,0,0,1,.8,1.46h0c-.05-.6-.07-1.15-.07-1.84V204h.55v4.49h-.59l-1.42-2.28a11,11,0,0,1-.84-1.5h0v3.77Z"/><path class="cls-7" d="M139.84,206.42H138.1V208h2v.48h-2.54V204H140v.49H138.1v1.42h1.74Z"/><path class="cls-7" d="M144.71,206.6c0-.62-.08-1.39-.08-1.94h0c-.16.52-.34,1.09-.57,1.71l-.79,2.18h-.44l-.73-2.14c-.22-.64-.39-1.22-.52-1.75h0c0,.56-.05,1.31-.09,2l-.12,1.92h-.55l.31-4.49h.74l.77,2.17c.19.56.33,1.06.45,1.52h0a15.32,15.32,0,0,1,.48-1.52l.8-2.17h.74l.28,4.49h-.58Z"/><path class="cls-7" d="M146.4,204.09a6.92,6.92,0,0,1,1.11-.09,1.87,1.87,0,0,1,1.27.37,1.23,1.23,0,0,1,.4.93,1.27,1.27,0,0,1-.36,1,1.83,1.83,0,0,1-1.37.5,1.85,1.85,0,0,1-.47,0v1.8h-.58Zm.58,2.15a1.57,1.57,0,0,0,.48,0c.7,0,1.13-.34,1.13-.95s-.42-.88-1.06-.88a2.53,2.53,0,0,0-.55,0Z"/><path class="cls-7" d="M150.07,204.1a6,6,0,0,1,1.11-.1,1.92,1.92,0,0,1,1.31.37,1.13,1.13,0,0,1,.35.85,1.19,1.19,0,0,1-.84,1.14h0a1.16,1.16,0,0,1,.66.91,6.6,6.6,0,0,0,.34,1.23h-.6a4.85,4.85,0,0,1-.3-1.07c-.13-.62-.38-.85-.9-.87h-.55v1.94h-.58Zm.58,2h.59c.62,0,1-.34,1-.86s-.42-.83-1-.83a2.75,2.75,0,0,0-.57.05Z"/><path class="cls-7" d="M156.1,206.42h-1.74V208h1.94v.48h-2.53V204h2.43v.49h-1.84v1.42h1.74Z"/><path class="cls-7" d="M157.1,207.82a2.06,2.06,0,0,0,1,.28c.59,0,.94-.3.94-.76s-.24-.66-.85-.89-1.19-.64-1.19-1.27a1.3,1.3,0,0,1,1.37-1.23h.09a2.15,2.15,0,0,1,1,.22l-.16.48a1.59,1.59,0,0,0-.85-.22c-.61,0-.85.37-.85.68s.28.62.9.86a1.5,1.5,0,0,1,1.14,1.32c0,.66-.51,1.29-1.57,1.29a2.42,2.42,0,0,1-1.15-.29Z"/><path class="cls-7" d="M161.31,207.11l-.46,1.41h-.6l1.52-4.49h.7l1.54,4.49h-.62l-.48-1.41Zm1.48-.45-.45-1.3c-.09-.29-.16-.56-.23-.82h0c-.06.26-.13.54-.22.82l-.44,1.3Z"/><path class="cls-7" d="M164.79,204.1a6,6,0,0,1,1.11-.1,1.92,1.92,0,0,1,1.31.37,1.13,1.13,0,0,1,.35.85,1.18,1.18,0,0,1-.85,1.14h0a1.15,1.15,0,0,1,.67.91,6.6,6.6,0,0,0,.34,1.23h-.6a4.85,4.85,0,0,1-.3-1.07c-.13-.62-.38-.85-.91-.87h-.54v1.94h-.58Zm.58,2H166c.62,0,1-.34,1-.86s-.42-.83-1-.83a2.75,2.75,0,0,0-.57.05Z"/><path class="cls-7" d="M169.08,204v4.49h-.57V204Z"/><path class="cls-7" d="M170.94,207.11l-.47,1.41h-.6L171.4,204h.7l1.53,4.49H173l-.48-1.41Zm1.47-.45-.45-1.3c-.09-.29-.16-.56-.22-.82h0c-.06.26-.14.54-.22.82l-.44,1.3Z"/><path class="cls-7" d="M174.4,204H175v4h1.92v.48H174.4Z"/><path class="cls-7" d="M179.91,208.52V206.6l-1.4-2.57h.67l.63,1.24c.17.34.31.61.45.93h0c.12-.3.28-.59.45-.93l.65-1.24H182l-1.5,2.57v1.91Z"/><path class="cls-7" d="M184.17,204.1a6,6,0,0,1,1.11-.1,1.92,1.92,0,0,1,1.31.37,1.13,1.13,0,0,1,.35.85,1.19,1.19,0,0,1-.84,1.14h0a1.16,1.16,0,0,1,.66.91,6.6,6.6,0,0,0,.34,1.23h-.59a4.85,4.85,0,0,1-.3-1.07c-.13-.62-.38-.85-.9-.87h-.55v1.94h-.58Zm.58,2h.59c.62,0,1-.34,1-.86s-.42-.83-1-.83a2.75,2.75,0,0,0-.57.05Z"/><path class="cls-7" d="M190.2,206.42h-1.69V208h1.94v.48h-2.53V204h2.43v.49h-1.84v1.42h1.74Z"/><path class="cls-7" d="M191.2,207.82a2.06,2.06,0,0,0,1,.28c.59,0,.94-.3.94-.76s-.24-.66-.85-.89-1.19-.64-1.19-1.27a1.3,1.3,0,0,1,1.37-1.23h.09a2,2,0,0,1,1,.22l-.16.48a1.65,1.65,0,0,0-.84-.22c-.62,0-.85.37-.85.68s.27.62.89.86a1.5,1.5,0,0,1,1.14,1.32c0,.66-.5,1.29-1.56,1.29a2.21,2.21,0,0,1-1.15-.29Z"/><path class="cls-7" d="M194.69,204.09a6.92,6.92,0,0,1,1.11-.09,1.89,1.89,0,0,1,1.26.37,1.19,1.19,0,0,1,.4.93,1.31,1.31,0,0,1-.35,1,1.85,1.85,0,0,1-1.38.5,1.77,1.77,0,0,1-.46,0v1.8h-.58Zm.58,2.15a1.57,1.57,0,0,0,.48,0c.7,0,1.12-.34,1.12-.95s-.42-.88-1.06-.88a2.44,2.44,0,0,0-.54,0Z"/><path class="cls-7" d="M200.11,208.6a2,2,0,0,1-2-2.09,1.21,1.21,0,0,1,0-.19A2.13,2.13,0,0,1,200,204h.19a2,2,0,0,1,2,2,2.83,2.83,0,0,1,0,.29,2.11,2.11,0,0,1-1.83,2.35Zm0-.48c.92,0,1.44-.84,1.44-1.86s-.47-1.83-1.43-1.83-1.45.9-1.45,1.87.52,1.82,1.43,1.82Z"/><path class="cls-7" d="M203.07,208.52V204h.64l1.43,2.27a11.48,11.48,0,0,1,.8,1.46h0c0-.6-.06-1.15-.06-1.84V204h.54v4.49h-.58l-1.43-2.28a12.17,12.17,0,0,1-.83-1.5h0v3.77Z"/><path class="cls-7" d="M207.51,207.82a2.06,2.06,0,0,0,1,.28c.59,0,.94-.3.94-.76s-.24-.66-.85-.89-1.19-.64-1.19-1.27a1.3,1.3,0,0,1,1.37-1.23h.09a2,2,0,0,1,1,.22l-.16.48a1.65,1.65,0,0,0-.84-.22c-.62,0-.85.37-.85.68s.27.62.89.86a1.5,1.5,0,0,1,1.14,1.32,1.35,1.35,0,0,1-1.54,1.3,2.21,2.21,0,0,1-1.15-.29Z"/><path class="cls-7" d="M211.71,207.11l-.47,1.41h-.6l1.53-4.49h.7l1.54,4.49h-.62l-.48-1.41Zm1.48-.45-.45-1.3c-.1-.29-.16-.56-.23-.82h0c-.06.26-.13.54-.22.82l-.44,1.3Z"/><path class="cls-7" d="M215.19,204.1a5.36,5.36,0,0,1,1.06-.1,1.83,1.83,0,0,1,1.22.32,1,1,0,0,1,.38.8,1,1,0,0,1-.76,1h0a1.14,1.14,0,0,1,.93,1.12,1.15,1.15,0,0,1-.39.9,2.17,2.17,0,0,1-1.54.42,6.79,6.79,0,0,1-.9-.05Zm.58,1.84h.52c.61,0,1-.33,1-.76s-.39-.74-1-.74a2.18,2.18,0,0,0-.51,0Zm0,2.14h.48c.6,0,1.16-.22,1.16-.87s-.53-.87-1.16-.87h-.48Z"/><path class="cls-7" d="M219.51,204v4.49h-.59V204Z"/><path class="cls-7" d="M220.63,204h.58v4h1.93v.48h-2.51Z"/><path class="cls-7" d="M224.51,204v4.49h-.58V204Z"/><path class="cls-7" d="M225.61,204.09a8.62,8.62,0,0,1,1.24-.09,2.59,2.59,0,0,1,1.82.56,2,2,0,0,1,.64,1.61,2.4,2.4,0,0,1-.65,1.75,2.76,2.76,0,0,1-2,.64,7.53,7.53,0,0,1-1.06-.05Zm.59,4a2.81,2.81,0,0,0,.58,0,1.75,1.75,0,0,0,1.92-1.54,2.29,2.29,0,0,0,0-.37,1.61,1.61,0,0,0-1.47-1.74,1.37,1.37,0,0,0-.35,0,2.57,2.57,0,0,0-.68.06Z"/><path class="cls-7" d="M230.81,207.11l-.47,1.41h-.6l1.53-4.49h.7l1.54,4.49h-.62l-.48-1.41Zm1.48-.45-.45-1.3c-.09-.29-.16-.56-.23-.82h0c-.06.26-.13.54-.22.82l-.44,1.3Z"/><path class="cls-7" d="M234.28,204.09a8.62,8.62,0,0,1,1.24-.09,2.59,2.59,0,0,1,1.82.56,2,2,0,0,1,.64,1.61,2.4,2.4,0,0,1-.65,1.75,2.76,2.76,0,0,1-2,.64,7.53,7.53,0,0,1-1.06-.05Zm.59,4a2.81,2.81,0,0,0,.58,0,1.75,1.75,0,0,0,1.92-1.54,2.29,2.29,0,0,0,0-.37,1.61,1.61,0,0,0-1.47-1.74,1.37,1.37,0,0,0-.35,0,2.57,2.57,0,0,0-.68.06Z"/><path class="cls-7" d="M240.31,207.82a2,2,0,0,0,1,.28c.6,0,.94-.3.94-.76s-.24-.66-.84-.89-1.19-.64-1.19-1.27a1.29,1.29,0,0,1,1.35-1.23h.1a2,2,0,0,1,1,.22l-.16.48a1.59,1.59,0,0,0-.85-.22c-.61,0-.84.37-.84.68s.27.62.89.86a1.5,1.5,0,0,1,1.14,1.32c0,.66-.51,1.29-1.57,1.29a2.42,2.42,0,0,1-1.15-.29Z"/><path class="cls-7" d="M245.51,208.6a2.06,2.06,0,0,1-2-2.11,1,1,0,0,1,0-.17A2.13,2.13,0,0,1,245.4,204h.19a2,2,0,0,1,2,2,2.83,2.83,0,0,1,0,.29,2.11,2.11,0,0,1-1.83,2.35Zm0-.48c.92,0,1.44-.84,1.44-1.86s-.47-1.83-1.44-1.83-1.44.9-1.44,1.87.52,1.82,1.43,1.82Z"/><path class="cls-7" d="M251.64,208.38a3,3,0,0,1-1.19.21,2.09,2.09,0,0,1-2.21-2,1.61,1.61,0,0,1,0-.31,2.23,2.23,0,0,1,2.09-2.36h.26a2.41,2.41,0,0,1,1.06.2l-.14.44a2,2,0,0,0-.9-.19,1.68,1.68,0,0,0-1.77,1.57,2.62,2.62,0,0,0,0,.28,1.62,1.62,0,0,0,1.43,1.79,1.38,1.38,0,0,0,.29,0,2.47,2.47,0,0,0,1-.19Z"/><path class="cls-7" d="M253.07,204v4.49h-.56V204Z"/><path class="cls-7" d="M254.93,207.11l-.46,1.41h-.6l1.52-4.49h.7l1.54,4.49H257l-.48-1.41Zm1.48-.45-.45-1.3c-.09-.29-.16-.56-.23-.82h0c-.06.26-.13.54-.22.82l-.44,1.3Z"/><path class="cls-7" d="M258.4,204H259v4h1.92v.48H258.4Z"/><path class="cls-7" d="M57.76,194.18l-1,.38-.82.27q-.39.12-1.14.3a22.89,22.89,0,0,1-5.21.61,13.32,13.32,0,0,1-5.22-1,8.66,8.66,0,0,1-3.83-3.2,9.45,9.45,0,0,1-1.44-5.33,11,11,0,0,1,.75-4,7,7,0,0,1,2.26-3.14,10.53,10.53,0,0,1,2.51-1.47,11.08,11.08,0,0,1,2.52-.69,19,19,0,0,1,2.72-.17,19.21,19.21,0,0,1,4,.36c1.06.25,2.23.57,3.49,1v4.39a14.57,14.57,0,0,0-2.66-1.23,10.63,10.63,0,0,0-3.5-.49,7.2,7.2,0,0,0-3.88.91,5,5,0,0,0-2,2.19,6,6,0,0,0-.57,2.46,5.2,5.2,0,0,0,.66,2.59,4.88,4.88,0,0,0,2,1.9,6.59,6.59,0,0,0,3.2.72,10.22,10.22,0,0,0,2.27-.28v-2.18H50.36v-3.74h7.4Z"/><path class="cls-7" d="M79.15,195.49h-6l-1.46-3.29a14.05,14.05,0,0,0-1.45-2.6A3.09,3.09,0,0,0,69,188.53a4.4,4.4,0,0,0-1.57-.23h-.63v7.23H61.2V177h9.51a6.83,6.83,0,0,1,3.77.94,5.61,5.61,0,0,1,2.13,2.27,5.93,5.93,0,0,1,.64,2.54,4.78,4.78,0,0,1-.54,2.38,4.57,4.57,0,0,1-1.14,1.41,11.71,11.71,0,0,1-1.35.84,5.31,5.31,0,0,1,1.48,1.27,16.61,16.61,0,0,1,1.58,2.9Zm-7.64-12.68a1.91,1.91,0,0,0-.84-1.79,5.5,5.5,0,0,0-2.74-.51H66.79V185H68a6,6,0,0,0,2.8-.45A1.84,1.84,0,0,0,71.51,182.81Z"/><path class="cls-7" d="M99.67,187.19a8.64,8.64,0,0,1-.89,4.06,7.14,7.14,0,0,1-2.35,2.65,10.44,10.44,0,0,1-3.16,1.41,14.23,14.23,0,0,1-3.38.43,13.27,13.27,0,0,1-4.58-.81,8.13,8.13,0,0,1-3.73-2.73,7.92,7.92,0,0,1-1.5-5V177h5.58v8.79a7.49,7.49,0,0,0,.53,3,3.6,3.6,0,0,0,1.47,1.75,4.35,4.35,0,0,0,2.23.56,4.16,4.16,0,0,0,2.18-.55,3.6,3.6,0,0,0,1.44-1.71,7.49,7.49,0,0,0,.53-3V177h5.59Z"/><path class="cls-7" d="M119.16,182.78a5.7,5.7,0,0,1-.36,2,5.37,5.37,0,0,1-1.14,1.83,5.6,5.6,0,0,1-2.14,1.38,8.71,8.71,0,0,1-3.16.53h-3.67v6.95H103.1V177h9.26a8.71,8.71,0,0,1,3.16.53,5.77,5.77,0,0,1,2.14,1.4,5.5,5.5,0,0,1,1.14,1.86A5.88,5.88,0,0,1,119.16,182.78Zm-5.7,0a1.94,1.94,0,0,0-.79-1.81,5.63,5.63,0,0,0-2.8-.49h-1.18V185h1.21a9.57,9.57,0,0,0,2.14-.18,1.73,1.73,0,0,0,1.08-.64,2.22,2.22,0,0,0,.39-1.32Z"/><path class="cls-7" d="M141.14,186.21A9.74,9.74,0,0,1,140,191a8.68,8.68,0,0,1-3.57,3.46,11.9,11.9,0,0,1-5.77,1.29,11.78,11.78,0,0,1-5.82-1.34,8.79,8.79,0,0,1-3.53-3.52,10,10,0,0,1,0-9.35,8.59,8.59,0,0,1,3.54-3.5,11.77,11.77,0,0,1,5.82-1.33,12.83,12.83,0,0,1,4.59.76,9.22,9.22,0,0,1,3.31,2.07,8.68,8.68,0,0,1,2,3A10.28,10.28,0,0,1,141.14,186.21Zm-5.7,0a5.65,5.65,0,0,0-.3-1.91,4.25,4.25,0,0,0-.93-1.5,4.57,4.57,0,0,0-1.52-1,5.91,5.91,0,0,0-2.08-.35,4.46,4.46,0,0,0-4.81,4.08,5,5,0,0,0,0,.67A4.48,4.48,0,0,0,130,191a4.14,4.14,0,0,0,.61,0,5.25,5.25,0,0,0,2.63-.61,4,4,0,0,0,1.64-1.68,5.13,5.13,0,0,0,.56-2.46Z"/><path class="cls-7" d="M167.45,194.1a13.27,13.27,0,0,1-2.36,1,14.38,14.38,0,0,1-2.43.51,21.35,21.35,0,0,1-2.53.16,13.36,13.36,0,0,1-4.35-.67,9.44,9.44,0,0,1-3.33-2,8.49,8.49,0,0,1-2.11-3,10.94,10.94,0,0,1,.13-8,8,8,0,0,1,2.32-3,9.93,9.93,0,0,1,3.4-1.76,13.9,13.9,0,0,1,4-.56,21.9,21.9,0,0,1,7.16,1.4V183a19.62,19.62,0,0,0-2.73-1.42,7.94,7.94,0,0,0-3.16-.57,7.22,7.22,0,0,0-3,.64,5.62,5.62,0,0,0-2.26,1.84,4.88,4.88,0,0,0-.1,5.35,5.19,5.19,0,0,0,2.08,1.86,6.38,6.38,0,0,0,3,.69,10.09,10.09,0,0,0,2.56-.32,12.56,12.56,0,0,0,2-.73c.55-.27,1.12-.59,1.7-1Z"/><path class="cls-7" d="M210.18,195.49h-6l-1.46-3.29a14.08,14.08,0,0,0-1.44-2.64,3.23,3.23,0,0,0-1.25-1.07,4.45,4.45,0,0,0-1.58-.23h-.63v7.23h-5.59V177h9.51a6.87,6.87,0,0,1,3.78.94,5.59,5.59,0,0,1,2.12,2.27,5.8,5.8,0,0,1,.65,2.54,4.78,4.78,0,0,1-.54,2.38,4.46,4.46,0,0,1-1.15,1.41,11.71,11.71,0,0,1-1.35.84,5.35,5.35,0,0,1,1.48,1.24,15.38,15.38,0,0,1,1.58,2.9Zm-7.6-12.68a1.9,1.9,0,0,0-.85-1.79,5.5,5.5,0,0,0-2.74-.51h-1.18V185H199a6,6,0,0,0,2.8-.45,1.82,1.82,0,0,0,.76-1.72Z"/><path class="cls-7" d="M224.73,190.1a5.16,5.16,0,0,1-.89,3,5.61,5.61,0,0,1-2.49,2,9.32,9.32,0,0,1-3.65.68,9.46,9.46,0,0,1-1.41-.08,15.22,15.22,0,0,1-2.22-.41,16.37,16.37,0,0,1-2.88-1v-4.55a19.09,19.09,0,0,0,2.76,1.45,7.44,7.44,0,0,0,2.91.57,2.55,2.55,0,0,0,1.85-.47,1.43,1.43,0,0,0,.42-.89,1.5,1.5,0,0,0-.72-1.26,9.9,9.9,0,0,0-2.1-1.07,16.27,16.27,0,0,1-2.68-1.4,6.39,6.39,0,0,1-1.88-1.89,4.91,4.91,0,0,1-.73-2.69,5.19,5.19,0,0,1,.74-2.71,5,5,0,0,1,2.25-1.93,8.51,8.51,0,0,1,3.69-.72,13.34,13.34,0,0,1,5.05,1,8.54,8.54,0,0,1,1.17.59v4.31a15.53,15.53,0,0,0-2.53-1.46,7,7,0,0,0-3-.64,2.26,2.26,0,0,0-1.51.4,1.25,1.25,0,0,0-.47,1,1.19,1.19,0,0,0,.47.95,8.59,8.59,0,0,0,1.67,1,31.84,31.84,0,0,1,3.42,1.8,7,7,0,0,1,2,1.86A4.51,4.51,0,0,1,224.73,190.1Z"/><path class="cls-7" d="M241.51,195.49h-14V177h13.75v3.72H233.1v3.4h7.79v3.73H233.1v4h8.41Z"/><path class="cls-7" d="M260.94,194.1a13.49,13.49,0,0,1-2.35,1,14.38,14.38,0,0,1-2.43.51,21.52,21.52,0,0,1-2.54.16,13.34,13.34,0,0,1-4.34-.67,9.44,9.44,0,0,1-3.33-2,8.17,8.17,0,0,1-2.11-3,10.25,10.25,0,0,1-.71-3.83A9.94,9.94,0,0,1,244,182a8.21,8.21,0,0,1,2.32-3,9.93,9.93,0,0,1,3.4-1.76,13.9,13.9,0,0,1,4-.56,21.64,21.64,0,0,1,7.16,1.4V183a20.08,20.08,0,0,0-2.72-1.42A8.2,8.2,0,0,0,255,181a7.07,7.07,0,0,0-3,.64,5.62,5.62,0,0,0-2.26,1.84,4.84,4.84,0,0,0-.11,5.35,5.19,5.19,0,0,0,2.08,1.86,6.38,6.38,0,0,0,3,.69,10,10,0,0,0,2.55-.32,12.56,12.56,0,0,0,2-.73c.55-.27,1.11-.59,1.69-1Z"/><path class="cls-3" d="M189,182.6a8.68,8.68,0,0,0-2-3,9.2,9.2,0,0,0-3.32-2.07,12.77,12.77,0,0,0-4.58-.76,11.81,11.81,0,0,0-5.83,1.33,8.51,8.51,0,0,0-3.53,3.5,10,10,0,0,0,0,9.35,8.7,8.7,0,0,0,3.54,3.52,10.72,10.72,0,0,0,3.53,1.17v-7.2a5.79,5.79,0,0,1,4.35-5.74s1.12,5.43-3.63,7.31v5.72a15.39,15.39,0,0,0,1.57.08,11.9,11.9,0,0,0,5.77-1.29,8.6,8.6,0,0,0,3.56-3.46,9.83,9.83,0,0,0,1.2-4.78A10,10,0,0,0,189,182.6Z"/></svg>